<svg xmlns="http://www.w3.org/2000/svg" viewBox="0 0 165 165"><defs><style>.cls-1{isolation:isolate;}.cls-2{opacity:0.3;mix-blend-mode:multiply;}.cls-3{fill:#b2dcbf;}.cls-4{fill:#70c1b3;}.cls-5{fill:#70798c;}.cls-6{fill:#1c545d;}.cls-7{fill:#5bc4be;}.cls-8{fill:#b8bacf;}.cls-9{fill:#f26b6c;}.cls-10{fill:#995d81;}.cls-11{fill:none;stroke:#1c4075;stroke-miterlimit:10;stroke-width:4px;}.cls-12{fill:#fee56d;}</style></defs><title>chartlogo</title><g class="cls-1"><g id="Layer_2" data-name="Layer 2"><g class="cls-2"><rect class="cls-3" width="165" height="165"/><polygon class="cls-4" points="81.2 165 100.36 165 165 100.36 165 81.2 81.2 165"/><polygon class="cls-4" points="47.7 165 66.86 165 165 66.86 165 47.7 47.7 165"/><polygon class="cls-4" points="114.7 165 133.86 165 165 133.86 165 114.7 114.7 165"/><polygon class="cls-4" points="14.2 165 33.36 165 165 33.36 165 14.2 14.2 165"/><polygon class="cls-4" points="148.2 165 165 165 165 148.2 148.2 165"/><polygon class="cls-4" points="0 78.7 0 97.86 97.86 0 78.7 0 0 78.7"/><polygon class="cls-4" points="0 45.2 0 64.36 64.36 0 45.2 0 0 45.2"/><polygon class="cls-4" points="0 11.7 0 30.86 30.86 0 11.7 0 0 11.7"/><polygon class="cls-4" points="0 112.2 0 131.36 131.36 0 112.2 0 0 112.2"/><polygon class="cls-4" points="0 145.7 0 164.86 164.86 0 145.7 0 0 145.7"/></g></g><g id="Layer_1" data-name="Layer 1"><rect class="cls-5" x="17.82" y="150.28" width="129.36" height="5" rx="2.5"/><rect class="cls-6" x="89.73" y="135.12" width="20" height="10.7"/><rect class="cls-7" x="89.73" y="117.99" width="20" height="10.7"/><rect class="cls-8" x="89.73" y="100.38" width="20" height="10.7"/><path class="cls-9" d="M109.73,32.72h-4a14.71,14.71,0,0,1-12,0h-4V94.86h20Z"/><rect class="cls-7" x="20.82" y="135.12" width="20" height="10.7"/><path class="cls-9" d="M40.82,45.16h-4a12.31,12.31,0,0,1-12,0h-4v65.93h20Z"/><rect class="cls-8" x="20.82" y="117.99" width="20" height="10.7"/><path class="cls-9" d="M75.27,64.27h-4a13.3,13.3,0,0,1-12,0h-4v46.82h20Z"/><rect class="cls-7" x="55.27" y="135.12" width="20" height="10.7"/><rect class="cls-8" x="55.27" y="117.99" width="20" height="10.7"/><path class="cls-9" d="M144.18,49.16h-4a24.86,24.86,0,0,1-12,0h-4V78.64h20Z"/><rect class="cls-10" x="124.18" y="135.12" width="20" height="10.7"/><rect class="cls-6" x="124.18" y="117.99" width="20" height="10.7"/><rect class="cls-7" x="124.18" y="100.38" width="20" height="10.7"/><rect class="cls-8" x="124.18" y="84.16" width="20" height="10.7"/><polyline class="cls-11" points="30.75 32.06 65.19 51.25 99.66 19.7 133.99 35.79"/><circle class="cls-12" cx="99.73" cy="19.72" r="10"/><circle class="cls-12" cx="30.82" cy="32.16" r="10"/><circle class="cls-12" cx="65.27" cy="51.27" r="10"/><circle class="cls-12" cx="134.18" cy="36.16" r="10"/></g></g></svg>