<?xml version="1.0" encoding="utf-8"?>
<!-- Generator: Adobe Illustrator 23.0.3, SVG Export Plug-In . SVG Version: 6.00 Build 0)  -->
<svg version="1.1" xmlns="http://www.w3.org/2000/svg" xmlns:xlink="http://www.w3.org/1999/xlink" x="0px" y="0px"
	 viewBox="0 0 600 800" style="enable-background:new 0 0 600 800;" xml:space="preserve">
<style type="text/css">
	.st0{fill:#FEBF50;stroke:#000000;stroke-miterlimit:10;}
	.st1{fill:#996B4C;}
	.st2{fill:#7C5C42;}
	.st3{fill:#674833;}
	.st4{fill:#FFFFFF;}
	.st5{fill:#E99358;}
	.st6{fill:#EAA168;}
	.st7{fill:#BC794B;}
	.st8{opacity:0.6;fill:#674833;}
</style>
<g id="background">
	<rect x="20" y="20" class="st0" width="560" height="760"/>
</g>
<g id="ice_cream">
	<path class="st1" d="M388,476H212c-13.25,0-24-10.75-24-24V308c0-61.86,50.14-112,112-112h0c61.86,0,112,50.14,112,112v144
		C412,465.25,401.25,476,388,476z"/>
	<path class="st2" d="M300,200L300,200c-61.86,0-112,50.14-112,112v144c0,13.25,10.75,24,24,24h14c2.21,0,4,1.79,4,4v8
		c0,2.21,1.79,4,4,4s4-1.79,4-4v-12h0v4c0-2.21,1.79-4,4-4h100c4.41,0,7.98,3.56,8,7.96V506c0,3.31,2.69,6,6,6s6-2.69,6-6v-26h0v8
		c0-4.42,3.58-8,8-8h18c13.25,0,24-10.75,24-24V312C412,250.14,361.86,200,300,200z"/>
	<ellipse transform="matrix(0.7071 -0.7071 0.7071 0.7071 -75.5778 329.5391)" class="st1" cx="360" cy="256" rx="16" ry="24"/>
	<g>
		<circle class="st1" cx="248" cy="386" r="8"/>
		<circle class="st3" cx="248" cy="384" r="8"/>
		<circle class="st4" cx="248" cy="382" r="2"/>
	</g>
	<g>
		<circle class="st1" cx="352" cy="386" r="8"/>
		<circle class="st3" cx="352" cy="384" r="8"/>
		<circle class="st4" cx="352" cy="382" r="2"/>
	</g>
	<g>
		<path class="st1" d="M300,396c-17.67,0-32,8.95-32,20c0,2.21,1.79,4,4,4h56c2.21,0,4-1.79,4-4C332,404.95,317.67,396,300,396z"/>
		<path class="st3" d="M300,392c-17.67,0-32,8.95-32,20c0,2.21,1.79,4,4,4h13.28c2.94-7.17,8.43-12,14.72-12s11.78,4.83,14.72,12
			H328c2.21,0,4-1.79,4-4C332,400.95,317.67,392,300,392z"/>
		<path class="st5" d="M300,404c-6.29,0-11.78,4.83-14.72,12h29.44C311.78,408.83,306.29,404,300,404z"/>
	</g>
	<g>
		<path class="st6" d="M300,544L300,544c-13.25,0-24-10.75-24-24v-40h48v40C324,533.25,313.25,544,300,544z"/>
		<path class="st7" d="M284,498L284,498c-1.1,0-2-0.9-2-2v-16h4v16C286,497.1,285.1,498,284,498z"/>
		<path class="st7" d="M300,498L300,498c-1.1,0-2-0.9-2-2v-16h4v16C302,497.1,301.1,498,300,498z"/>
		<path class="st7" d="M300,538L300,538c-1.1,0-2-0.9-2-2v-22c0-1.1,0.9-2,2-2l0,0c1.1,0,2,0.9,2,2v22C302,537.1,301.1,538,300,538z
			"/>
		<path class="st7" d="M292,488L292,488c-1.1,0-2-0.9-2-2v-4c0-1.1,0.9-2,2-2l0,0c1.1,0,2,0.9,2,2v4C294,487.1,293.1,488,292,488z"
			/>
		<path class="st7" d="M300,509L300,509c-1.1,0-2-0.9-2-2v-4c0-1.1,0.9-2,2-2l0,0c1.1,0,2,0.9,2,2v4C302,508.1,301.1,509,300,509z"
			/>
		<path class="st7" d="M308,488L308,488c-1.1,0-2-0.9-2-2v-4c0-1.1,0.9-2,2-2l0,0c1.1,0,2,0.9,2,2v4C310,487.1,309.1,488,308,488z"
			/>
		<path class="st7" d="M292,531.96L292,531.96c-1.1,0-2-0.9-2-2v-35.93c0-1.1,0.9-2,2-2l0,0c1.1,0,2,0.9,2,2v35.93
			C294,531.07,293.1,531.96,292,531.96z"/>
		<path class="st7" d="M308,531.96L308,531.96c-1.1,0-2-0.9-2-2v-35.93c0-1.1,0.9-2,2-2l0,0c1.1,0,2,0.9,2,2v35.93
			C310,531.07,309.1,531.96,308,531.96z"/>
		<path class="st7" d="M316,498L316,498c-1.1,0-2-0.9-2-2v-16h4v16C318,497.1,317.1,498,316,498z"/>
		<path class="st7" d="M284,519L284,519c-1.1,0-2-0.9-2-2v-14c0-1.1,0.9-2,2-2l0,0c1.1,0,2,0.9,2,2v14C286,518.1,285.1,519,284,519z
			"/>
		<path class="st7" d="M316,519L316,519c-1.1,0-2-0.9-2-2v-14c0-1.1,0.9-2,2-2l0,0c1.1,0,2,0.9,2,2v14C318,518.1,317.1,519,316,519z
			"/>
		<rect x="276" y="480" class="st8" width="48" height="12"/>
	</g>
</g>
<g id="puddle">
	<g>
		<ellipse class="st1" cx="300" cy="588" rx="80" ry="20"/>
		<ellipse class="st2" cx="300" cy="592" rx="80" ry="20"/>
		<path class="st2" d="M348,592h-12v-22c0-3.31,2.69-6,6-6l0,0c3.31,0,6,2.69,6,6V592z"/>
		<ellipse class="st1" cx="268" cy="600" rx="8" ry="4"/>
	</g>
</g>
</svg>
