<svg xmlns="http://www.w3.org/2000/svg" viewBox="0 0 400 400"><defs><style>.cls-1{fill:#ffd44c;}.cls-2{fill:#fcb352;}.cls-3{fill:#e3973a;}.cls-4{fill:#76c47f;}.cls-5{fill:#ffe5cc;}.cls-6{fill:#916354;}.cls-7{fill:#f3734b;}</style></defs><title>pencil</title><g id="Layer_1" data-name="Layer 1"><rect class="cls-1" width="400" height="400"/></g><g id="Layer_2" data-name="Layer 2"><ellipse class="cls-2" cx="271.67" cy="179.36" rx="82.52" ry="22"/><path class="cls-3" d="M302.7,181v18.78c17.08-1.85,31.31-5.18,40.45-9.39C334,186.15,319.78,182.82,302.7,181Z"/><path class="cls-3" d="M240.64,199.75V181c-17.07,1.85-31.3,5.18-40.44,9.39C209.34,194.57,223.57,197.9,240.64,199.75Z"/><path class="cls-4" d="M240.64,101.3v98.45a289.67,289.67,0,0,0,31,1.61,289.53,289.53,0,0,0,31-1.61V101.3Z"/><path class="cls-5" d="M302.72,101.07h0c0-3.85-13.92-7-31-7s-31,3.12-31,7h0c0,3.85,13.91,7,31,7s31-3.12,31-7h0Z"/><path class="cls-6" d="M278.3,101.08h0c0-.82-3-1.48-6.62-1.48s-6.62.66-6.63,1.48h0c0,.82,3,1.49,6.63,1.49s6.62-.67,6.62-1.49Z"/><ellipse class="cls-2" cx="177.94" cy="278.4" rx="132.13" ry="35.24"/><path class="cls-3" d="M227.63,281v30.08c27.34-3,50.13-8.3,64.77-15C277.76,289.27,255,283.94,227.63,281Z"/><path class="cls-3" d="M128.26,311.06V281c-27.35,3-50.13,8.29-64.77,15C78.13,302.76,100.91,308.09,128.26,311.06Z"/><path class="cls-7" d="M128.26,153.41V311.06a465,465,0,0,0,49.68,2.58,465.06,465.06,0,0,0,49.69-2.58V153.41Z"/><path class="cls-5" d="M227.63,153.51v0h0L177.94,86.36l-49.66,67.12h0v0h0c.07,6.13,22.28,11.1,49.68,11.1s49.62-5,49.69-11.1Z"/><path class="cls-6" d="M190,102.68h0L177.94,86.36l-12.06,16.31h0c0,1.49,5.42,2.7,12.07,2.7s12.06-1.21,12.08-2.7Z"/></g></svg>