<?xml version="1.0" encoding="utf-8"?>
<!-- Generator: Adobe Illustrator 23.0.3, SVG Export Plug-In . SVG Version: 6.00 Build 0)  -->
<svg version="1.1" xmlns="http://www.w3.org/2000/svg" xmlns:xlink="http://www.w3.org/1999/xlink" x="0px" y="0px"
	 viewBox="0 0 400 400" style="enable-background:new 0 0 400 400;" xml:space="preserve">
<style type="text/css">
	.st0{fill:#FFD44C;}
	.st1{fill:#FCB352;}
	.st2{fill:#E3973A;}
	.st3{fill:#76C47F;}
	.st4{fill:#F3734B;}
	.st5{fill:#E56948;}
	.st6{fill:#F68A5C;}
	.st7{fill:#FFE5CC;}
	.st8{fill:#94CD8C;}
	.st9{fill:#67AA6D;}
	.st10{fill:#916354;}
</style>
<g id="Layer_1">
	<rect class="st0" width="400" height="400"/>
</g>
<g id="Layer_2">
	<g>
		<ellipse class="st1" cx="271.67" cy="179.36" rx="82.52" ry="22"/>
		<g>
			<path class="st2" d="M302.7,180.97v18.78c17.08-1.85,31.31-5.18,40.45-9.39C334.01,186.15,319.78,182.82,302.7,180.97z"/>
			<path class="st2" d="M240.64,199.75v-18.78c-17.08,1.85-31.31,5.18-40.45,9.39C209.34,194.57,223.57,197.9,240.64,199.75z"/>
		</g>
	</g>
	<path class="st3" d="M240.64,101.3v57.66v22v18.78c9.58,1.04,20.05,1.61,31.03,1.61s21.45-0.57,31.03-1.61v-18.78v-22V101.3H240.64
		z"/>
	<g>
		<ellipse class="st1" cx="177.94" cy="278.4" rx="132.13" ry="35.24"/>
		<g>
			<path class="st2" d="M227.63,280.98v30.08c27.34-2.96,50.13-8.29,64.77-15.04C277.76,289.27,254.97,283.94,227.63,280.98z"/>
			<path class="st2" d="M128.26,311.06v-30.08c-27.34,2.96-50.13,8.29-64.77,15.04C78.13,302.76,100.91,308.09,128.26,311.06z"/>
		</g>
	</g>
	<path class="st4" d="M128.26,153.41v92.34v35.24v30.08c15.34,1.66,32.11,2.58,49.69,2.58s34.35-0.92,49.69-2.58v-30.08v-35.24
		v-92.34H128.26z"/>
	<path class="st5" d="M128.26,153.41v92.34v35.24v30.08c9.4,1.02,19.34,1.75,29.67,2.17V153.41H128.26z"/>
	<path class="st6" d="M198.49,153.41v159.8c10.14-0.42,19.9-1.15,29.14-2.15v-30.08v-35.24v-92.34H198.49z"/>
	<path class="st7" d="M227.63,153.51c0-0.01,0-0.02,0-0.02h-0.02l-49.67-67.12l-49.67,67.12h-0.02c0,0.01,0,0.02,0,0.02l0,0h0
		c0.07,6.13,22.28,11.1,49.68,11.1S227.56,159.64,227.63,153.51L227.63,153.51L227.63,153.51z"/>
	<path class="st8" d="M284.44,101.3v99.8c6.36-0.26,12.48-0.72,18.27-1.34v-18.78v-22V101.3H284.44z"/>
	<path class="st9" d="M240.64,101.3v57.66v22v18.78c7.06,0.77,14.62,1.28,22.5,1.49V101.3H240.64z"/>
	<path class="st7" d="M302.72,101.07c0,0,0-0.01,0-0.01l0,0h0c-0.04-3.85-13.92-6.97-31.03-6.97c-17.11,0-30.99,3.12-31.03,6.97h0
		l0,0c0,0,0,0.01,0,0.01h0c0,0,0,0,0,0c0,0,0,0,0,0h0c0,0,0,0.01,0,0.01l0,0h0c0.04,3.85,13.92,6.97,31.03,6.97
		c17.11,0,30.99-3.12,31.03-6.97h0l0,0C302.71,101.09,302.71,101.08,302.72,101.07L302.72,101.07
		C302.72,101.08,302.72,101.08,302.72,101.07C302.72,101.08,302.72,101.08,302.72,101.07L302.72,101.07z"/>
	<path class="st10" d="M278.3,101.08C278.3,101.08,278.3,101.07,278.3,101.08L278.3,101.08L278.3,101.08
		c-0.01-0.82-2.97-1.49-6.63-1.49c-3.65,0-6.62,0.67-6.63,1.49h0l0,0c0,0,0,0,0,0h0c0,0,0,0,0,0s0,0,0,0h0c0,0,0,0,0,0l0,0h0
		c0.01,0.82,2.97,1.49,6.63,1.49S278.3,101.9,278.3,101.08L278.3,101.08L278.3,101.08C278.3,101.08,278.3,101.08,278.3,101.08
		L278.3,101.08C278.3,101.08,278.3,101.08,278.3,101.08C278.3,101.08,278.3,101.08,278.3,101.08L278.3,101.08z"/>
	<path class="st10" d="M190.02,102.68C190.02,102.68,190.02,102.67,190.02,102.68L190.02,102.68l-12.07-16.31l-12.07,16.31h-0.01
		c0,0,0,0,0,0.01l0,0h0c0.02,1.49,5.41,2.7,12.07,2.7C184.6,105.38,190,104.17,190.02,102.68L190.02,102.68L190.02,102.68z"/>
</g>
</svg>
