<?xml version="1.0" encoding="utf-8"?>
<!-- Generator: Adobe Illustrator 19.2.1, SVG Export Plug-In . SVG Version: 6.00 Build 0)  -->
<svg version="1.1" id="Layer_1" xmlns="http://www.w3.org/2000/svg" xmlns:xlink="http://www.w3.org/1999/xlink" x="0px" y="0px"
	 viewBox="0 0 283.5 283.5" style="enable-background:new 0 0 283.5 283.5;" xml:space="preserve">
<style type="text/css">
	.st0{opacity:0.45;fill:#00A79D;enable-background:new    ;}
	.st1{fill:none;stroke:#FFFFFF;stroke-width:11.8953;stroke-miterlimit:10;}
	.st2{fill:none;stroke:#FFFFFF;stroke-width:15.044;stroke-miterlimit:10;}
	.st3{fill:none;stroke:#FFFFFF;stroke-width:13.2766;stroke-miterlimit:10;}
</style>
<g id="Layer_2">
	<circle class="st0" cx="141.7" cy="141.7" r="141.7"/>
</g>
<g id="Layer_1_1_">
	<g>
		<polygon class="st1" points="182.2,92.8 101.2,92.8 107.6,60 175.8,60 		"/>
		<path class="st2" d="M247,203.2c-2.3,0-6.2,0-8.5,0c-19,0-37.9,0.1-56.9,0.2c-4.8,3.4-19.3,12.8-40.1,12.7s-35.3-9.6-40.1-13.1
			c-21.7,0.1-43.3,0.2-65,0.3V101.1h64.8c4.3-3.3,19.5-14.4,41.7-14c20.7,0.4,34.8,10.5,39.3,14c21.6,0,43.2,0,64.8,0L247,203.2
			L247,203.2z"/>
		<circle class="st3" cx="141.7" cy="154.6" r="60.8"/>
	</g>
</g>
</svg>
