<?xml version="1.0" encoding="utf-8"?>
<!-- Generator: Adobe Illustrator 24.2.0, SVG Export Plug-In . SVG Version: 6.00 Build 0)  -->
<svg version="1.1" xmlns="http://www.w3.org/2000/svg" xmlns:xlink="http://www.w3.org/1999/xlink" x="0px" y="0px"
	 viewBox="0 0 700 700" style="enable-background:new 0 0 700 700;" xml:space="preserve">
<style type="text/css">
	.st0{fill:none;}
	.st1{fill:#73D2DE;}
	.st2{fill:#FBB13C;}
	.st3{fill:url(#New_Pattern_Swatch_1);}
	.st4{fill:#218380;}
	.st5{fill:none;stroke:#FF6C0F;stroke-miterlimit:10;}
	.st6{fill:#FF6C0F;}
	.st7{fill:#8F2D56;}
	.st8{fill:#D81159;}
	.st9{fill:#FFF374;}
	.st10{fill:#00477A;}
</style>
<pattern  y="-75" width="4" height="4" patternUnits="userSpaceOnUse" id="New_Pattern_Swatch_1" viewBox="0 -4 4 4" style="overflow:visible;">
	<g>
		<rect y="-4" class="st0" width="4" height="4"/>
		<rect y="-4" class="st1" width="4" height="2"/>
		<rect y="-2" class="st2" width="4" height="2"/>
	</g>
</pattern>
<g id="Layer_8">
	<rect class="st2" width="700" height="700"/>
</g>
<g id="Layer_2">
</g>
<g id="Layer_4">
</g>
<g id="Layer_5">
</g>
<g id="Layer_6">
</g>
<g id="Layer_7">
	<path class="st3" d="M259.3,399.9L77.3,482.3l22.9,180.6h500l37.2-206.3l-177.5-72.4l-42.4-15.7l-11.3-44l3.8-54
		c9.7-0.4,18-3.6,24.3-10.9c3.4-9.1,9.2-15.7,8-25.5c6.5-19.6-13.6-38.5-18.5-30.8l5.1-34.5c13.3-12,15-26.4,5.9-43.1l8.4-7.1
		c-13.5-14.1-22.1-30.2-24.3-49c-8.8-0.8-17.1-9.9-25.1-18.4c-11.8,1.2-21.3-2.4-28-11.7h-13c-13.1,3.5-16.4,0.5-18.8-2.9l-4.6,5.9
		l-42.3-7.5l-9.2-2.1l-44,13.8l12.6,2.1l-7.5,7.1l-14.7,3.8l-3.8,12.1l-3.8,0.8l-8.4,45.6l-3.3-2.1l-0.4,23h-5l0.8,11.3L186.8,163
		l-0.8,18.4l7.1,10.9L194,217l9.2,25.1l3.3,12.1l0.8,31.4c9.4,23.9,31,44.5,49.4,68.7L259.3,399.9z"/>
	<path class="st2" d="M457.6,383.4l20.6,37.2c3-8.5,4-18,3.8-28.2L457.6,383.4z"/>
	<path class="st2" d="M483.1,392.8c2.6,1.6,3.1,5.1,3.2,8.2c0.3,5.7,0.6,11.5,0.9,17.2c0.4,6.8,0.7,13.6,2.8,20.1
		c4.2,13,15,22.9,20.3,35.5c0.1-5.8,0.3-11.7,0.7-17.5c1.7,2.6,3.7,5,6,7.3c1.1,5.8,1.1,11.8,0.1,17.6c-0.1,0.7-0.5,1.5-1.1,1.9
		c-1.3,0.9-2.4,0.2-3.3-0.6c-3.5-2.8-7-5.6-10.5-8.4c2.5,7.2,5.2,14.3,8,21.4c1.8,4.7,5.1,10.2,10.1,9.5l-7.5-17.6l6.4,4.4
		l11.2-45.4l4.2,39.2c9.1-17.8,14.9-37.3,16.9-57.2c3.1,4.2,2.3,10.1,1.4,15.2c-3.6,21.1-6.1,42.4-7.3,63.8
		c-0.6,10.9-0.9,21.7-0.9,32.6c0,7.1,1.8,15.7,0.9,22.6c-0.4,3.2-3.3,4.2-4.3,6.9c-3.1,8.7,2.4,21.3,5.6,29.2
		c2.4-1.4,2.4-4.9,1.9-7.7c-1-6.7-2.4-13.4-4-20c1.9,6,4.5,11.6,7,17.3c-1-5.1,0.5-11.4,0.9-16.6c0.4-6.9,0.9-13.8,1.3-20.6
		c0.9-13.4,1.7-26.8,2.6-40.3c0.2-3.1,0.5-6.5,2.5-8.9c2.4-3,6.5-3.7,10.3-4.2l-2.5,34.7l25.7-32.5c1.8,1.3,2.1,4,1.2,6
		c-1,2-2.9,3.4-4.9,4.4c-1.6,0.9-3.3,1.6-4.6,2.9s-2,3.4-1,5c-0.3-0.5,11.3-6.1,13.9-2.9c1.8,2.3,0.5,9.4,0.4,12
		c-0.5,7.1-0.9,14.7-2.7,21.6c-2.9,11.7-8.1,22.7-14.3,32.9l2.9,5.4l11.3-7.7h5.5l13.1-94.7c2.1-15.1-5.8-29.8-19.5-36.4
		C557.9,431.4,514.9,404.6,483.1,392.8z"/>
	<polygon class="st2" points="537.2,550.6 540.8,551.8 520.1,510.8 510.6,510 507.7,512.3 510.4,521.1 499.5,510 511.7,528 
		517.5,529.4 514.4,520.9 516.3,515.2 	"/>
	<path class="st2" d="M442.8,585.8c-2.2-0.6-3.5-0.3-5-5.4c-2.4-2.2-5.2-2.6-7.5,0.6c0.2,3.9,1.3,6.8,3.6,8.4l2.9,6.1
		c4.1,5.5,6.9,5.6,8.6,0.6C445.6,592.2,445.8,588.4,442.8,585.8z"/>
	<path class="st2" d="M317.6,440.9c14-3,27.3-6.9,39.6-12.3l-4.9,12.8c-16.2,12.5-40.3,20.2-67.7,20.7c19.6,4.6,44.7-0.9,74.2-14.5
		l-38,51.3l32.1-3.1c6.1-17.6,12.1-36.5,18.4-51.8c0.1-0.3,2-1,2.1-1.3c5.4-13.1,9.1-23.2,14.9-28l-5.6-9.5
		C364.4,420.1,342.7,432,317.6,440.9z"/>
	<polygon class="st2" points="115.8,475.2 158.5,463.5 210.5,433.4 180.3,443.4 235.7,412.2 139.6,450.7 150.7,456.8 135.5,460.3 	
		"/>
	<path class="st2" d="M255.2,546.1c-4.3,3-6.4,8.3-8.4,13.2c-0.1,0.3-8.9,0.3-9.6-0.1c-2.4-1.3-3.6-6.6-4.6-9.1
		c-9.4,3.9-17.1,11.7-20.8,21.2c2.6-1.6,5.8-2.4,8.9-2.2c2.3,0.1-6.9,9.8-8.1,10.3c-4.8,2.2-10.6,2.1-15.6,1.2
		c-3.3-0.6-7-2.5-6.6-6.3c-4.9,0.7-10,0.1-14.4-2.3c-1.2-0.6-2.4-1.4-3.7-1.4c-1.5,0-2.9,0.9-4.2,1.7c-13.1,9-26.3,18-39.4,27
		c10.7-0.4,18.4-4.6,27.7-9.7c6.2-3.5,13-6.4,20.1-5.9s14.2,5.4,15.1,12.5c0.1,0.5,0.1,1.1-0.2,1.6c-0.3,0.5-0.9,0.8-1.5,0.9
		c-5,1.2-9.6-2.8-13.1-6.5c-1.1,6-1.5,12.2-1.3,18.3c0-0.2,6.4,0.1,7,0.2c0.6,4.8-6.6,7.5-10.5,8.6c-11.4,3.3-23.4,4.3-35.1,6
		c5.1,4.4,13.3,4.5,18.5,0.3c1.6,2.8,2.6,5.8,3.1,8.9c0.3,1.7,0.4,3.4-0.4,4.9c-1.3,2.6-4.5,3.5-7.3,4.1c-3.7,0.8-7.5,1.6-11.2,2.4
		c-0.8,0.2-1.6,0.4-1.9,1.1c-0.5,1.2,1.1,2.3,2.4,2.6c2.9,0.7,5.8,1,8.8,0.8c-4,2.8-13.4,6.4-12,12.5c0.6,2.4,28.2,0.2,31.3,0.1
		c18.5-0.3,37.1-0.2,55.6-0.3c-1.8-2.3-3.7-4.6-4.5-7.4s-0.2-6.2,2.1-7.9c1.7-1.3,4-1.4,6.1-1.5c14.5-0.7,25-2,36.5-12.1
		c3.8-3.4,7.4-7.2,9.7-11.8c7.3-14.9-7-19.7-12.7-31.7c-0.7-1.5-1.4-3.1-1.3-4.8c0.1-1.7,1.1-3.4,2.7-3.9c1.6-0.4,3.6,1,3.3,2.6
		c4.5,0.2,9,0.1,13.4-0.4c1.3-0.1,2.7-0.3,3.8-1.1c2.4-1.8,2-5.4,0.7-8.1c-5.3-10.9-2.3-12.8,6.5-20.2c1.1-0.9,2.3-2,2.1-3.4
		c-0.1-0.7-0.5-1.4-0.9-1.9c-6.2-7.8-17.8-8-27.5-6c-2.7,0.6-5.4,1.3-7.7,2.7C255.7,545.8,255.5,545.9,255.2,546.1z"/>
	<path class="st2" d="M295,469.1c-5.6,0.6-4.7-2.6-8.7,2.5s-7.8,2.8-10.6,2.8c-2.8,0-3.9-1.7-13.4,3.3c-9.5,5-14,5-19,8.4
		c-5,3.3-3.3,3.3-8.4,5c-5,1.7,2.5-2.8-11,2.2c-13.5,5-11.3,1.1-18,5.6c-6.7,4.5-11.7,8.4-22.9,15.7s-21.2,14.8-25.1,16.3
		c-3.9,1.5-4.5,4.9-11.7,9.9s-4.2,7-9.3,11c-5.2,4-12.4,13-12.4,13c2.8-2.2,99.5-63.1,99.5-63.1l14.4-2.8c0,0,13.2,12.7,16,11.2
		c2.8-1.5,8-11.7,15.3-17c7.3-5.3,8.9-5.3,12.3-8.1c3.3-2.8,11.7-7.3,14-7.3c2.2,0,5.6-6.1,5.6-6.1S300.6,468.5,295,469.1z"/>
	<path class="st2" d="M159.3,562c-2.5,6.1,4.2,7.5,4.2,7.5s6.1,2.1,6.7,0s3.3-3.5,15.1-8.6c11.7-5,5-1.7,24-6.7s0,0,0.6-2.4
		c0.6-2.4,6.7-9.9,14.1-11c7.4-1.1,11-2.8,20.5-2.8c9.5,0,5.6-1.7,8.9-7.1c3.3-5.4-3.9-3.7-3.9-3.7s-10,1.3-17.9,0.2
		c-7.8-1.1-10.6,3.3-14.5,3.5c-3.9,0.1-13.4-0.1-16.2,0c-2.8,0.1-11.2,6-15.6,9.9c-4.5,3.9-8.4,3.3-14,6.7c-5.6,3.3-5,4.3-5,4.3
		S161.9,555.9,159.3,562z"/>
	<path class="st2" d="M593.7,584.7c0.3,12.1-4.3,31.2-10.3,52.3h3.8l13-40.2l0-13.6L593.7,584.7z"/>
	<polygon class="st2" points="376.2,164.9 362.8,162.4 348,162.4 343,162.4 341.3,168.3 347.2,177.5 353.9,179.1 364.2,191.4 
		372.3,193.1 375.1,186.7 379.8,186.7 381.5,179.7 384.8,182.5 387.1,177.7 389.9,180 387.3,172.4 	"/>
	<polygon class="st2" points="271,188.3 274.9,193.1 278.2,193.1 272.2,185 267.6,181.4 266.2,182.8 	"/>
	<polygon class="st2" points="266.2,177.7 262.3,172.4 259,175.7 262.3,178.9 	"/>
	<polygon class="st2" points="355.3,151.5 339.3,132.8 337.1,134.2 337.1,139.5 346.9,149.8 	"/>
	<polygon class="st2" points="356.9,147.5 358.2,152.9 364.2,152.9 362,146.8 352.2,142.2 350.3,142.2 354.1,147.5 	"/>
	<polygon class="st2" points="358.9,253 349.8,245.8 355.7,243.3 346.9,239.5 338.4,241.1 328.8,246.9 325,255.9 332.6,262.3 
		339.5,263.1 341.5,262.3 349.4,266.1 353.9,263.7 360.5,260.9 	"/>
	<polygon class="st2" points="430.6,226.6 428,221.8 423.3,230.1 432.6,240.3 	"/>
	<path class="st2" d="M421.7,254.2l1.7-3.3l-7.8-2.5h-6.7c1.7,1.1,3.9,4.5,3.9,4.5s3.9-0.6,3.9,0c0,0.6,0,3.9,0,3.9s3.1-0.6,3.1,0
		c0,0.6,6.1,3.3,6.1,3.3l4.2-2l-6.7-2.5L421.7,254.2z"/>
	<path class="st4" d="M143,646.7c1.2-2.6,4.1-3.9,6.8-4.9c8-2.8,16.4-4.8,24.8-5.9c-10.4-1.7-22.2-2.2-32.1-5.6
		c2.9-3.9,9.8-4.2,14.3-4.9c12.1-1.9,23.7-6.4,33.9-13c-3.2-4-3.4-9.8-1.8-14.7c1.6-4.9,4.7-9.1,7.8-13.2
		c-3.6,4.8-20.7,7.2-26.5,8.8c-10.4,2.8-20.9,4.8-31.6,6c6.5-0.7,14.6-5.4,20.8-7.7c7.8-2.9,15.6-5.9,23.3-9
		c15.8-6.5,31.4-13.6,46.7-21.3c8.4-4.2,18.9-9.8,21.1-19.9c-24.3,9.6-48.6,19.2-72.9,28.8c-1.8,0.7-3.8,1.4-5.7,0.9
		c-3-0.8-4.3-4.7-3.4-7.7s3.3-5.3,5.8-7.2c21.8-17.3,52.3-23,79.3-25.4c2-0.2,4.2-0.2,5.6,1.2c1.2,1.3,1.2,3.3,1.9,4.9
		c1.4,3.2,5.4,4.6,8.8,4.1s6.4-2.6,9.2-4.7c11.5-8.5,21.9-18.4,31-29.5c4.3-5.2,8.4-10.7,12.2-16.3c2-3,9.2-19,12-19.7
		c-20.2,5.2-37.3,18.2-54.1,30.4c-9,6.5-21.1,13-31.2,4.7c-2.7-2.2-5-5.4-8.5-6c-3.3-0.6-6.4,1.4-9.2,3.3
		c-32.9,22.3-65.8,44.5-98.8,66.8c-3.1-3,0.1-8.1,3.3-11c15.8-14.3,32.5-27.5,49.9-39.7c4.5-3.1,54.3-33.4,54.3-33.5
		c0.8,2.4,1.6,4.7,2.4,7.1c34.8-16.1,70.9-29.5,109.1-34.8c-18.6,2-37.2,4-55.7,5.9c11.2-1.5,22.3-3.5,33.4-6
		c-0.7-1.1-1.5-2.1-2.2-3.2c6.5-3.3,13.1-6.4,19.4-10c8.5-4.4-3.2-4.4-6.1-4c-8,1-16,3.1-24,4.7c10.2-2,19.5-8.6,28.8-12.7
		c14.5-6.4,26.8-13.8,21.5-31.1c-5.5-18.1-21.4-28.6-37.1-37.6c-5-2.9-10.6-6.4-11.8-12.4c8.4,1,18.3,2,26.9,0.8
		c1.7-0.2,3.3-0.9,4.9-1.7c16.7-7.9,34.2-17.2,48.2-29.6c0.9-0.8,2-1.9,1.9-3.1c-0.1-2.4-3.5-2.8-5.6-4c-3.1-1.8-3.5-6-4.2-9.5
		c-4.2-20.2-23.9-19.7-37.6-29.8c-12.4-9.1-21.6-22.4-25.6-37.3c0.7,0,1.3,0.9,1,1.5c-7.2-0.4-10.3-10.2-16.4-13.1
		c-1-0.5-2.1-0.8-3-1.5c-0.9-0.7-1.7-1.7-1.5-2.9c0.4-2,5.6-2.2,7.1-3.6c0.6-0.6,4-6.7,1.7-7c1.5,0.2,8.5,2.3,8.8,3.4
		c-2.6-11.7-7.1-23.1-13.2-33.5c6.5,0.1,13,0.2,19.6,0.3c-2.5-7.3,2.8-15.5,9.8-18.7c7.1-3.1,15.2-2.4,22.8-0.9
		c18.9,3.6,42.3,15.3,42.6,37.5c0.1,5.7-2.1,13,6.2,10.6c9.3-2.8,19.4-3,28.9-0.7c-1.7,2.6-4.9,3.8-7.9,4.6s-6.2,1.6-8.5,3.6
		s-3.2,6.1-1,8.3c3.5,3.4,9.7-0.9,14,1.2c3,1.5,3.8,5.3,4.3,8.7c0.7,5.4,1.4,10.8,2.1,16.3c3.8-6.4,6.5-13.5,6.7-20.9
		c0.2-7.4-2.6-15.1-8.3-19.8c-3.2-2.6-7.1-4.2-9.9-7.2c-12.2-12.8,11.6-40.7,14.1-54.1c1.1-5.9,0.4-12.3-3.1-17.2
		c-0.5-0.7-1.1-1.5-1.3-2.4c-0.9-4.2,7.4-5.4,7.5-9.7c0-1-0.4-2-0.9-2.9C438,96,429,65.2,403.5,57.5c-8-2.4-16.6-2.6-24.7-4.8
		c-7.2-1.9-13.8-5.3-20.9-7.4c-8.5-2.5-17.5-3.1-26.4-3.6c-13.1-0.8-26.1-1.7-39.2-2.5c-9.3-0.6-15.6-2.5-25,0.7
		c-8.5,2.9-17,6.6-25.6,9.6c3.8,0.6,7.7,1.2,11.5,1.9c-24,9.8-29.1,34.1-35.8,56.8c-7.6,25.8-12.7,52.3-15.2,79.1
		c-0.5,5.2-0.9,10.5-0.3,15.7c0.6,5.6,2.4,11.1,4,16.5c6.9,24.2,8.2,49.7,11.5,74.6c0,0,46.6,62.4,46.6,62.4
		c2.3,3.1,1.7,12.9,2.2,16.6c1.2,9.2,2.6,18.3,3.9,27.4c-31.7,15.8-63.5,31.6-95.2,47.4c-11.8,5.9-24,12-32.9,21.7
		c-10.2,11.1-15.4,26.1-17.1,41.1c-1.6,13.8,1.5,154.3,0.1,154.3c0,0,7.1,0,19.4,0c5.9-2.7,11.6-6,16.9-9.8
		C155.1,652.9,148.9,650,143,646.7z M338.9,140.1L321,126.7l17.9-1.1V140.1z M352.3,153.7l-8.9-11.4l3.9-10.6l2.8,3.3h3.5l12.8,12.6
		l8.5,9.4L352.3,153.7z M316.3,96l2.8,2.8l10.6-8.9c10.1,0.4,17.9,2.4,23.9,5.9c9.4,7.1,14.9,14.4,16.9,22l-5.8,8.4
		c8,6.7,16.1,13,24.8,15.9l3.3,7.7l4.5,4c4.3,8.5,4.4,12.5,3.3,15.3c-13.4-12-40.1-48.5-60.8-55.3c-11.4-3.8-21.3-7.7-25.7-11.9
		L316.3,96z M254.8,179.5c-2.8-3.8-3.6-8.7-1.4-13.6c2.3-5,9.4-11.1,14.8-6.7c2.5,2.1,3.7,5.3,4.9,8.3c2.8,6.9,6.2,13.6,10.2,19.9
		c3.1,4.8,4.6,18.6-2.5,9.2c-1.6-2.1-3.5-4.1-5.8-5.6c-4.5-3-9.9-4.2-14.7-6.7C258.1,183.1,256.2,181.4,254.8,179.5z"/>
	<path class="st4" d="M224.8,633.8c8.6-8.2,21.6-16.9,27.8-26.8c-4.2-3.3-10.8-2.5-15.5-0.7c-5.2,2-9.7,5.6-14,9.2
		c-12,9.8-24.1,19.7-36.1,29.5c-7.9,6.5-15.5,15.3-25.5,17.9c13.9,0,34.2-0.5,34.2-0.5S215,643.3,224.8,633.8z"/>
	<path class="st4" d="M411.4,350.4c-3.6-9.7-4.6-39-4.8-43.7c-0.1-1.3-0.5-7.5-0.6-14.4C401.5,294.2,405.2,344.8,411.4,350.4z"/>
	<path class="st4" d="M587.6,597.4c-0.1-0.3-0.2-0.6-0.4-0.8c-1.6-2.6-8.5-7.6-9.7-2.1c6.2-26.8,12.4-53.6,18.6-80.3
		c-4.8,2.2-15.6,2.1-19,6.1c-5.8,6.8-9,18.1-12.8,26c-2.7-1.9-3.7-5.6-3.3-8.9c1.2-11.7,7.1-21,5.7-33.4
		c-7.4,10.3-10,23.4-10.9,36.1c-0.7,10-0.5,20-1.6,30c-1,9.4-4.7,19.5-1.9,28.9c-13.1-44.1-8.5-91.9-3.6-136.9
		c-0.9,8.7-10,20.8-13.7,28.8c-3.9-3.4-4-9.2-4.2-14.4c-0.2-4.8-1.2-11.3-6.4-12.3c-2.1,10.1,7.3,25.1-2.8,33.2c-2,1.6-7,2-9.4,2.6
		c-11.7,3.3-23.4,6.5-35.2,9.8c-40.5,11.3-80.2,24.9-122.3,30c-14.4,1.7-29.9,1.4-43.6,6.7c-13.1,5.1-21.2,16.1-28.8,27.3
		c-5.6,8.3-0.8,17.8,1.4,26.6c0.3,1.4,0.7,2.8,0.3,4.2c-0.4,1.5-1.6,2.5-2.7,3.6c-17.6,15.7-35.1,31.3-52.7,47c-2.8,2.5-6,5-8.3,7.6
		c99.6,2.9,199.8,0.1,299.5,0.1c19.3,0,38.6,0,57.9,0c7.9,0,8.5-30.4,8.8-35.2c0.6-7.5,1.6-15.4,1.2-22.9
		C587.6,602.5,588.4,599.7,587.6,597.4z"/>
	<path class="st4" d="M409.8,264.8c-1.5-1.9-4.6-1.3-5.2,1l-3.6,13c-0.9,3.2-0.2,6.7,1.9,9.3c1.6,2,3.3,4.2,3.1,4.2
		c-0.2-10.1,0.3-21.7,3.7-21.6c5.6,0.3,11.1-1.9,15.6-5.4l-13.2,2.2L409.8,264.8z"/>
	<path class="st4" d="M427.7,263.2c-0.8,0.7-1.6,1.4-2.5,2.1C426.1,264.7,426.9,264,427.7,263.2z"/>
	<path class="st4" d="M577.7,662.9c14.3,0,22.5,0,22.5,0c0-2.1,0-4.2,0-6.3c0-17,0-34.1,0-51.1c-3.8,9.8-7.6,19.6-11.5,29.3
		C585.4,643.4,579.1,654.1,577.7,662.9z"/>
	<path class="st5" d="M577.7,662.9C577.7,662.9,577.7,662.9,577.7,662.9C577.7,662.9,577.7,662.9,577.7,662.9
		C577.7,662.9,577.7,662.9,577.7,662.9z"/>
	<path class="st4" d="M427.7,263.2c3.1-2.9,5.7-6,7.1-9.6c-1.7,3.1-3.7,6.1-6.1,8.6C428.4,262.6,428.1,262.9,427.7,263.2z"/>
	<polygon class="st5" points="425.2,265.4 425.2,265.4 425.2,265.4 	"/>
	<polygon class="st5" points="405.9,292.3 405.9,292.3 405.9,292.3 	"/>
	<path class="st6" d="M388.3,414.7c0.4,2.6-2.7,5.9-3.9,7.9c-2.1,3.6-4.3,7.2-6.4,10.8c-2.7,4.6-5.5,9.2-7.5,14.2
		c-2.8,6.9-4,14.3-4.9,21.6c-0.6,5-2,9.9-2.1,15c-0.1,5.8-0.2,11.6-0.3,17.4c-0.1,11.6,0,23.2,0.2,34.8c0.4,18,6.5,35.2,17.9,49
		c2.7,3.3,5.6,6.5,8.7,9.5c1.2,1.2,2.5,2.4,4,3.2c1.9,1,4,1.4,6.1,1.8c10.1,2,19.1,6.8,29,9.4c10.4,2.7,21.4,2.7,32.1,2.7
		c1.9,0,3.9,0,5.7-0.6c1.5-0.5,2.9-1.4,4.3-2.3c4.7-3.2,9.3-6.3,14-9.5c5.1-3.4,10.2-6.9,14.5-11.4c4.9-5.1,8.4-12.2,12.2-18.2
		c4.2-6.6,8.2-13.6,10.5-21.1c2.4-7.8,2.7-15.9,3.7-23.9c0.7-6.1,2.4-14.8,0.1-20.7c-2.8-7.3-12.3-31.3-12.3-31.3
		c-4.2-7.7-8.4-15.3-12.8-22.9c-3.3-5.8-6.9-11.5-10.3-17.3c-4.3-7.1-10.2-12.6-15.4-19c-8.2-10.2-13.4-22.4-19.5-33.9
		c-6.5-12.1-17.3-24.9-32.4-23c-6.3,0.8-12.6,2.8-18.8,1.9c-2.3-0.4-4.7-1.1-7-1c-5.2,0.3-8.2,4.5-11.8,7.6
		c-3.6,3.1-7.9,6.1-12.5,7.1c-4.1,1-6.7,0.7-10.9,0.1c-4.2-0.6-8.7-2.5-14-5.1c-3.9-2-6.9-4-10.7-6.3c-8-4.6-17.1-8.3-26.5-8.3
		l-6.1,5.6c0,0,14,3.9,15.6,5.6c1.7,1.7,15.6,7.3,15.6,7.3s31.6,13.4,32.4,13.7c1.2,0.4,2.6,1.3,3.5,2.2c2,2.1,4.2,4.1,6,6.4
		c1.9,2.2,1.5,3.2,2.4,6.2c1.5,5.2,4.4,9.7,7.2,14.3C388.2,414.2,388.2,414.4,388.3,414.7z"/>
	<path class="st4" d="M411.3,221.9c-0.8,1.5-2.3,3-2.2,4.9c0,0.5,0.1,0.9,0.2,1.4c1.1,4.5,2.1,9,3.2,13.4c0.4,1.8,0.9,3.8,2.1,5.2
		c2.1,2.6,5,1,7.7,1c2.7,0,5.5,1.3,7-1.9c0.9-1.8,0.7-3.9,0.2-5.8c-1.8-7.5-8.6-10.9-14.3-15.3C414,223.9,412.7,222.8,411.3,221.9z"
		/>
	<g>
		<path class="st7" d="M535.1,602.6c1.3-18.5,0-36.8-5.9-54.7c-0.7-2.2-1.6-4.4-3.4-5.8c-1.8-1.4-4.2-1.6-6.5-1.9
			c-9.8-1.5-20-8.2-21.1-18.1c-0.8-6.6,2.5-12.9,4.3-19.3c5-17.6-2.4-38-17.5-48.3c-4.5-3-9.5-5.3-13.3-9.1
			c-8.3-8.3-1.4-13.5-0.6-22.4c0.6-6.4-4.9-11.5-9.7-15.8c-4.8-4.3-9.7-10.4-7.7-16.5c3.1,2.3,6.2,4.6,9.3,6.9
			c-6.9-10.9-14.1-21.8-21.1-32.6c1.6,2.4,4,4.2,6.7,5c-4.2-7.1-19.6-19.9-28.8-14c-1.1,0.7-1.7,2.2-1,3.3
			c-5.4-1.2-10.8-2.5-16.3-2.4c-5.5,0.1-11.2,1.6-15.3,5.3c-2.9,2.6-4.8,6-7.6,8.6c-11.3,10.5-33-6.2-43.7-10.7
			c-6.8-2.8-17-2.2-22.7-7c-2.1-1.8,0.4-2.2,2.1-3.2c11.4-7,14.9,4.6,30.1-8.9c5.4-4.8,23.8-17.6,25.4-24.6
			c2.3-9.9,15.7-13,14.5-24.1c-0.4-3.7,16.1-29.8,13.7-32.3c-3.7-3.8-27.4,16.4-31.5,13.2c-27.3-21-49.8-26.4-59.4-38.2
			c-2.6-3.2-5.3-7.3-9.5-7.4c-2.7-0.1-4.5-0.1-6.4-2.1c-6.9-7.2-0.3-12.8,1.7-14.2c7.1-5,19.4-3.9,29.2-3.3
			c-1.6-0.1-14.3-17.4-15.3-20.4c-1-2.7-1.1-5.9,0.7-8.1c1.5-1.9,4.4-2.6,6.6-1.7s3.7,3.5,3.5,5.9c3.5-5.9,7-11.7,10.5-17.6
			c1.5-2.6,3.2-5.3,5.7-6.9c6.9-4.3,20.7,0.9,28.2,2.2c15.3,2.6,27.6,7.4,33.8,22.7c2.7,6.6,2.5,12.7,2.4,19.7c0,1.3,0,2.6,0.5,3.8
			c2.2,5.4,6.6-0.1,9-1.6c1.1-0.7,2.5-1.1,3.7-0.6c1.3,0.5,2.1,1.9,3.4,2.5c2,1,4.4-0.2,6.5-1c3.3-1.3,7.5-0.1,10.6-1.9
			c-1.7-2.2-4.9-3.2-7.6-2.3c3.2-1.1,1.2-16.3,1.5-19.3c0.9-8.3,4.6-14.9,8.7-22.1c4.3-7.6,8.1-16.8,4.5-24.8
			c-1.1-2.4-2.8-4.6-3.1-7.3s1.9-5.8,4.5-5c-7.4-14.8-12-30.9-19.4-45.5c-7.9-15.5-22.9-21.9-38.1-28.3c-7.7-3.2-15.4-6.4-23.1-9.6
			c5.7,2,10.6,6.3,13.3,11.7c-5.7-5-12.9-8.3-20.5-9.4c-9.3-1.4-18.7,0.5-28,0.4c-12-0.1-23.8-3.3-35.7-4.8
			c-19.3-2.5-35.3,4.1-53,10.8c3.6-0.1,7.3-0.3,10.9-0.5c-6,3.9-12.8,10.8-20.1,10.7c-2.1,0-4.6,0.6-5.3,2.5c1-3.3,1.8,3.1,1.6,4.2
			c-0.6,3.5-5.3,8.4-6.9,11.9c-3.7,8.2-5.8,17.1-6.1,26c-0.5,13-7.3,23.7-5.1,37.5c-1.5-0.3-2.6-1.9-2.5-3.4c0,3.2-0.5,6.5-1.4,9.6
			c-2.3-4.6-2.7-10-1.3-14.9c-2.9,5.5-2.3,21.3-5.4,23.1c-10,5.9-8.8,18.5-6.1,28.2c1.4,4.9,4.2,8.3,4.6,13.6
			c0.4,5.7-0.8,11.4-1,17.1c-0.8,20.4,10.6,39.2,15,59.1c1.2,5.6,2,11.3,3.5,16.8c1.9,7.1,5.7,12.2,9.9,18
			c5.9,8.2,12.1,16.2,18.6,24.1c7.6,9.3,16.5,15.9,19.6,28.2c1.5,5.7,2.6,11.6,3.2,17.5c0.7,5.9-3.6,31.9-4.3,35
			c-1.6,6.8,1.8,13.9,7,18.6c11.9,10.8,29.3,13.4,44.7,10.8c16.9-2.8,51.5-14.1,54.7-34.2c2.1-13.2-10.2-19.3-10.4-31.7
			c0,0.5,9,3.9,10,4.4c3.4,1.7,6.6,3.7,9.5,6.2c5.4,4.7,8.6,13,12.7,18.8c0.6,0.9,1.3,1.9,1.5,3c0.4,1.9-0.6,3.8-1.6,5.5
			c-5.4,9.6-10.4,19.4-14.8,29.5c-9.2,21-3.7,36-3.4,57.7c0.2,13.7,3.6,27.1,5,40.8c0.8,7.5,1.5,15.5,0.9,23c-9-1.5-18.4-2-27.7-1.2
			c-3.8,0.3-8.4,1.8-8.8,5.5c-0.2,1.5,0.5,3,1.2,4.3c5.5,9.9,17.1,16,28.3,14.8c2.5-0.3,5-0.9,7.5-0.5s5.1,1.9,5.6,4.3
			c0.9,4-3.7,6.8-7.4,8.5c-16.1,7.3-29.7,17.5-43,28.9c-6.9,6-23.1,16.9-19.5,27.9c0.7,2.1,2.4,3.5,4.3,4.4c10.8,5.3,30-0.8,41.5-1
			c24.9-0.5,48.6,10.9,73.3,1.6c8.8-3.3,17-9,26.4-9c8.1,0.1,15.4,4.4,23,7.2c7.6,2.8,17.1,3.6,22.8-2.1c4.3-4.3,6.1-11.9,12.1-12.9
			c3.2-0.5,6.3,1.2,9.5,1.5c8.5,0.7,10.4-31.5,11-36.7C534.6,608.6,534.9,605.6,535.1,602.6z"/>
		<path class="st7" d="M581.1,579.2c6.2-15.5,11.7-31.7,15.8-47.9c0.9-3.7,1.1-8,0-11.6c-0.3-0.9-0.7-1.9-1.5-2.3
			c-1.1-0.5-2.5,0.1-3.3,1.1c-0.8,0.9-1.3,2.1-2.1,3c-2.6,2.9-5.7,1-8.8,1.1c-7.3,0.3-7.9,11.6-10.1,16.5c-0.4,1-6.9,11.2-7.1,10.6
			c-0.9-2.7-2.5-5.6-2.8-8.5c-0.4-3.2,1-6-0.3-9.3c-2.4,10.6-3.8,21.3-4.2,32.1c-0.2-0.9-0.4-1.9-0.5-2.8c0.5,15.5,0.6,31,0.2,46.5
			c-0.3,13.8-0.3,27.2-5.8,40.2c-1.6,3.7-7.7,10.4-3.7,14.5c1.4,1.5,3.5,2,5.5,2.4c6.2,1.1,17.6,1.8,22.8-2.7
			c5.5-4.7,6.5-21.9,8.1-29c2.6-11.9,4.8-24,5.1-36.3c0-0.5,0-1-0.3-1.4c-0.2-0.2-0.4-0.4-0.7-0.6c-1.2-0.7-12.5-0.1-9.6-4.4
			c0.4-0.6,1-0.9,1.5-1.4c1.6-1.8,0.1-5.6,1.1-8C580.6,580.4,580.9,579.8,581.1,579.2z"/>
		<path class="st7" d="M122.7,497.9c1.1-3.4,2.2-6.9,3-10.5C125,490.3,123.9,493.9,122.7,497.9z"/>
		<path class="st7" d="M125.7,487.4c0.1-0.4,0.2-0.8,0.3-1.2C125.9,486.6,125.8,487,125.7,487.4z"/>
		<path class="st7" d="M132.9,604.5c-5.3,1.1-10,3.9-14.6,6.7c0.9-3.7,1.9-7.4,2.8-11.1c-0.5,1.9-4.9,4.9-6.4,6.3
			c6.6-13.1,12.7-26.5,19-39.8c-6.4,4.5-12,10.1-16.4,16.6c8.3-20.5,16.8-40.9,28.2-59.8c0.1-0.2,0.3-0.5,0.4-0.7
			c-13.5,8.2-21,23.1-27.6,37.5c3-15.8,10.4-30,13.9-45.5c1.2-5.4,2.2-10.9,2.9-16.4c0.7-5.3,1.3-10.8,0.8-16.1
			c-0.2-1.9-0.4-3.8-0.7-5.6c-3.8,11.5-7.3,23.1-10.5,34.8c-0.9,3.4-9.1,23.3-8.2,25.4c-3.1-8,2.3-25.4,6.4-38.7
			c-6.1,18.4-15.5,35.1-14.7,55.4c-0.8-0.2-1.6,0.5-2.1,1.1c-6,7.2-6.2,17.5-6,26.9c0.2,9.4-3.5,80,4.5,81.5c1,0.2,2-0.1,3-0.5
			c6.2-2.5,10.8-8.6,11.5-15.2c-2.9,1.7-6.9,1-9.1-1.5c0.6,0.6,14.1-9.5,15-12.2c2.1-6.6,1-14.4,7.6-18.8c4.7-3.2,10.2-4.9,15.6-6.6
			C144.2,604.2,138.2,603.3,132.9,604.5z"/>
		<path class="st7" d="M599.5,629.8c-1.1,1.8-1.3,4.1-2.7,5.7c0.5,0.6,0.9,1.2,1.1,1.9c-0.9,0.3-1.8-0.3-2.7-0.6
			c-2.8-0.7-6.2,10.3-7,12.4c-0.8,2.3-5.4,11.3-3.8,13.5c1.6,2.2,14.2,0.6,17,0.6c-0.3,0-0.5-32.5-0.5-34.8
			C600.8,627.7,600.1,628.8,599.5,629.8z"/>
		<path class="st7" d="M544.1,517.5c0.3-3.7,0.5-7.5,0.8-11.2c0.9-13.2,1.8-26.5,2.7-39.7c-3.3,1.6-4.3,5.7-5.3,9.2
			c-1.3,4.8-3.4,16-8.4,17.9c-2.4-3.6-3.2-7.8-4.1-11.9c-0.2-1-0.1-2.4,0.9-2.9c0.5-0.2,1-0.2,1.5-0.4c1.6-0.6,1.7-3,1.1-4.6
			c-1.1-3-3.5-5.6-6.5-6.9c1.5,0.7-0.7,13.6-0.8,15.1c-0.5,4.8-3.2,14,0.3,17.9c1.1,1.3,2.5,2.4,3.1,4c1.4,3.8-2.1,7.4-1.7,11.3
			c0.4,3.7,3.3,6.1,5.3,9c4.1,6.3,3.9,15.3,9.4,20.7c-1.7-1.7,1.2-16.5,1.3-19.3C543.8,522.9,543.9,520.2,544.1,517.5z"/>
		<path class="st7" d="M441.1,235.7c1.2-6,0.3-13.1-1.3-18.2c-1.5-4.8-5-7.4-10-6.8c-3.8,0.5-7.4,2.4-9.9,5.3
			c-1.1,1.3-4.6,9.8-6.1,7.3c-1.7-2.7-3.1-0.2-3.5,1.8c-0.8,3.7,1.1,8.6,1.8,12.2c0.6,3,1.5,6,3.3,8.5c3.3,4.4,10,5.6,13.6,0.9
			c4.8-6.2,0.3-11.9-5.2-15.2c-2.6-1.5-7.4-3.7-8-6.9c1.1-0.1,2.1,0.2,3.2,0.4c4.2,0.8,10.7-4.4,13.5,0.1c2.8,4.5,2.8,11.9,4.1,17.1
			c0.1,0.5,0.5,1.2,1,1c0.3-0.1,0.4-0.3,0.6-0.5C439.6,240.7,440.5,238.3,441.1,235.7z"/>
		<path class="st7" d="M443.1,222c0.7,6.7-0.2,13.5-1.7,20.1c-1.4,5.6-3.3,11.1-6.6,15.9c-3.3,4.7-8.2,8.5-13.8,9.7
			c-3.4,0.7-7.2,0.2-9.8-2.1c-0.6-0.5-1.1-1.2-1.9-1.5c-3.4-1.4-4.7,10.5-5.3,12.6c-0.9,3.2-2.2,6.8-1.2,10.2
			c1.2,4.2,3.5,6.8,3.5,11.3c0.1,5.5,0,10.9,0.3,16.3c0.6,11.1,2.1,22.1,5.6,32.7c0.4,1.1,0.8,2.3,1.6,3.1c0.3-2.8-1.6-7.6-2.5-10.5
			c-1.3-4.3-2-8.8-2.7-13.3c-0.7-4.7-0.1-9.9-0.1-14.7c0-7.1,0.1-14.2,0.6-21.3c0.5-6.5-1.3-20.1,8.5-19.4
			c6.5,0.5,13.1-5.2,16.7-10.1c3.1-4.2,5.3-9.1,7-14.1c3.6-10.6,5.1-22.7,0-32.6C442.2,216.8,442.8,219.4,443.1,222z"/>
		<polygon class="st7" points="142.7,491 142.7,491 142.7,491 		"/>
		<path class="st7" d="M151.1,475.2c-0.2-1-1.2-1.8-2.1-1.4c-0.5,0.2-0.7,0.7-0.9,1.2c-0.5,1.1-1,2.2-1.6,3.3
			c-0.6,1.1-1.2,2.3-1.1,3.6c0.1,1,0.7,1.9,0.3,2.9c-0.2,0.5-0.6,1-0.9,1.5c-0.6,1.2-0.5,2.5-0.7,3.8c-0.2,1.5-0.6,3-1,4.4
			c-0.9,3-2.1,6-2.9,9.1c-0.2,0.8-0.5,1.6-0.9,2.4c-1.7,4-4.5,7.9-5.1,12.2c-1,8,3.7,2.3,5.6-1.4c4.2-8.3,9.1-19.6,9.8-29
			C149.9,484.2,151.7,478.6,151.1,475.2z"/>
	</g>
	<path class="st8" d="M483.6,514.9c1.6,6,5.9,11.7,10.9,15.4c0.7-0.4,4.9-4.6,4.1-5.6c7.5,7.5,13.7,16.8,20.6,24.8
		c1.1-4.9,3.5-9.6,6.9-13.4c3.9,12.3,6.9,24.9,9,37.6c1.5,9.3,5.7,22.6,1,31.3c-1.9,3.4-5,6-6.8,9.4c-4.5,8.7,0.9,19.4-0.6,29.1
		c-0.3,1.7-0.8,3.5-2.1,4.5c-2.2,1.7-5.3,0.8-7.9,0.3c-9-2-18.8,0.1-26.3,5.5c3.2,1.7,6.9,2.7,10.6,2.9c-4.9-0.2-13.6,6.5-19.7,7
		c-6.1,0.5-16.3,0.4-20.5-4.6l-28.6,3.5c-25.1,0.5-50.5-2-75.5-4.3c-10.2-0.9-20.4-2-30.5-3.3c-3.3-0.4-6.6-0.9-9.8-1.5
		c-1-0.2-3.7-0.3-4.4-1.3c-0.1-0.1-0.2-0.2,0-0.3c0.8-0.7,1.7-1.4,2.7-1.4c1.1-0.1,2.1,0.6,3.1,0.9c6.7,1.7,7.5-7.8,8.7-12.1
		c1.1-3.7,3.8-5.5,5.4-8.7c1.1-2.1,0.3-4.2,1-6.3c0.5-1.6,2-2.6,3.5-3.4c10.5-6,21.2-11.7,32.1-17c4.6-2.2,8.8-6.2,7.9-11.9
		c-0.5-3.2-4.1-2.9-6.7-2.5c-12.2,2-25.4-3.7-32.4-13.9c-11.4-16.9,35-8.1,35.8-12.6c2.9-17.2-3.8-36.3-5.9-53.5
		c-3.7-30.1,1.6-60.9,16.3-87.6c1.7-3.1,3.6-6.4,3.4-10c-0.2-3.2-2-6-3.8-8.7c-7.2-10.5-16.4-24-29.6-27.2
		c-11.5-2.9-25.7,3.2-29.7,14.8c6.7,8.3,15.5,14.8,25.4,18.7c1.7,0.5,3.8-0.7,4.1-2.5c3.5,3.4,3.4,9.3,1,13.5s-6.6,7.1-10.8,9.6
		c-13.7,7.9-29.2,12.5-45,13.4c-12.1,0.6-25.1-1.3-34.1-9.3s-12-23.5-3.6-32.2c-1.7,1.8-5.9,2.9-8.1,4.3c-2.3,1.4-4.5,3-6.6,4.7
		c-4.7,3.8-8.8,8.2-12.4,13c-1.7-4.6,0.6-10.3,5-12.4c-6.2,0.8-12.1,3.8-16.3,8.4c2.1-1.7,4.9-2.5,7.5-2.1
		c-9.1,17.1-22.6,31.9-38.9,42.3c-0.7-4.9,2.2-9.7,5.8-13.1s8-5.9,11.7-9.3s6.6-8.1,6-13.1c-7.1,4.8-16.3,6.3-24.6,4
		c15.6-6.5,31.3-12.9,46.9-19.4c5.8-2.4,11.9-4.1,17.3-7.5c6.7-4.3,8.8-9.8,9.2-17.5c0.4-8.2,0.5-16.5-1.4-24.5
		c-5.3-23.1-29.3-35.8-42-54.4c-15.8-23.2-18.4-43.5-14.1-70.9c-0.1,4.7,1.9,9.4,5.3,12.6c5.7-4.9,9.3-12,9.9-19.5
		c-3.1,1.2-6.8,0.3-9.1-2.1c-3.2-3.4-3-8.7-3.4-13.5c-0.5-4.7-2.9-10.3-7.6-10.5c-0.4,9-0.1,18.6-1.3,27.4
		c-4.8-12.1-7.2-25.7-10.6-38.3c-1.8-6.8-3.7-13.8-2.8-20.8c1.6-12.7,12.2-23.8,11-36.5c-0.7,5.1,1.3,10.4,5.1,13.8
		c0.4-26.2,5.8-52.3,15.7-76.5c1.2-2.8,2.4-5.7,4.3-8.1c2.8-3.4,6.7-5.6,10.5-7.8c15.5-8.6,32.1-17.5,49.7-16.4
		c15.8,1,30.2,9.9,46,11.2c-1.4-1.7-2.7-3.5-4.1-5.2c13.4,0.6,26.7,3.5,39.1,8.4c-1.1-2-2.2-4-3.3-5.9c4.3,1.2,8.3,3.3,11.8,6.1
		c-0.9-1.7-1.9-3.3-2.8-5c19.4,3.3,39.7,11.5,49.6,28.6c2.8,4.9,4.7,10.2,6.5,15.6c2.4,7,4.8,13.9,7.1,20.9c3.5,2.9,6.1,6.7,7.5,11
		c-2,0.8-4,1.6-6,2.4c8.8,9.7,5,25.1-0.5,36.9c-5.6,11.8-12.6,24.8-8.6,37.3c2.8,1.7,5.7,3.5,8.5,5.2c-10,0.7-20,1.5-30,2.2
		c-1.7,0.1-3.6,0.2-5.1-0.8c-2.9-1.9-2-6.3-1.6-9.7c1.7-12.6-7.1-24.7-18.2-30.8c-11.1-6.1-24.2-7.5-36.8-8.5
		c-3.7-0.3-7.8-0.5-10.9,1.6c-8,5.3-5,21.9-14.5,23.2c-0.5-1.4-0.9-2.7-1.4-4.1c-3.8-0.2-7.6-0.4-11.5-0.7
		c4.7,11.5,9.5,23.1,14.2,34.6c-0.3-0.8-5-2-6-2.4c-1.6-0.6-3.2-1.2-4.9-1.8c-2.4-0.8-4.9-1.4-7.5-1.6c-6.3-0.3-12.8,1.7-18.9,2.9
		c-2.2,0.4-2.8,2.8-2.9,4.8c-0.1,0.8,0,1.7,0.5,2.4c0.4,0.7,1.1,1.1,1.7,1.6c1.2,1,2.1,2.3,2.5,3.8c0.4,1.4,0.5,2.9,0.7,4.3
		c0.6,3.8,3.4,5.3,6.7,6.7c-1.4-3.6,3.2-7.3,7.1-6.5c3.8,0.8,6.6,4.1,9,7.1c6.5,8.3,11.8,17.6,19,25.2c5.2,5.5,12.1,8.5,18.6,12.1
		c3.5,1.9,15,3.8,15.9,5.8c0.9,1.9,1,4.2,2.6,5.5c2.4,1.9,27.3-19.8,30.4-19.8c5.1,0-2.9,10.5-3.8,11.7c-2.4,3.4-5.4,6.4-7.7,9.8
		c-1.2,1.8-2.3,3.7-2.9,5.7c-0.6,1.9-0.1,4.1-0.9,5.8c-0.4,0.8-1.1,1.3-1.7,1.9c-4.4,3.5-8.5,7.4-12.4,11.5c-1.2,1.3-2.4,2.6-3,4.2
		c-1.8,4.8-0.8,8.5-4.7,12.5c-3.6,3.7-8.4,5.9-12.6,8.9c-3.6,2.6-7.5,4.8-11.5,6.7c-3.7,1.7-7.6,3-11.4,4.2
		c-2.2,0.7-4.4,1.4-6.6,2.2c-1.2,0.4-6.1,3-7.1,2.6c16.5,6.8,33.1,13.6,49.6,20.5c6.6,2.7,14.2,5.4,20.4,1.9c3.2-1.8,5.4-5,7.9-7.7
		c8.5-8.6,22.8-10.6,33.4-4.8c-14.6-29.9-18.9-64.7-12.1-97.3c6.7,5.4,17.2,3.9,23.7-1.8c6.5-5.7,9.5-14.5,10.3-23
		c-1.6,1.4-3.3,2.8-4.9,4.3c-0.2-5.6-1.2-11.5-5-15.6c-3.8-4.1-11.4-4.9-14.7-0.4c7.1,2.6,15.7,7.9,14,15.2c-1.3,5.6-8.8,8-13.8,5.2
		c-5-2.8-7.2-9.1-6.4-14.8c0.7-5.7,3.9-10.7,7.5-15.2c2.2-2.8,4.8-5.5,8.3-6.5c5.5-1.6,11.4,2.1,14,7.1c2.6,5,2.5,11,1.7,16.6
		c1.7-6.9,1.4-14.3-0.9-21c7.9,18.3,1.1,41.7-15.3,53.1c-4.2,2.9-9.1,5.2-12.2,9.4c-2.9,4-3.7,9.3-4.1,14.2
		c-1.6,17.8-0.5,35.9,3.1,53.3c0.6,2.9,1.4,6,3.4,8.2c3.8,4,10.2,3.5,15.7,4.4c8.1,1.3,15.5,6.7,19.3,14c-4-4.8-9.9-7.8-16.1-8.1
		c8.6,5.7,19.2,15.1,22.1,25.2c-1.6-0.4-18.3-7.1-10.3,1.7c1.3,1.4,3.2,2.2,4.8,3.3c5.3,3.6,7.8,10.8,5.9,16.9
		c7.8,0.7,14.6,7.3,15.7,15c0.1,0.6,0.1,1.3-0.3,1.8c-0.4,0.4-1,0.4-1.6,0.5c-5.9,0-11.9-1.7-16.9-4.9c0.5,1.6-1.1,2.9-2.2,4.1
		c-5.6,5.9-0.6,16.8,1.3,23.2c2.2,7.7,4,15.7,7.3,23L483.6,514.9z"/>
	<path class="st8" d="M102.5,558.7c4.1-25.6,11.6-50.4,24.2-73.5c-5.7,15.3-9,31.5-9.5,47.8c5-17.4,10-34.7,15-52.1
		c0.5-1.6,1.7-3.6,3.3-2.9c0.5,0.2,0.8,0.7,1.1,1.2c3.1,5.7,1.3,12.7-0.6,18.9c-4.8,16-9.6,31.9-14.4,47.9
		c1.8-6,16.7-14.9,21.1-20.3c2.9-3.6,9-21.4,12.3-22.2c0,0.5,1.4,9.4,1.7,9.1c-18.8,20.9-32.9,46-41,72.9
		c6.4-10.1,14.4-19.2,23.5-26.9c2,2.7,0,6.5-1.9,9.2c-7.7,10.7-16.5,20.8-21.6,33c-5.1,12-6.4,25.6-3.6,38.4
		c-2.6,7.8-4.3,15.9-4.9,24.1c-4,1.1-6-4.6-6.1-8.8c-0.5-21.3-3.3-42.7-2-64C99.7,579.8,100.8,569.2,102.5,558.7z M118.5,557.5
		c0.3-0.5,0.6-1,0.7-1.4c0.4-1.7,0.6-3.5,1.8-4.9c0.2-0.3,0-0.7-0.4-0.8c-0.3-0.1-0.4,0.3-0.5,0.6c-0.6,1.8-1,3.7-2.2,5.3
		C117.6,556.7,118,557.1,118.5,557.5z"/>
	<path class="st8" d="M545.2,663.1c-0.3,0-0.5,0-0.8,0c7.9,0.1,10.7-46.2,10.7-52c0.2-25.3,9.1-49.4,16.4-73.3
		c-3.9,12.7-6.8,26.5-8.7,39.7c-0.2,1.3-0.2,2.9,0.9,3.6c0.9,0.6,2.2,0.2,3.2-0.3c19.6-10.3,11.6-39.3,23.4-54.7
		c1.4-1.8,3.2-3.8,3-6.1c1.7,0,2,2.5,1.7,4.2c-1.7,8.4-2.8,17.2-5.5,25.4c-2.7,8.4-7.9,15.5-11.6,23.5c-8.9,19.3,8.7,35,4.1,54.6
		c-2.7,11.1-5.6,22.1-8.9,33c-0.3,0.8-0.5,1.7-1.2,2.3c-0.7,0.6-1.8,0.6-2.7,0.6C561.2,663.3,553.2,663.2,545.2,663.1z"/>
	<path class="st9" d="M464,491.5c4,16.6,16.8,30.9,29.4,41.9c1.3,1.1,3.3,2.3,4.6,1.1c0.6-0.5,0.8-1.3,1.5-1.7
		c0.6-0.3,1.4-0.2,2,0.1c3.8,1.4,6.5,5.3,6.5,9.3c-1.3-0.2-2.7-0.5-4-0.7c4.1,0.7,5.6,8.7,6.2,11.8c1.9,9.8,3.7,19.8,6.4,29.3
		c2.1,7.6,6.7,17.5,1.2,24.8c11.5-15.5-7.4-41.2,5.4-55.7c0.8,16.5,9.6,32.8,6,48.9c-1.6,7.3-5.7,13.7-8.6,20.6
		c-2.9,6.8-4.7,14.8-1.7,21.6c-17.3,4.1-34.2,10.3-50.1,18.4c0.2-1.9-0.1-3.3-1.9-4c-0.3,0.2-0.5,0.5-0.3,0.8
		c-7.3-8.5-9.9-20.7-5-31.2c6.5-14,12.4-19.5-4.2-25.6c-4.3-1.6-7.5-5.3-9.5-9.4c-4.2-8.7-5.1-17-10.5-25.4
		c-4-6.3-9.4-13.9-17.3-15.4c-5.5-1-11.1,1.3-15.3,4.9c-3.4,2.9-18.3,27.3-23.5,17.4c-1.4-2.6-0.3-6,1.8-8.1s4.9-3.2,7.7-4.2
		c2.3-0.8,5.1-2,5.3-4.5c0.2-2.1-1.7-3.9-3.4-5.2c-3.2-2.5-6.4-5-9.6-7.5c-1.7-1.3-3.5-2.7-4.5-4.6c-1.1-1.9-1.2-4.4,0.1-6.1
		c0.8-0.9,2-1.5,2.6-2.5c1-1.4,0.7-3.3,1-4.9c0.5-2.9,2.8-5.3,5.6-6.1c2.2-0.6,4.6-0.1,6.9-0.7c2.2-0.6,4.4-2.9,3.4-5
		c-0.8-1.7-3.1-2-4.9-2.5c-10.5-2.9-8-15-10.9-22.9c-1.9-5.1-6.6-9.2-7-14.6c-0.3-4.3,2.2-8.2,3.9-12.1c2-4.6,2.8-13.6-4.5-10.2
		c-1-10.3,6.4-21.3,12.6-29c2.4-2.9,5.2-6,5.4-9.7c0.3-5.1-4-9.1-7-13.3c-3.2-4.4-5.1-9.8-5.5-15.2c-0.1-1.6-42.5-17.4-55.7-20.5
		c-2.2-0.5,2.7-0.7,2.5-0.5c0,0,52.9,14.9,54.4,10.2c0.9-2.9,10.8-10.8,13.7-11.9c3.2-1.2,8.7-0.6,11.9-0.1
		c10.6,1.7,20.2,7.6,28.8,13.8c-4.6-0.4-9.1-0.8-13.7-1.1c0.4,0.9,0.7,1.8,1.1,2.7c-1.8,0-3.6,0.5-5.2,1.4c0.7,1.2,2,1.8,3.2,2.4
		c1.2,0.6,2.5,1.1,3.4,2.2c0.9,1,1,2.4,0.5,3.6c4.8,0.1,8.6,3.8,11.7,7.1c4,4.3,7.5,9.2,10.2,14.4c0.6,1.2,3.1,5.6,1.5,6.8
		c1-0.8,1.7-1.9,2.7-2.7c3.4,2.3,7.3,4.4,9.9,7.5c-3.8,2.1-10,1.8-13.7-0.8c14.1,10.1,6.4,30,9.8,44.2
		C459.5,472.8,461.8,482.1,464,491.5z"/>
	<path class="st10" d="M441,145.2c0-2.9-0.4-5.7-1.2-8.3c-0.5-1.6-1.7-3.1-3.3-3.6c-0.5-0.1-1.1-0.2-1.6-0.3
		c-1.5-0.5-2.2-2.3-2.8-3.8c-0.7-1.9-9.7-17.7-4.2-16.3c0.2-1.9,0.3-4-0.9-5.4c-1.6-1.8-4.6-1.6-6.3-3.3c-1.3-1.2-1.6-3.1-2.2-4.7
		c-0.6-1.7-1.9-3.4-3.6-3.3c-0.6,0-1.2,0.3-1.8,0.5c-3.3,1-7.2-1-8.3-4.3c2.6,0.1,5.2,0.6,7.7,1.5c0.1-1.3-1-2.5-2.2-3.2
		c-1.2-0.6-2.5-0.9-3.7-1.5c-2.2-1.1-3.9-3.4-3.6-5.8c1.1-8.5,10.4,0,11.7,3.5c1,2.5,1.7,5.1,3.3,7.3c-0.2-3.7-1.1-7.4-2.7-10.7
		c3.1,2.9,6,6.1,8.6,9.5c-3.7-4.9-5.3-10-10.4-14.1c-3.8-3-8.2-4.8-12.7-6.3c-2.5-0.8-11.8-3.8-4.2-6.4c1.7-0.6,3.6-0.3,5.4-0.2
		c1.8,0.1,3.8,0.1,5.2-1c-3.1-0.6-6.3-1.2-9.4-1.8c0.1-0.5,0.2-1,0.3-1.5c-2.3-0.3-4.6-0.6-6.9-0.9c-5.2-0.6-4.5-2.3-7.3-5.8
		c-1.5-1.9-4.5-1-6.9-0.7c-4.1,0.5-8.3-1.6-10.4-5.2c-0.1,1.5,0.7,2.9,2,3.6c-2.5,1.4-5.8,1-7.9-0.8c-0.2,1.1-1.3,1.8-2.4,1.9
		c-1.1,0.1-2.1-0.3-3.2-0.7c-7.3-2.9-15.7-8.1-23.7-5.9c1.6,1,3.1,2.2,4.4,3.7c-3.6,0.8-7.3,1.6-10.9,1.1c-3-0.4-5.9-1.7-8.7-2.8
		c-12-4.8-25.2-8.2-38.1-8.1c-9.4,0-18.3,2.7-26.8,6.6c-7.7,3.5-14.2,11.2-22.8,12.4c-2.1,0.3-4.4,0.2-6.3,1.2
		c1.4-0.2,2.5,1.3,2.4,2.7c0,1.4-0.9,2.6-1.6,3.7c-4.6,6.8-8.6,14.2-10.3,22.3c-1.9,8.6-1.4,17.5-3.8,26c-0.4,1.5-1.3,3.2-2.8,3.1
		c0.2,0.5,0.5,1.1,0.7,1.6c-2.5,3.8-2.4,8.8-1.4,13.3c1,4.5,2.8,8.7,3.6,13.2c-1.4-0.1-2.7-0.1-4.1-0.2c0.6,1.3-0.1,2.9-1.3,3.5
		s-2.9,0-3.5-1.3c-0.3-0.7-0.3-1.5-0.4-2.3c0-3.6-0.1-7.2-0.1-10.8c-2.1,4-3,8.6-2.4,13.1c0.2,1.4,0.5,2.8,0.1,4.1
		c-0.7,2.6-3.6,3.9-5.7,5.6c-6.8,5.4-4.8,14.7-3.4,22c0.5,2.4,0.6,5.2,1.6,7.5c1.1,2.4,4.7,3.1,5.9,4.9c2.2,3.4,0.6,11.1,0.5,15.3
		c-0.1,5.3,0.4,10.8,2.9,15.5c0.4-9.1,0.7-18.2,1.1-27.4c1.5,1.9,3.1,3.7,4.6,5.6c1.9-1.7,2-4.5,2.2-7s0.8-5.4,3.1-6.5
		c1.7-0.8,3.8-0.3,5.5,0.6c1.7,0.9,3.2,2.1,5,2.7c7.7,2.6,8.3-14.1,11.7-18.4c-0.4-0.5-0.9-1-1.3-1.5c-0.5,1.2-2.4,1.3-3.3,0.4
		c-0.9-0.9-1-2.5-0.5-3.7c0.5-1.2,1.5-2.2,2.5-3c0.9-0.8,2.1-1.6,3.2-1.2c0.7,0.2,1.1,0.8,1.7,1.2c1.7,1.1,3.9-0.1,5.6-1.2
		c1.9-1.3,12.3-11.7,14.1-11.4c1.5,0.2,3-0.4,4-1.6c0,0,0.1-0.1,0.1-0.1c0-0.1-0.1-0.3-0.2-0.3c-0.4-0.4-0.6-1-0.6-1.5
		c0-0.6,0.3-1.1,0.7-1.4c0.1-0.1,0.1-0.1,0.1-0.2c0-0.1,0-0.1,0-0.1c-0.3-0.7,0.3-1.9,0.6-2.5c0.3-0.6,0.7-1.5,1.6-1.4
		c0.7,0.1,1.1,1,1.4,1.6c0.9,1.8,1.3,3.8,1.8,5.7c0.1,0.2,0.1,0.5,0.2,0.7c-1.2,0.1-2.5-0.2-3.5-0.9c-0.4,0.6-0.4,1.4-0.1,2.1
		c0.3,0.7,0.8,1.2,1.3,1.8c5.9,6.2,8.4,13.8,12.3,21.2c0.9-1.7,1.8-3.5,2.7-5.2c2.7-5.2,9.1-6,14.1-3.3c0.9,0.5,1.9,1.3,1.8,2.4
		c-0.1,1.1-1.2,1.8-2.1,2.3c-4.1,2.1-8.2,4.3-12.3,6.4c-0.8,0.4-1.5,0.8-2,1.5s-0.4,1.8,0.3,2.3c0.5,0.3,1.2,0.2,1.9,0.3
		c1.6,0.1,3,1.2,3.8,2.6c1.7,2.9,2.4,7.2,2.5,10.5c0,1.2,0.1,2.7,1.2,3.2c0.4,0.2,0.8,0.1,1.2,0.1c2.8-0.1,5.6-0.2,8.5-0.3
		c0.4,0,0.9,0,1.3-0.2c1.1-0.6,1.1-2.2,0.8-3.5c-1-4.6-3.4-9.4-5.7-13.3c-3.1-5.5,18.9-11.4,22.3-12.7c2.3-0.9,4.6-1.8,6.5-3.3
		c2.9-2.5,4.5-5.9,7.8-8.1c3.4-2.2,7.7-1.5,11.3-3.2c-2.6-1.2-5.2-3.2-4.9-6.5c1,0.3,1.9,0.6,2.9,0.8c0.3,0.1,0.6,0.2,0.8,0.1
		c0.8-0.3,0.4-1.5-0.1-2.3c-3.1-4.5-3.3-10.8-0.4-15.5c0.4-0.7,1-1.4,1.8-1.5c1.1-0.2,2,0.8,2.7,1.6c2.2,2.4,5,4.3,8,5.4
		c0-0.7,1-1,1.6-0.7c0.6,0.3,1,0.9,1.5,1.4c1.3,1.5,3.1,2.3,4.6,3.5c5,4,6,11.6,11,15.6c-8.2,0.6-16.9-1-25-1.6
		c8.5,5.5,19.2,7.4,29.1,5.3c5,3.6,10.1,7.1,15.1,10.7c-3.5-5.5-6.9-11-10.4-16.5c1.3,0.6,2.5,1.3,3.8,1.9
		c-11.1-13.3-23.1-25.8-36-37.4c-0.2,2.8-0.4,5.6-0.6,8.5c-1.8,0.4-3.3-1.6-3.5-3.5s0.2-3.7-0.3-5.5c-1.2-4-6.4-4.8-10.5-5.3
		c-7.8-1-15.2-3.6-22.9-5c-7.7-1.4-16-1.4-22.9,2.5c-0.6,0.3-1.2,0.7-1.9,0.6c-0.5-0.1-0.9-0.4-1.2-0.8c-2-2.6,0.4-6.3,3.1-8.1
		s6.2-2.8,7.9-5.6c0.9-1.4,1.1-3.2,2.1-4.5c1.4-2,4-2.8,6.4-3.3c17.9-4,37.3-1.4,53.6,7c5.8,3,11.6,7.4,12.7,13.8
		c0.7,4.5-1.1,9.2,0,13.6c1.7,6.6,9.1,9.6,14.4,14c8.8,7.2,15.2,19.3,20.9,29c1.8,3.1,3.5,7.2,1.4,10.1c-0.3,0.4-0.8,0.9-1.3,0.8
		c-0.4,0-0.7-0.2-1-0.4c-2-1.3-3.9-2.7-5.7-4.2c1.9,2.5,4.3,5.2,6.1,7.9c1.7,2.4,3,6.7,5.1,8.7c-3.6-3.4-8.1-7.7-12.8-9.3
		c0.7,1.9,2.5,2.9,3.7,4.6c3.5,4.6,1.3,12.1,5.4,16.1c2.9,2.7,6.8,3.5,10.5,4.3c0.2,0.1,0.5,0.1,0.8,0c0.3-0.1,0.5-0.6,0.7-0.8
		c0.3-0.3,0.9-0.3,1.3-0.2c5.2,0.4,10.2,0.9,15.3,1.8c-0.3-0.1-1.2-1.2-1.5-1.4c-1.6-1.2-3.8-1.9-5.8-1.5c-0.3,0.1-0.7,0.1-1,0.1
		c-1.6-0.3,0.2-2.4,0.5-3c0.5-0.9,0.7-2,0.8-3c0.3-2.2-0.1-4.5,0.1-6.7c0.3-3.7,0.7-7.5,1.3-11.2c0.4-2.6,0.8-5.2,1.9-7.6
		c1.5-3.3,4.3-5.9,6.4-9C439.3,157.5,441,151.3,441,145.2z M200.3,173.3c-0.3,2.2-0.3,4.5-0.6,6.6c-0.2,1.1-6.4-7.1-6.7-7.8
		c-1.5-3.3-1.5-6.2,0.5-9.2c1-1.5,6.4-6.4,8-5.3C204.6,159.7,200.7,170.5,200.3,173.3z M213.4,184c-0.4,0.6-1.2,0.5-1.8,0.1
		s-1.1-0.8-1.8-0.8c-1.2,0-1.8,1.4-2.4,2.5c-2.8,5.6-5.5-8.7-5.5-10.4c0-6.9,1.6-13.8,3.4-20.4c0.4-1.4,1.3-3.1,2.7-2.8
		c1.4,0.2,1.7,2.1,1.7,3.5c0,2.2-0.1,4.3-0.1,6.5c0.8-1,1.6-2.2,2.9-2.5c0.5,2.3-1.2,7.3-1.7,9.7c-0.3,1.7-0.2,3.3,0.1,4.9
		c0.6,2.8,1.8,5.5,2.5,8.2C213.5,183.1,213.6,183.6,213.4,184z M329,145.5c-2.3,4.6-10,3.5-13.9,5.2c-0.4,0.2-0.8,0.4-1.3,0.4
		c-5.4,0,0.8-5.5,2.4-6.7c0.5-0.4,1-0.8,1.4-1.3c0.3-0.4,0.5-4-0.2-4c2,0,4.2,0.4,5.8,1.6c1.6,1.2,2.6,3.1,4.7,3.6
		C329.1,144.5,329.3,145,329,145.5z M303.1,126.9c2.7-2.3,5.7-4.7,9.2-5.1c2-0.2,4.1,0.3,6-0.2c1.1-0.3,2.1-0.8,3.2-1.1
		c2.4-0.7,5-0.1,7.3-0.9c0.8-0.3,1.6-0.7,2.4-0.7c1.8,0.1,3,6.1,2.9,11.3c-0.1,5.1-1.5,9.5-4.7,7.2c-4.7-3.5-10.2-6-15.9-7.3
		c-0.3-0.2-0.5-0.4-0.8-0.7c-1.2-1-5.9-0.2-7.9,0.1c-1,0.1-2,0.3-2.9,0.4C301.1,129,302.1,127.7,303.1,126.9z M262.6,115.5
		c-0.6,0.1-1.3,0.3-1.8,0.6c-0.6,0.3-1.1,0.8-1.7,1.1c-3.6,2.1-9,1.5-13,1.7c0.6-1.4,1.2-3.1,2.2-4.3c1.5-1.8,4.1-2,6.4-2
		c4.3-0.1,8.6-0.1,12.9-0.2c0.5,0,1,0,1.4-0.3c0.4-0.3,0.6-0.9,0.7-1.4c0.5-1.6,1.3-3.2,2.5-4.4c0.7-0.8,1.7-1.6,2.8-1.6
		c5.4,0-0.7,7.3-2.3,8.3C269.7,114.6,265.9,114.8,262.6,115.5z M279.3,150.3c0.2,0.5,0.2,1.1,0.1,1.7c-0.1,1.4,0,4.5-2.1,4
		c-0.6-0.1-1.1-0.5-1.5-0.8c-2.8-2.3-5.4-5.4-6.8-8.7c-0.6-1.5-1.3-3.6-0.6-5.1c1.8-3.8,7.7,1.3,8.4,3.6c0.4,1.1,0.5,2.2,1.1,3.2
		C278.4,148.9,279,149.5,279.3,150.3C279.3,150.3,279.3,150.3,279.3,150.3z"/>
	<path class="st10" d="M322.6,299.5c-1.5,0.7-3,1.4-4.5,2.3c-3.1,1.8-6,4-9.4,5.1c-5.6,1.7-11.6-0.1-16.9-2.6
		c-2.9-1.4-5.8-3-8.9-3.9c-2.9-0.9-5.1-0.5-8-0.4c-2.9,0.1-4.9-0.7-7.5-2.3c-1.7-1-3.5-2.1-4.5-3.9c-0.8-1.4-0.9-3.1-1.3-4.6
		c-1.1-4.1-6.1-5.9-6.2-10.1c-0.1-1.7,1.4-3,2.9-3.8c5.4-2.8,12.1-2.4,18-2.7c0.9-0.1,1.8-0.1,2.5-0.6c1.1-0.8,1.5-2.3,1.5-3.7
		c0-7.7-7.5-13.8-15.2-14.3c-2.6-0.2-5.4,0.1-7.5-1.4c-1.1-0.8-1.8-2-2.7-2.9c-2.5-2.6-6.5-3.5-10.1-3.1c-3.6,0.4-7,1.8-10.4,3.3
		c-1.2,0.5-2.5,1.2-3,2.4c-0.6,1.6,0.6,3.6-0.2,5.1c-0.6,1-1.8,1.5-2.6,2.4c-1,1.3-0.7,3.2-0.3,4.7c1.4,5.2,3.4,10.2,5.9,14.8
		c1.6-1.1,3.3-2.3,5.2-2.5c1.9-0.2,4.2,1,4.4,2.9c0.1,0.9-0.2,1.9-0.6,2.8c-1.1,2.9-2.7,5.9-3.5,9c-0.9,3.4,0.6,6.6-0.5,9.8
		c-1.3,3.9-4.1,6.4-3.5,10.8c1.3,8.3,6.2,15.6,12.4,21.1c3.3,2.9,7.4,4.1,10.4,7.4c3.3,3.5,5.6,7.8,8.3,11.7
		c5.3,7.6,11.3,14.6,16.2,22.5c4.9,8,8.4,16.7,11.5,25.5c0.2,0.5,0.4,1,0.3,1.5c-0.1,0.7-1.1,2.4-0.1,2.8c0.8,0.3,2.5-2.2,2.9-2.7
		c2-2.7,3.9-5.4,5.1-8.5c0.7-2,1.3-4.4,0.9-6.5c-0.4-2.2-2.1-4-2.4-6.3c-0.3-3.2,1.1-6.3,2.1-9.2c1-3,1.5-6,1.9-9.1
		c0.1-0.5,0.1-1-0.1-1.4c-0.2-0.4-0.7-0.6-1-0.9c-1.5-1.4-0.5-5.1-0.2-6.9c1.4-9.9,13.9-8.6,21.4-10.2c-0.7,1-1.2,2.2-1.2,3.4
		c0,1.2,0.6,2.5,1.7,3.1c4.9,2.8,8.2-9.6,9.3-12.4c2.1-5.5,4.1-11.6,8.9-15.4c3.2-2.6,12.9-11.9,16.3-14.6c8.8-6.8,12.5-16,18.4-25
		c2-3,4.8-5.2,7.6-7.3c0.7-0.5,7-5.9,7.5-5.7c-5.4-2.6-12-1.8-17.5,0.6s-10.3,6.2-15.1,9.7c-8.5,6.3-17.6,12-27.4,16.1
		C330.2,296.6,326.3,297.9,322.6,299.5z"/>
	<path class="st10" d="M305.7,242.3c0.1,0,0.2,0,0.3,0.1C305.9,242.3,305.8,242.3,305.7,242.3z"/>
	<path class="st10" d="M310.6,247.3c-0.2-1.2-0.8-2.3-1.6-3.2c-1.3-1.3-3.5-0.5-4.2-2c-0.5-1.2,1.5-2.9,0.8-3.7
		c-2.5-2.7-6.3-4.1-10-3.5c0.4,1.2,0.7,2.4,1.1,3.6c-5.4,0.4-10.4-2.2-15.2-4.7c-7.5-3.9-14.9-7.7-22.4-11.6
		c-5.9-3.1-13.5-6-18.8-2.1c-3.7,2.7-4.7,7.7-5.4,12.1c-1.4-1.5-2.8-2.9-4.2-4.4c-0.4-0.4-0.8-0.8-1.3-0.8c-0.5,0-1,0.4-1.4,0.7
		c-4.1,4.1-6.9,9.5-7.8,15.2c-0.5,2.8,0.2,5.9-0.6,8.7c-0.4,1.5-3.9,4.4-3.9,4.6c-0.8,5.3-0.5,10.7,0.9,15.9
		c3.3-1.4,5.8-4.6,6.4-8.2c0.9-5.3-1.7-11.7,2.1-15.4c1.5-1.5,3.6-2.1,5.6-2.6c7.4-2,14.9-4,22.5-4.7c14.3-1.3,29,2.3,41.1,10
		c3.7,2.4,8,5.3,12.2,3.9c2.8-0.9,4.4-4,4.2-6.9C310.7,248,310.7,247.7,310.6,247.3z"/>
	<path class="st10" d="M225.9,202c-4.6,0.7-4.5,9.8-6.1,13.3c-0.3-0.1-0.6-0.2-0.8-0.3c-0.6,2.2-0.4,4.6,0.2,6.8
		c-0.7-2.5,9.4-6,10.7-6.8c1.4-0.9,2.3-2.4,3.5-3.5c1.2-1.2,3-2,4.5-1.3c0.4-3.7,7.6-1.3,8,1.4c-0.9-5.2,8-8.4,11.7-8.1
		c1.8,0.2,3.5,0.6,5.3,0.7c2.6,0.1,5.2-0.5,7.7-1.2c0.6-0.2,1.2-0.3,1.5-0.9c0.3-0.6,0.1-1.3-0.2-1.9c-2.4-5.4-7.2-9.9-12.5-12.6
		c-1-0.5-2.1-1-3.2-1.3c-5-1.6-10.5-1.3-15.6-0.2c-0.5,0.1-4.7,3.4-5.1,5.4c-0.1,0.3-0.1,0.7-0.1,1c0,0.2-0.1,0.8,0,1
		c-0.6-0.9-1.6-1.4-2.7-1.3c-3.5,0.3-3.3,5.5-3.2,7.9c0.1,2.1,0.2,9.7,2,11.2C228.7,209.1,226.7,205.7,225.9,202z"/>
	<path class="st10" d="M411,269.9c-2-0.5-4-1.3-3.8-2.2c-1,4-2,8.1-2.9,12.2c-0.6,2.6-1.8,6.9,1.2,8.7c0.5,0.3,1.4,0.6,1.3,1.5
		c-0.1,3.6,0.1,7.2,0.1,10.7c0,4.5-0.2,9.1-0.3,13.6c0,0.8,0,1.6,0.5,2.1c1.2-2.1,1.2-5.4,1.3-7.7c0.2-2.7,0.2-5.4,0.1-8.1
		c-0.1-5.5-0.4-11.1,0.5-16.5c0.6-3.4,1.3-6.9,2.2-10.3c0.2-0.7,0.4-1.5,1-2c0.8-0.5,2.1-0.4,2.6-1.2
		C414.6,270.6,412.8,270.3,411,269.9z"/>
	<path class="st10" d="M438.7,225.6c-0.1-0.6-0.2-1.3-0.3-1.9c-0.4-2.3-0.4-4.9-1.6-7c-1.9-3.3-7.9-7-11.3-3.5
		c-0.2,0.2-0.4,0.5-0.5,0.7c-0.2,0.4-0.5,0.8-0.7,1.2c0.2-0.5,3.3,1.3,3.6,1.6c1.2,1,2.2,2.2,3,3.6c0.7,1.1,1.3,2.2,1.9,3.4
		c0.3,0.6,1.5,2.2,1.4,2.9c0,0.1-0.1,0.3-0.2,0.4c-0.6,1.8,1,4,1.1,5.8c0.1,1.1-0.1,2.2,0.2,3.3c0.3,1.3,1.8,1.2,2.1-0.1
		c0.1-0.5,0-1,0-1.5c0-1.2,0.5-2.4,0.8-3.5C438.9,229.2,438.9,227.4,438.7,225.6z"/>
</g>
</svg>
