<?xml version="1.0" encoding="utf-8"?>
<!-- Generator: Adobe Illustrator 23.0.3, SVG Export Plug-In . SVG Version: 6.00 Build 0)  -->
<svg version="1.1" xmlns="http://www.w3.org/2000/svg" xmlns:xlink="http://www.w3.org/1999/xlink" x="0px" y="0px"
	 viewBox="0 0 400 400" style="enable-background:new 0 0 400 400;" xml:space="preserve">
<style type="text/css">
	.st0{fill:#C37733;}
	.st1{opacity:0.15;fill:#FDFEFE;}
	.st2{opacity:0.5;fill:#FEEA78;}
	.st3{opacity:0.8;fill:#FFFFFF;stroke:#FFF2B0;stroke-miterlimit:10;}
	.st4{fill:#E09F45;}
	.st5{fill:#572310;}
	.st6{fill:#3A2E2A;}
	.st7{fill:#7D6663;}
	.st8{fill:none;stroke:#3A2E2A;stroke-width:0.5;stroke-miterlimit:10;}
	.st9{fill:#AF9893;stroke:#3A2E2A;stroke-width:0.5;stroke-miterlimit:10;}
	.st10{fill:#7D6663;stroke:#3A2E2A;stroke-width:0.5;stroke-miterlimit:10;}
	.st11{fill:#5F4A49;stroke:#3A2E2A;stroke-width:0.5;stroke-miterlimit:10;}
	.st12{opacity:0.65;}
	.st13{fill:none;stroke:#3A2E2A;stroke-width:0.2;stroke-miterlimit:10;}
	.st14{fill:#AF9893;stroke:#3A2E2A;stroke-width:0.2;stroke-miterlimit:10;}
	.st15{fill:#7D6663;stroke:#3A2E2A;stroke-width:0.2;stroke-miterlimit:10;}
	.st16{fill:#5F4A49;stroke:#3A2E2A;stroke-width:0.2;stroke-miterlimit:10;}
	.st17{opacity:0.2;}
	.st18{fill:none;stroke:#3A2E2A;stroke-width:0.05;stroke-miterlimit:10;}
	.st19{fill:#AF9893;stroke:#3A2E2A;stroke-width:0.05;stroke-miterlimit:10;}
	.st20{fill:#7D6663;stroke:#3A2E2A;stroke-width:0.05;stroke-miterlimit:10;}
	.st21{fill:#5F4A49;stroke:#3A2E2A;stroke-width:0.05;stroke-miterlimit:10;}
	.st22{opacity:0.3;}
	.st23{fill:none;stroke:#3A2E2A;stroke-width:0.1;stroke-miterlimit:10;}
	.st24{fill:#AF9893;stroke:#3A2E2A;stroke-width:0.1;stroke-miterlimit:10;}
	.st25{fill:#7D6663;stroke:#3A2E2A;stroke-width:0.1;stroke-miterlimit:10;}
	.st26{fill:#5F4A49;stroke:#3A2E2A;stroke-width:0.1;stroke-miterlimit:10;}
	.st27{opacity:0.8;}
	.st28{opacity:0.4;}
	.st29{opacity:0.5;fill:url(#SVGID_1_);}
</style>
<g id="Base_copy">
	<rect y="0.47" class="st0" width="400" height="399.53"/>
</g>
<g id="Sun">
</g>
<g id="Thin_Cloud">
</g>
<g id="Ridgeline">
</g>
<g id="TIE_Fighter">
	<ellipse class="st1" cx="173.06" cy="199.92" rx="137.24" ry="125.87"/>
	<ellipse class="st2" cx="173.06" cy="199.92" rx="127.52" ry="116.96"/>
	<ellipse class="st3" cx="173.06" cy="199.92" rx="110.2" ry="101.07"/>
	<path class="st4" d="M107.68,146.85c0,0.55,0.45,1,1,1h15.28c-0.17,0.3-0.28,0.63-0.28,1c0,1.1,0.9,2,2,2h197.8c1.1,0,2-0.9,2-2
		c0-1.1-0.9-2-2-2h-14c0-0.55-0.45-1-1-1h-199.8C108.12,145.85,107.68,146.3,107.68,146.85z"/>
	<path class="st4" d="M103.28,181.67c0-0.55-0.45-1-1-1h-48c-0.55,0-1,0.45-1,1c0,0.55,0.45,1,1,1H78.9
		c-0.1,0.16-0.18,0.33-0.18,0.54c0,0.55,0.45,1,1,1h48c0.55,0,1-0.45,1-1c0-0.01-0.01-0.02-0.01-0.04h1.52c1.38,0,2.5-1.12,2.5-2.5
		c0-1.38-1.12-2.5-2.5-2.5h-15c-1.38,0-2.5,1.12-2.5,2.5c0,0.58,0.21,1.11,0.54,1.54H103.1
		C103.21,182.05,103.28,181.87,103.28,181.67z"/>
	<path class="st4" d="M103.28,181.67c0-0.55-0.45-1-1-1h-48c-0.55,0-1,0.45-1,1c0,0.55,0.45,1,1,1H78.9
		c-0.1,0.16-0.18,0.33-0.18,0.54c0,0.55,0.45,1,1,1h48c0.55,0,1-0.45,1-1c0-0.01-0.01-0.02-0.01-0.04h1.52c1.38,0,2.5-1.12,2.5-2.5
		c0-1.38-1.12-2.5-2.5-2.5h-15c-1.38,0-2.5,1.12-2.5,2.5c0,0.58,0.21,1.11,0.54,1.54H103.1
		C103.21,182.05,103.28,181.87,103.28,181.67z"/>
	<path class="st4" d="M134.23,179.55h2.42c0.83,0,1.5-0.67,1.5-1.5s-0.67-1.5-1.5-1.5h-2.42c-0.83,0-1.5,0.67-1.5,1.5
		S133.4,179.55,134.23,179.55z"/>
	<path class="st4" d="M134.23,179.55h2.42c0.83,0,1.5-0.67,1.5-1.5s-0.67-1.5-1.5-1.5h-2.42c-0.83,0-1.5,0.67-1.5,1.5
		S133.4,179.55,134.23,179.55z"/>
	<path class="st4" d="M101.28,160.29c0-3.31-2.69-6-6-6H0v12h95.28C98.6,166.29,101.28,163.6,101.28,160.29z"/>
	<path class="st4" d="M99.25,197.3c0-3.31-2.69-6-6-6H0v12h93.25C96.57,203.3,99.25,200.62,99.25,197.3z"/>
	<path class="st4" d="M191.39,138.85h-68.48c-1.1,0-2,0.9-2,2c0,1.1,0.9,2,2,2h72.48h126.08H400v-8H195.39
		C193.19,134.85,191.39,136.64,191.39,138.85z"/>
	<path class="st4" d="M191.39,138.85h-68.48c-1.1,0-2,0.9-2,2c0,1.1,0.9,2,2,2h72.48h126.08H400v-8H195.39
		C193.19,134.85,191.39,136.64,191.39,138.85z"/>
	<path class="st4" d="M233.34,185.37h-89.18c-3.31,0-6,2.69-6,6s2.69,6,6,6h38.03c0,3.27,2.65,5.93,5.93,5.93h35.13
		c0.93,0,1.8-0.22,2.58-0.6c2.02,4.19,6.29,7.1,11.26,7.1H400v-25H237.08C235.77,184.8,234.52,185,233.34,185.37z"/>
	<path class="st5" d="M400,290.31H0v-28.92c10.96,4.26,24.29-0.5,30.24-10.64c1.54-2.61,3.02-5.85,6-6.42
		c1.84-0.35,3.69,0.49,5.38,1.3c3.65,1.76,7.29,3.53,10.94,5.29c2.55,1.23,6.36,2.06,7.55-0.5c3.01-0.36,6.16,0.64,8.4,2.68
		c1.11,1.02,2.01,2.27,3.23,3.16c2.24,1.64,5.19,1.83,7.95,2.09c12.88,1.21,24.61,16.5,36.67,11.8c1.82-0.71-0.22-5.54,1.73-5.61
		c11.7-0.46,15.5,18.81,29.05,18c3.49-0.21,1.46-7.16,4.14-9.42s5.22,0.74,8.58,1.74c6.1,1.82,11.69-4.36,18.04-4.63
		c6.36-0.26,10.11-8.53,16.41-7.64c7.49,1.05,9.25,10.6,16.82,11.01c3.21,0.17,3.65,5.36,6.87,5.35c3.22-0.01,6.23-1.47,9.31-2.39
		c13.93-4.12,28.43,3.01,42.85,4.81c7.41,0.93,15,0.41,22.23-1.5c1.9-0.5,3.82-1.11,5.78-0.96c1.33,0.1,2.6,0.55,3.89,0.85
		c1.89,0.44,3.85,0.58,5.79,0.4c8.51-0.77,15.44-7.28,23.74-9.31c12.4-3.03,24.68,4.3,37.13,7.14c11.06,2.52,20.89,1.39,31.28-3.16
		V290.31"/>
	<g>
		<g>
			<rect x="97.27" y="189.61" class="st6" width="2.74" height="6.85"/>
			<g>
				<rect x="87" y="186.19" class="st7" width="1.71" height="13.7"/>
				<rect x="87" y="186.19" class="st8" width="1.71" height="13.7"/>
			</g>
			<rect x="88.71" y="173.17" class="st9" width="2.74" height="39.72"/>
			<rect x="89.74" y="173.17" class="st6" width="0.68" height="39.72"/>
			<rect x="91.45" y="186.19" class="st10" width="1.71" height="13.7"/>
			<polygon class="st11" points="95.9,195.09 93.16,196.46 93.16,189.61 95.9,190.98 			"/>
			<rect x="93.16" y="192.01" class="st6" width="1.37" height="2.05"/>
			<polygon class="st10" points="97.96,190.98 95.9,190.98 95.9,195.09 97.96,195.09 102.75,197.14 102.75,188.93 			"/>
			<line class="st10" x1="97.96" y1="190.98" x2="97.96" y2="195.09"/>
			<g>
				<rect x="96.76" y="192.01" class="st6" width="1.03" height="0.68"/>
				<rect x="96.76" y="193.38" class="st6" width="1.03" height="0.68"/>
			</g>
			<rect x="99.33" y="192.35" class="st6" width="1.37" height="1.37"/>
			<rect x="98.98" y="190.64" class="st6" width="0.68" height="1.03"/>
			<rect x="98.98" y="194.41" class="st6" width="0.68" height="1.03"/>
		</g>
		<g>
			
				<rect x="113.71" y="189.61" transform="matrix(-1 -4.515200e-11 4.515200e-11 -1 230.1547 386.0709)" class="st6" width="2.74" height="6.85"/>
			<g>
				
					<rect x="125.01" y="186.19" transform="matrix(-1 -4.568313e-11 4.568313e-11 -1 251.7279 386.0709)" class="st7" width="1.71" height="13.7"/>
				
					<rect x="125.01" y="186.19" transform="matrix(-1 -4.568313e-11 4.568313e-11 -1 251.7279 386.0709)" class="st8" width="1.71" height="13.7"/>
			</g>
			
				<rect x="122.27" y="173.17" transform="matrix(-1 -4.515200e-11 4.515200e-11 -1 247.2763 386.0709)" class="st9" width="2.74" height="39.72"/>
			
				<rect x="123.3" y="173.17" transform="matrix(-1 -4.780766e-11 4.780766e-11 -1 247.2763 386.0709)" class="st6" width="0.68" height="39.72"/>
			
				<rect x="120.56" y="186.19" transform="matrix(-1 -4.355817e-11 4.355817e-11 -1 242.8247 386.0709)" class="st10" width="1.71" height="13.7"/>
			<polygon class="st11" points="117.82,195.09 120.56,196.46 120.56,189.61 117.82,190.98 			"/>
			
				<rect x="119.19" y="192.01" transform="matrix(-1 -4.647983e-11 4.647983e-11 -1 239.7428 386.0709)" class="st6" width="1.37" height="2.05"/>
			<polygon class="st10" points="115.76,190.98 117.82,190.98 117.82,195.09 115.76,195.09 110.97,197.14 110.97,188.93 			"/>
			<line class="st10" x1="115.76" y1="190.98" x2="115.76" y2="195.09"/>
			<g>
				
					<rect x="115.93" y="192.01" transform="matrix(-1 -4.426649e-11 4.426649e-11 -1 232.8941 384.7012)" class="st6" width="1.03" height="0.68"/>
				
					<rect x="115.93" y="193.38" transform="matrix(-1 -4.426649e-11 4.426649e-11 -1 232.8941 387.4406)" class="st6" width="1.03" height="0.68"/>
			</g>
			
				<rect x="113.02" y="192.35" transform="matrix(-1 -4.315982e-11 4.315982e-11 -1 227.4152 386.0709)" class="st6" width="1.37" height="1.37"/>
			
				<rect x="114.05" y="190.64" transform="matrix(-1 -4.382373e-11 4.382373e-11 -1 228.785 382.3041)" class="st6" width="0.68" height="1.03"/>
			
				<rect x="114.05" y="194.41" transform="matrix(-1 -4.249591e-11 4.249591e-11 -1 228.785 389.8376)" class="st6" width="0.68" height="1.03"/>
		</g>
		<polygon class="st10" points="108.91,201.45 104.8,201.45 103.43,197.63 110.28,197.63 		"/>
		<rect x="105.83" y="200.42" class="st6" width="2.05" height="1.03"/>
		<rect x="101.38" y="196.95" class="st6" width="1.37" height="2.05"/>
		<rect x="110.97" y="196.95" class="st6" width="1.37" height="2.05"/>
		<circle class="st9" cx="106.86" cy="193.04" r="6.16"/>
		<line class="st9" x1="102.75" y1="188.93" x2="110.97" y2="197.14"/>
		<line class="st9" x1="110.97" y1="188.93" x2="102.75" y2="197.14"/>
		<path class="st11" d="M102.27,188.93h9.17c-1.13-1.26-2.76-2.05-4.59-2.05S103.4,187.67,102.27,188.93z"/>
		<circle class="st10" cx="106.86" cy="193.04" r="2.05"/>
		<rect x="106.52" y="193.04" class="st6" width="0.68" height="2.05"/>
		<rect x="107.54" y="192.35" class="st6" width="1.37" height="1.37"/>
		<rect x="110.63" y="192.35" class="st6" width="0.68" height="1.37"/>
		<rect x="106.17" y="196.46" class="st6" width="1.37" height="0.68"/>
		<rect x="110.28" y="192.69" class="st6" width="0.34" height="0.68"/>
		
			<rect x="104.8" y="192.35" transform="matrix(-1 -4.515200e-11 4.515200e-11 -1 210.9785 386.0709)" class="st6" width="1.37" height="1.37"/>
		
			<rect x="102.41" y="192.35" transform="matrix(-1 -4.780766e-11 4.780766e-11 -1 205.4995 386.0709)" class="st6" width="0.68" height="1.37"/>
		
			<rect x="106.17" y="196.46" transform="matrix(-1 -4.249591e-11 4.249591e-11 -1 213.7179 393.6044)" class="st6" width="1.37" height="0.68"/>
		
			<rect x="103.09" y="192.69" transform="matrix(-1 -4.780766e-11 4.780766e-11 -1 206.5268 386.0709)" class="st6" width="0.34" height="0.68"/>
	</g>
	<g class="st12">
		<g>
			<rect x="195.57" y="196.12" class="st6" width="1.37" height="3.42"/>
			<g>
				<rect x="190.43" y="194.41" class="st7" width="0.86" height="6.85"/>
				<rect x="190.43" y="194.41" class="st13" width="0.86" height="6.85"/>
			</g>
			<rect x="191.29" y="187.9" class="st14" width="1.37" height="19.86"/>
			<rect x="191.8" y="187.9" class="st6" width="0.34" height="19.86"/>
			<rect x="192.66" y="194.41" class="st15" width="0.86" height="6.85"/>
			<polygon class="st16" points="194.89,198.86 193.52,199.54 193.52,196.12 194.89,196.8 			"/>
			<rect x="193.52" y="197.32" class="st6" width="0.68" height="1.03"/>
			<polygon class="st15" points="195.91,196.8 194.89,196.8 194.89,198.86 195.91,198.86 198.31,199.88 198.31,195.77 			"/>
			<line class="st15" x1="195.91" y1="196.8" x2="195.91" y2="198.86"/>
			<g>
				<rect x="195.31" y="197.32" class="st6" width="0.51" height="0.34"/>
				<rect x="195.31" y="198" class="st6" width="0.51" height="0.34"/>
			</g>
			<rect x="196.6" y="197.49" class="st6" width="0.68" height="0.68"/>
			<rect x="196.43" y="196.63" class="st6" width="0.34" height="0.51"/>
			<rect x="196.43" y="198.51" class="st6" width="0.34" height="0.51"/>
		</g>
		<g>
			
				<rect x="203.79" y="196.12" transform="matrix(-1 -4.515200e-11 4.515200e-11 -1 408.9485 395.659)" class="st6" width="1.37" height="3.42"/>
			<g>
				
					<rect x="209.44" y="194.41" transform="matrix(-1 -4.249591e-11 4.249591e-11 -1 419.7351 395.659)" class="st7" width="0.86" height="6.85"/>
				
					<rect x="209.44" y="194.41" transform="matrix(-1 -4.249591e-11 4.249591e-11 -1 419.7351 395.659)" class="st13" width="0.86" height="6.85"/>
			</g>
			
				<rect x="208.07" y="187.9" transform="matrix(-1 -4.515200e-11 4.515200e-11 -1 417.5093 395.659)" class="st14" width="1.37" height="19.86"/>
			
				<rect x="208.58" y="187.9" transform="matrix(-1 -4.249591e-11 4.249591e-11 -1 417.5093 395.659)" class="st6" width="0.34" height="19.86"/>
			
				<rect x="207.21" y="194.41" transform="matrix(-1 -4.249591e-11 4.249591e-11 -1 415.2834 395.659)" class="st15" width="0.86" height="6.85"/>
			<polygon class="st16" points="205.84,198.86 207.21,199.54 207.21,196.12 205.84,196.8 			"/>
			
				<rect x="206.53" y="197.32" transform="matrix(-1 -4.515200e-11 4.515200e-11 -1 413.7425 395.659)" class="st6" width="0.68" height="1.03"/>
			<polygon class="st15" points="204.82,196.8 205.84,196.8 205.84,198.86 204.82,198.86 202.42,199.88 202.42,195.77 			"/>
			<line class="st15" x1="204.82" y1="196.8" x2="204.82" y2="198.86"/>
			<g>
				
					<rect x="204.9" y="197.32" transform="matrix(-1 -4.780766e-11 4.780766e-11 -1 410.3182 394.9742)" class="st6" width="0.51" height="0.34"/>
				
					<rect x="204.9" y="198" transform="matrix(-1 -4.249591e-11 4.249591e-11 -1 410.3182 396.3439)" class="st6" width="0.51" height="0.34"/>
			</g>
			
				<rect x="203.45" y="197.49" transform="matrix(-1 -4.515200e-11 4.515200e-11 -1 407.5787 395.659)" class="st6" width="0.68" height="0.68"/>
			
				<rect x="203.96" y="196.63" transform="matrix(-1 -4.249591e-11 4.249591e-11 -1 408.2636 393.7756)" class="st6" width="0.34" height="0.51"/>
			
				<rect x="203.96" y="198.51" transform="matrix(-1 -4.249591e-11 4.249591e-11 -1 408.2636 397.5424)" class="st6" width="0.34" height="0.51"/>
		</g>
		<polygon class="st15" points="201.39,202.04 199.34,202.04 198.65,200.13 202.08,200.13 		"/>
		<rect x="199.85" y="201.52" class="st6" width="1.03" height="0.51"/>
		<rect x="197.63" y="199.79" class="st6" width="0.68" height="1.03"/>
		<rect x="202.42" y="199.79" class="st6" width="0.68" height="1.03"/>
		<circle class="st14" cx="200.37" cy="197.83" r="3.08"/>
		<line class="st14" x1="198.31" y1="195.77" x2="202.42" y2="199.88"/>
		<line class="st14" x1="202.42" y1="195.77" x2="198.31" y2="199.88"/>
		<path class="st16" d="M198.07,195.77h4.59c-0.56-0.63-1.38-1.03-2.29-1.03S198.64,195.15,198.07,195.77z"/>
		<circle class="st15" cx="200.37" cy="197.83" r="1.03"/>
		<rect x="200.19" y="197.83" class="st6" width="0.34" height="1.03"/>
		<rect x="200.71" y="197.49" class="st6" width="0.68" height="0.68"/>
		<rect x="202.25" y="197.49" class="st6" width="0.34" height="0.68"/>
		<rect x="200.02" y="199.54" class="st6" width="0.68" height="0.34"/>
		<rect x="202.08" y="197.66" class="st6" width="0.17" height="0.34"/>
		
			<rect x="199.34" y="197.49" transform="matrix(-1 -4.647983e-11 4.647983e-11 -1 399.3604 395.659)" class="st6" width="0.68" height="0.68"/>
		
			<rect x="198.14" y="197.49" transform="matrix(-1 -4.780766e-11 4.780766e-11 -1 396.6209 395.659)" class="st6" width="0.34" height="0.68"/>
		
			<rect x="200.02" y="199.54" transform="matrix(-1 -4.249591e-11 4.249591e-11 -1 400.7301 399.4258)" class="st6" width="0.68" height="0.34"/>
		
			<rect x="198.48" y="197.66" transform="matrix(-1 -4.249591e-11 4.249591e-11 -1 397.1345 395.659)" class="st6" width="0.17" height="0.34"/>
	</g>
	<g class="st17">
		<g>
			<rect x="171.94" y="183.58" class="st6" width="0.38" height="0.94"/>
			<g>
				<rect x="170.52" y="183.11" class="st7" width="0.24" height="1.89"/>
				<rect x="170.52" y="183.11" class="st18" width="0.24" height="1.89"/>
			</g>
			<rect x="170.76" y="181.32" class="st19" width="0.38" height="5.48"/>
			<rect x="170.9" y="181.32" class="st6" width="0.09" height="5.48"/>
			<rect x="171.14" y="183.11" class="st20" width="0.24" height="1.89"/>
			<polygon class="st21" points="171.75,184.34 171.37,184.53 171.37,183.58 171.75,183.77 			"/>
			<rect x="171.37" y="183.91" class="st6" width="0.19" height="0.28"/>
			<polygon class="st20" points="172.03,183.77 171.75,183.77 171.75,184.34 172.03,184.34 172.7,184.62 172.7,183.49 			"/>
			<line class="st20" x1="172.03" y1="183.77" x2="172.03" y2="184.34"/>
			<g>
				<rect x="171.87" y="183.91" class="st6" width="0.14" height="0.09"/>
				<rect x="171.87" y="184.1" class="st6" width="0.14" height="0.09"/>
			</g>
			<rect x="172.22" y="183.96" class="st6" width="0.19" height="0.19"/>
			<rect x="172.18" y="183.72" class="st6" width="0.09" height="0.14"/>
			<rect x="172.18" y="184.24" class="st6" width="0.09" height="0.14"/>
		</g>
		<g>
			
				<rect x="174.21" y="183.58" transform="matrix(-1 -4.332591e-11 4.332591e-11 -1 348.7927 368.1101)" class="st6" width="0.38" height="0.94"/>
			<g>
				
					<rect x="175.77" y="183.11" transform="matrix(-1 -4.236312e-11 4.236312e-11 -1 351.7683 368.1101)" class="st7" width="0.24" height="1.89"/>
				
					<rect x="175.77" y="183.11" transform="matrix(-1 -4.236312e-11 4.236312e-11 -1 351.7683 368.1101)" class="st18" width="0.24" height="1.89"/>
			</g>
			
				<rect x="175.39" y="181.32" transform="matrix(-1 -4.573287e-11 4.573287e-11 -1 351.1543 368.1101)" class="st19" width="0.38" height="5.48"/>
			
				<rect x="175.53" y="181.32" transform="matrix(-1 -5.776769e-11 5.776769e-11 -1 351.1543 368.1101)" class="st6" width="0.09" height="5.48"/>
			
				<rect x="175.15" y="183.11" transform="matrix(-1 -3.851198e-11 3.851198e-11 -1 350.5403 368.1101)" class="st20" width="0.24" height="1.89"/>
			<polygon class="st21" points="174.77,184.34 175.15,184.53 175.15,183.58 174.77,183.77 			"/>
			
				<rect x="174.96" y="183.91" transform="matrix(-1 -5.776769e-11 5.776769e-11 -1 350.1152 368.1101)" class="st6" width="0.19" height="0.28"/>
			<polygon class="st20" points="174.49,183.77 174.77,183.77 174.77,184.34 174.49,184.34 173.83,184.62 173.83,183.49 			"/>
			<line class="st20" x1="174.49" y1="183.77" x2="174.49" y2="184.34"/>
			<g>
				
					<rect x="174.51" y="183.91" transform="matrix(-1 -3.851198e-11 3.851198e-11 -1 349.1706 367.9212)" class="st6" width="0.14" height="0.09"/>
				
					<rect x="174.51" y="184.1" transform="matrix(-1 -5.134927e-11 5.134927e-11 -1 349.1706 368.2991)" class="st6" width="0.14" height="0.09"/>
			</g>
			
				<rect x="174.11" y="183.96" transform="matrix(-1 -4.332591e-11 4.332591e-11 -1 348.4149 368.1101)" class="st6" width="0.19" height="0.19"/>
			
				<rect x="174.25" y="183.72" transform="matrix(-1 -4.813984e-11 4.813984e-11 -1 348.6038 367.5906)" class="st6" width="0.09" height="0.14"/>
			
				<rect x="174.25" y="184.24" transform="matrix(-1 -4.813984e-11 4.813984e-11 -1 348.6038 368.6297)" class="st6" width="0.09" height="0.14"/>
		</g>
		<polygon class="st20" points="173.55,185.22 172.98,185.22 172.79,184.69 173.74,184.69 		"/>
		<rect x="173.12" y="185.07" class="st6" width="0.28" height="0.14"/>
		<rect x="172.51" y="184.59" class="st6" width="0.19" height="0.28"/>
		<rect x="173.83" y="184.59" class="st6" width="0.19" height="0.28"/>
		<circle class="st19" cx="173.26" cy="184.06" r="0.85"/>
		<line class="st19" x1="172.7" y1="183.49" x2="173.83" y2="184.62"/>
		<line class="st19" x1="173.83" y1="183.49" x2="172.7" y2="184.62"/>
		<path class="st21" d="M172.63,183.49h1.26c-0.16-0.17-0.38-0.28-0.63-0.28S172.79,183.31,172.63,183.49z"/>
		<circle class="st20" cx="173.26" cy="184.06" r="0.28"/>
		<rect x="173.22" y="184.06" class="st6" width="0.09" height="0.28"/>
		<rect x="173.36" y="183.96" class="st6" width="0.19" height="0.19"/>
		<rect x="173.78" y="183.96" class="st6" width="0.09" height="0.19"/>
		<rect x="173.17" y="184.53" class="st6" width="0.19" height="0.09"/>
		<rect x="173.74" y="184.01" class="st6" width="0.05" height="0.09"/>
		
			<rect x="172.98" y="183.96" transform="matrix(-1 -4.813984e-11 4.813984e-11 -1 346.1477 368.1101)" class="st6" width="0.19" height="0.19"/>
		
			<rect x="172.65" y="183.96" transform="matrix(-1 -4.813984e-11 4.813984e-11 -1 345.392 368.1101)" class="st6" width="0.09" height="0.19"/>
		
			<rect x="173.17" y="184.53" transform="matrix(-1 -4.332591e-11 4.332591e-11 -1 346.5256 369.1492)" class="st6" width="0.19" height="0.09"/>
		
			<rect x="172.74" y="184.01" transform="matrix(-1 -3.851198e-11 3.851198e-11 -1 345.5337 368.1101)" class="st6" width="0.05" height="0.09"/>
	</g>
	<g class="st22">
		<g>
			<rect x="200.07" y="160.53" class="st6" width="0.38" height="0.94"/>
			<g>
				<rect x="198.65" y="160.06" class="st7" width="0.24" height="1.89"/>
				<rect x="198.65" y="160.06" class="st23" width="0.24" height="1.89"/>
			</g>
			<rect x="198.89" y="158.26" class="st24" width="0.38" height="5.48"/>
			<rect x="199.03" y="158.26" class="st6" width="0.09" height="5.48"/>
			<rect x="199.27" y="160.06" class="st25" width="0.24" height="1.89"/>
			<polygon class="st26" points="199.88,161.28 199.5,161.47 199.5,160.53 199.88,160.72 			"/>
			<rect x="199.5" y="160.86" class="st6" width="0.19" height="0.28"/>
			<polygon class="st25" points="200.16,160.72 199.88,160.72 199.88,161.28 200.16,161.28 200.83,161.57 200.83,160.43 			"/>
			<line class="st25" x1="200.16" y1="160.72" x2="200.16" y2="161.28"/>
			<g>
				<rect x="200" y="160.86" class="st6" width="0.14" height="0.09"/>
				<rect x="200" y="161.05" class="st6" width="0.14" height="0.09"/>
			</g>
			<rect x="200.35" y="160.91" class="st6" width="0.19" height="0.19"/>
			<rect x="200.31" y="160.67" class="st6" width="0.09" height="0.14"/>
			<rect x="200.31" y="161.19" class="st6" width="0.09" height="0.14"/>
		</g>
		<g>
			
				<rect x="202.34" y="160.53" transform="matrix(-1 -4.332591e-11 4.332591e-11 -1 405.0518 322.0009)" class="st6" width="0.38" height="0.94"/>
			<g>
				
					<rect x="203.9" y="160.06" transform="matrix(-1 -4.621427e-11 4.621427e-11 -1 408.0274 322.0009)" class="st7" width="0.24" height="1.89"/>
				
					<rect x="203.9" y="160.06" transform="matrix(-1 -4.621427e-11 4.621427e-11 -1 408.0274 322.0009)" class="st23" width="0.24" height="1.89"/>
			</g>
			
				<rect x="203.52" y="158.26" transform="matrix(-1 -4.091895e-11 4.091895e-11 -1 407.4134 322.0009)" class="st24" width="0.38" height="5.48"/>
			
				<rect x="203.66" y="158.26" transform="matrix(-1 -4.813984e-11 4.813984e-11 -1 407.4134 322.0009)" class="st6" width="0.09" height="5.48"/>
			
				<rect x="203.28" y="160.06" transform="matrix(-1 -4.236312e-11 4.236312e-11 -1 406.7994 322.0009)" class="st25" width="0.24" height="1.89"/>
			<polygon class="st26" points="202.9,161.28 203.28,161.47 203.28,160.53 202.9,160.72 			"/>
			
				<rect x="203.09" y="160.86" transform="matrix(-1 -4.813984e-11 4.813984e-11 -1 406.3743 322.0009)" class="st6" width="0.19" height="0.28"/>
			<polygon class="st25" points="202.62,160.72 202.9,160.72 202.9,161.28 202.62,161.28 201.96,161.57 201.96,160.43 			"/>
			<line class="st25" x1="202.62" y1="160.72" x2="202.62" y2="161.28"/>
			<g>
				
					<rect x="202.64" y="160.86" transform="matrix(-1 -4.493040e-11 4.493040e-11 -1 405.4297 321.8119)" class="st6" width="0.14" height="0.09"/>
				
					<rect x="202.64" y="161.05" transform="matrix(-1 -4.493040e-11 4.493040e-11 -1 405.4297 322.1898)" class="st6" width="0.14" height="0.09"/>
			</g>
			
				<rect x="202.24" y="160.91" transform="matrix(-1 -4.332591e-11 4.332591e-11 -1 404.674 322.0009)" class="st6" width="0.19" height="0.19"/>
			
				<rect x="202.38" y="160.67" transform="matrix(-1 -4.813984e-11 4.813984e-11 -1 404.8629 321.4813)" class="st6" width="0.09" height="0.14"/>
			
				<rect x="202.38" y="161.19" transform="matrix(-1 -4.813984e-11 4.813984e-11 -1 404.8629 322.5204)" class="st6" width="0.09" height="0.14"/>
		</g>
		<polygon class="st25" points="201.68,162.16 201.11,162.16 200.92,161.63 201.86,161.63 		"/>
		<rect x="201.25" y="162.02" class="st6" width="0.28" height="0.14"/>
		<rect x="200.64" y="161.54" class="st6" width="0.19" height="0.28"/>
		<rect x="201.96" y="161.54" class="st6" width="0.19" height="0.28"/>
		<circle class="st24" cx="201.39" cy="161" r="0.85"/>
		<line class="st24" x1="200.83" y1="160.43" x2="201.96" y2="161.57"/>
		<line class="st24" x1="201.96" y1="160.43" x2="200.83" y2="161.57"/>
		<path class="st26" d="M200.76,160.43h1.26c-0.16-0.17-0.38-0.28-0.63-0.28S200.92,160.26,200.76,160.43z"/>
		<circle class="st25" cx="201.39" cy="161" r="0.28"/>
		<rect x="201.35" y="161" class="st6" width="0.09" height="0.28"/>
		<rect x="201.49" y="160.91" class="st6" width="0.19" height="0.19"/>
		<rect x="201.91" y="160.91" class="st6" width="0.09" height="0.19"/>
		<rect x="201.3" y="161.47" class="st6" width="0.19" height="0.09"/>
		<rect x="201.86" y="160.95" class="st6" width="0.05" height="0.09"/>
		
			<rect x="201.11" y="160.91" transform="matrix(-1 -4.813984e-11 4.813984e-11 -1 402.4068 322.0009)" class="st6" width="0.19" height="0.19"/>
		
			<rect x="200.78" y="160.91" transform="matrix(-1 -4.813984e-11 4.813984e-11 -1 401.6511 322.0009)" class="st6" width="0.09" height="0.19"/>
		
			<rect x="201.3" y="161.47" transform="matrix(-1 -4.332591e-11 4.332591e-11 -1 402.7847 323.0399)" class="st6" width="0.19" height="0.09"/>
		
			<rect x="200.87" y="160.95" transform="matrix(-1 -3.851198e-11 3.851198e-11 -1 401.7928 322.0009)" class="st6" width="0.05" height="0.09"/>
	</g>
	<g class="st27">
		<g>
			<rect x="272.26" y="178.65" class="st6" width="1.77" height="4.42"/>
			<g>
				<rect x="265.63" y="176.44" class="st7" width="1.11" height="8.85"/>
				<rect x="265.63" y="176.44" class="st8" width="1.11" height="8.85"/>
			</g>
			<rect x="266.73" y="168.04" class="st9" width="1.77" height="25.65"/>
			<rect x="267.4" y="168.04" class="st6" width="0.44" height="25.65"/>
			<rect x="268.5" y="176.44" class="st10" width="1.11" height="8.85"/>
			<polygon class="st11" points="271.38,182.19 269.61,183.08 269.61,178.65 271.38,179.54 			"/>
			<rect x="269.61" y="180.2" class="st6" width="0.88" height="1.33"/>
			<polygon class="st10" points="272.71,179.54 271.38,179.54 271.38,182.19 272.71,182.19 275.8,183.52 275.8,178.21 			"/>
			<line class="st10" x1="272.71" y1="179.54" x2="272.71" y2="182.19"/>
			<g>
				<rect x="271.93" y="180.2" class="st6" width="0.66" height="0.44"/>
				<rect x="271.93" y="181.09" class="st6" width="0.66" height="0.44"/>
			</g>
			<rect x="273.59" y="180.42" class="st6" width="0.88" height="0.88"/>
			<rect x="273.37" y="179.32" class="st6" width="0.44" height="0.66"/>
			<rect x="273.37" y="181.75" class="st6" width="0.44" height="0.66"/>
		</g>
		<g>
			
				<rect x="282.88" y="178.65" transform="matrix(-1 -4.523993e-11 4.523993e-11 -1 567.5258 361.7282)" class="st6" width="1.77" height="4.42"/>
			<g>
				
					<rect x="290.18" y="176.44" transform="matrix(-1 -4.523993e-11 4.523993e-11 -1 581.4576 361.7282)" class="st7" width="1.11" height="8.85"/>
				
					<rect x="290.18" y="176.44" transform="matrix(-1 -4.523993e-11 4.523993e-11 -1 581.4576 361.7282)" class="st8" width="1.11" height="8.85"/>
			</g>
			
				<rect x="288.41" y="168.04" transform="matrix(-1 -4.523993e-11 4.523993e-11 -1 578.5828 361.7282)" class="st9" width="1.77" height="25.65"/>
			
				<rect x="289.07" y="168.04" transform="matrix(-1 -4.112722e-11 4.112722e-11 -1 578.5828 361.7282)" class="st6" width="0.44" height="25.65"/>
			
				<rect x="287.3" y="176.44" transform="matrix(-1 -4.195012e-11 4.195012e-11 -1 575.708 361.7282)" class="st10" width="1.11" height="8.85"/>
			<polygon class="st11" points="285.53,182.19 287.3,183.08 287.3,178.65 285.53,179.54 			"/>
			
				<rect x="286.42" y="180.2" transform="matrix(-1 -4.523993e-11 4.523993e-11 -1 573.7177 361.7282)" class="st6" width="0.88" height="1.33"/>
			<polygon class="st10" points="284.21,179.54 285.53,179.54 285.53,182.19 284.21,182.19 281.11,183.52 281.11,178.21 			"/>
			<line class="st10" x1="284.21" y1="179.54" x2="284.21" y2="182.19"/>
			<g>
				
					<rect x="284.32" y="180.2" transform="matrix(-1 -4.523993e-11 4.523993e-11 -1 569.2949 360.8436)" class="st6" width="0.66" height="0.44"/>
				
					<rect x="284.32" y="181.09" transform="matrix(-1 -4.249813e-11 4.249813e-11 -1 569.2949 362.6127)" class="st6" width="0.66" height="0.44"/>
			</g>
			
				<rect x="282.44" y="180.42" transform="matrix(-1 -4.523993e-11 4.523993e-11 -1 565.7566 361.7282)" class="st6" width="0.88" height="0.88"/>
			
				<rect x="283.1" y="179.32" transform="matrix(-1 -4.318380e-11 4.318380e-11 -1 566.6412 359.2956)" class="st6" width="0.44" height="0.66"/>
			
				<rect x="283.1" y="181.75" transform="matrix(-1 -4.318380e-11 4.318380e-11 -1 566.6412 364.1607)" class="st6" width="0.44" height="0.66"/>
		</g>
		<polygon class="st10" points="279.78,186.3 277.13,186.3 276.24,183.83 280.67,183.83 		"/>
		<rect x="277.79" y="185.63" class="st6" width="1.33" height="0.66"/>
		<rect x="274.92" y="183.39" class="st6" width="0.88" height="1.33"/>
		<rect x="281.11" y="183.39" class="st6" width="0.88" height="1.33"/>
		<circle class="st9" cx="278.46" cy="180.86" r="3.98"/>
		<line class="st9" x1="275.8" y1="178.21" x2="281.11" y2="183.52"/>
		<line class="st9" x1="281.11" y1="178.21" x2="275.8" y2="183.52"/>
		<path class="st11" d="M275.49,178.21h5.92c-0.73-0.81-1.78-1.33-2.96-1.33C277.28,176.88,276.22,177.4,275.49,178.21z"/>
		<circle class="st10" cx="278.46" cy="180.86" r="1.33"/>
		<rect x="278.23" y="180.86" class="st6" width="0.44" height="1.33"/>
		<rect x="278.9" y="180.42" class="st6" width="0.88" height="0.88"/>
		<rect x="280.89" y="180.42" class="st6" width="0.44" height="0.88"/>
		<rect x="278.01" y="183.08" class="st6" width="0.88" height="0.44"/>
		<rect x="280.67" y="180.64" class="st6" width="0.22" height="0.44"/>
		
			<rect x="277.13" y="180.42" transform="matrix(-1 -4.421187e-11 4.421187e-11 -1 555.1418 361.7282)" class="st6" width="0.88" height="0.88"/>
		
			<rect x="275.58" y="180.42" transform="matrix(-1 -4.935264e-11 4.935264e-11 -1 551.6035 361.7282)" class="st6" width="0.44" height="0.88"/>
		
			<rect x="278.01" y="183.08" transform="matrix(-1 -4.215573e-11 4.215573e-11 -1 556.9109 366.5933)" class="st6" width="0.88" height="0.44"/>
		
			<rect x="276.02" y="180.64" transform="matrix(-1 -4.112722e-11 4.112722e-11 -1 552.267 361.7282)" class="st6" width="0.22" height="0.44"/>
	</g>
	<g class="st28">
		<g>
			<rect x="316.98" y="195.49" class="st6" width="0.58" height="1.45"/>
			<g>
				<rect x="314.81" y="194.76" class="st7" width="0.36" height="2.9"/>
				<rect x="314.81" y="194.76" class="st18" width="0.36" height="2.9"/>
			</g>
			<rect x="315.17" y="192.01" class="st19" width="0.58" height="8.4"/>
			<rect x="315.39" y="192.01" class="st6" width="0.14" height="8.4"/>
			<rect x="315.75" y="194.76" class="st20" width="0.36" height="2.9"/>
			<polygon class="st21" points="316.69,196.64 316.11,196.93 316.11,195.49 316.69,195.78 			"/>
			<rect x="316.11" y="195.99" class="st6" width="0.29" height="0.43"/>
			<polygon class="st20" points="317.13,195.78 316.69,195.78 316.69,196.64 317.13,196.64 318.14,197.08 318.14,195.34 			"/>
			<line class="st20" x1="317.13" y1="195.78" x2="317.13" y2="196.64"/>
			<g>
				<rect x="316.87" y="195.99" class="st6" width="0.22" height="0.14"/>
				<rect x="316.87" y="196.28" class="st6" width="0.22" height="0.14"/>
			</g>
			<rect x="317.41" y="196.06" class="st6" width="0.29" height="0.29"/>
			<rect x="317.34" y="195.7" class="st6" width="0.14" height="0.22"/>
			<rect x="317.34" y="196.5" class="st6" width="0.14" height="0.22"/>
		</g>
		<g>
			
				<rect x="320.46" y="195.49" transform="matrix(-1 -4.394142e-11 4.394142e-11 -1 641.4943 392.4197)" class="st6" width="0.58" height="1.45"/>
			<g>
				
					<rect x="322.85" y="194.76" transform="matrix(-1 -4.268598e-11 4.268598e-11 -1 646.0582 392.4197)" class="st7" width="0.36" height="2.9"/>
				
					<rect x="322.85" y="194.76" transform="matrix(-1 -4.268598e-11 4.268598e-11 -1 646.0582 392.4197)" class="st18" width="0.36" height="2.9"/>
			</g>
			
				<rect x="322.27" y="192.01" transform="matrix(-1 -4.864921e-11 4.864921e-11 -1 645.1165 392.4197)" class="st19" width="0.58" height="8.4"/>
			
				<rect x="322.49" y="192.01" transform="matrix(-1 -3.766422e-11 3.766422e-11 -1 645.1165 392.4197)" class="st6" width="0.14" height="8.4"/>
			
				<rect x="321.91" y="194.76" transform="matrix(-1 -4.519686e-11 4.519686e-11 -1 644.1747 392.4197)" class="st20" width="0.36" height="2.9"/>
			<polygon class="st21" points="321.33,196.64 321.91,196.93 321.91,195.49 321.33,195.78 			"/>
			
				<rect x="321.62" y="195.99" transform="matrix(-1 -4.394142e-11 4.394142e-11 -1 643.5227 392.4197)" class="st6" width="0.29" height="0.43"/>
			<polygon class="st20" points="320.89,195.78 321.33,195.78 321.33,196.64 320.89,196.64 319.88,197.08 319.88,195.34 			"/>
			<line class="st20" x1="320.89" y1="195.78" x2="320.89" y2="196.64"/>
			<g>
				
					<rect x="320.93" y="195.99" transform="matrix(-1 -5.021862e-11 5.021862e-11 -1 642.0739 392.1299)" class="st6" width="0.22" height="0.14"/>
				
					<rect x="320.93" y="196.28" transform="matrix(-1 -4.184887e-11 4.184887e-11 -1 642.0739 392.7095)" class="st6" width="0.22" height="0.14"/>
			</g>
			
				<rect x="320.31" y="196.06" transform="matrix(-1 -4.394142e-11 4.394142e-11 -1 640.9148 392.4197)" class="st6" width="0.29" height="0.29"/>
			
				<rect x="320.53" y="195.7" transform="matrix(-1 -3.766422e-11 3.766422e-11 -1 641.2045 391.6228)" class="st6" width="0.14" height="0.22"/>
			
				<rect x="320.53" y="196.5" transform="matrix(-1 -5.649582e-11 5.649582e-11 -1 641.2045 393.2166)" class="st6" width="0.14" height="0.22"/>
		</g>
		<polygon class="st20" points="319.44,197.99 318.57,197.99 318.28,197.18 319.73,197.18 		"/>
		<rect x="318.79" y="197.77" class="st6" width="0.43" height="0.22"/>
		<rect x="317.85" y="197.04" class="st6" width="0.29" height="0.43"/>
		<rect x="319.88" y="197.04" class="st6" width="0.29" height="0.43"/>
		<circle class="st19" cx="319.01" cy="196.21" r="1.3"/>
		<line class="st19" x1="318.14" y1="195.34" x2="319.88" y2="197.08"/>
		<line class="st19" x1="319.88" y1="195.34" x2="318.14" y2="197.08"/>
		<path class="st21" d="M318.04,195.34h1.94c-0.24-0.27-0.58-0.43-0.97-0.43C318.62,194.91,318.28,195.07,318.04,195.34z"/>
		<circle class="st20" cx="319.01" cy="196.21" r="0.43"/>
		<rect x="318.94" y="196.21" class="st6" width="0.14" height="0.43"/>
		<rect x="319.15" y="196.06" class="st6" width="0.29" height="0.29"/>
		<rect x="319.81" y="196.06" class="st6" width="0.14" height="0.29"/>
		<rect x="318.86" y="196.93" class="st6" width="0.29" height="0.14"/>
		<rect x="319.73" y="196.14" class="st6" width="0.07" height="0.14"/>
		
			<rect x="318.57" y="196.06" transform="matrix(-1 -5.021862e-11 5.021862e-11 -1 637.4375 392.4197)" class="st6" width="0.29" height="0.29"/>
		
			<rect x="318.07" y="196.06" transform="matrix(-1 -5.021862e-11 5.021862e-11 -1 636.2784 392.4197)" class="st6" width="0.14" height="0.29"/>
		
			<rect x="318.86" y="196.93" transform="matrix(-1 -3.452539e-11 3.452539e-11 -1 638.017 394.0134)" class="st6" width="0.29" height="0.14"/>
		
			<rect x="318.21" y="196.14" transform="matrix(-1 -3.766422e-11 3.766422e-11 -1 636.4957 392.4197)" class="st6" width="0.07" height="0.14"/>
	</g>
</g>
<g id="Layer_7">
	<radialGradient id="SVGID_1_" cx="200" cy="200" r="200" fx="142.8706" fy="211.256" gradientUnits="userSpaceOnUse">
		<stop  offset="0" style="stop-color:#FFFFFF;stop-opacity:0.5"/>
		<stop  offset="0.5615" style="stop-color:#FEEBE0"/>
		<stop  offset="0.6564" style="stop-color:#FAB795"/>
		<stop  offset="0.7514" style="stop-color:#F9AC87"/>
		<stop  offset="0.8575" style="stop-color:#F8A37C"/>
		<stop  offset="0.9358" style="stop-color:#F7986E"/>
		<stop  offset="1" style="stop-color:#F68D61"/>
	</radialGradient>
	<rect class="st29" width="400" height="400"/>
</g>
<g id="Black_Margin">
	<rect y="-0.08" width="400" height="101.03"/>
	<rect y="290" width="400" height="110"/>
</g>
</svg>
