<svg xmlns="http://www.w3.org/2000/svg" viewBox="0 0 504 504"><defs><style>.cls-1{fill:#211616;}.cls-2{fill:#ff850b;}.cls-3{fill:#ffa910;}.cls-4,.cls-5{fill:none;stroke:#fff;stroke-miterlimit:10;stroke-width:4px;}.cls-4{opacity:0.85;}</style></defs><title>tuplode</title><g id="bg"><rect class="cls-1" width="504" height="504"/></g><g id="tube"><circle class="cls-2" cx="50.5" cy="124.5" r="10.5"/><circle class="cls-3" cx="93.5" cy="87" r="16.5"/><circle class="cls-3" cx="99.5" cy="161" r="9.5"/><circle class="cls-2" cx="392.5" cy="105" r="10.5"/><circle class="cls-2" cx="437" cy="157.5" r="17"/><circle class="cls-3" cx="462" cy="77" r="8"/><polygon class="cls-3" points="237.5 101.5 248.5 217.5 258.5 217.5 271.5 101.5 237.5 101.5"/><circle class="cls-3" cx="271.5" cy="219.5" r="11"/><path class="cls-3" d="M283.35,216.64c0-.26-61.85,0-61.85,0v213c0,22,13.88,39.88,31,39.88h0c17.12,0,31-17.86,31-39.88v-213Z" transform="translate(2 2)"/><path class="cls-2" d="M283.35,297.52c0-.18,0-.36,0-.54,0-6.89-6.38-12.48-14.26-12.48S255,290,254.87,296.82a13.63,13.63,0,0,0-5.14-1.42c-.85-3.74-4.61-6.56-9.13-6.56s-8.37,2.9-9.14,6.71a10.25,10.25,0,0,0-2-.2,10,10,0,0,0-6.29,2.17H221.5V442.37c0,15,13.88,27.13,31,27.13h0c17.12,0,31-12.14,31-27.13V297.52Z" transform="translate(2 2)"/><circle class="cls-2" cx="250.5" cy="292.5" r="12"/><circle class="cls-2" cx="279" cy="295" r="5.5"/><circle class="cls-2" cx="268.5" cy="273.5" r="5"/><circle class="cls-2" cx="269.5" cy="234.5" r="10"/><circle class="cls-2" cx="238" cy="251" r="3.5"/><circle class="cls-2" cx="276.5" cy="290.5" r="6"/><circle class="cls-2" cx="254" cy="255" r="3.5"/><circle class="cls-2" cx="245" cy="269" r="3.5"/><circle class="cls-2" cx="231.5" cy="281.5" r="3"/><circle class="cls-2" cx="232" cy="295" r="5.5"/><circle class="cls-2" cx="267" cy="254" r="1.5"/><circle class="cls-3" cx="257" cy="306" r="3.5"/><circle class="cls-3" cx="268.5" cy="335.5" r="10"/><circle class="cls-3" cx="264" cy="367" r="4.5"/><circle class="cls-3" cx="232.5" cy="321.5" r="7"/><circle class="cls-3" cx="245" cy="344" r="3.5"/><circle class="cls-2" cx="178.5" cy="75.5" r="32"/><circle class="cls-2" cx="227.5" cy="64.5" r="34"/><circle class="cls-2" cx="257.5" cy="77.5" r="33"/><circle class="cls-2" cx="298" cy="74" r="28.5"/><circle class="cls-2" cx="302.5" cy="87.5" r="31"/><circle class="cls-2" cx="333" cy="77" r="24.5"/><circle class="cls-3" cx="254" cy="219" r="6.5"/><circle class="cls-3" cx="232" cy="218" r="9.5"/><circle class="cls-3" cx="261" cy="217" r="4.5"/><circle class="cls-3" cx="262.5" cy="213.5" r="4"/><path class="cls-3" d="M283.47,225.85a12.87,12.87,0,0,1-3,.47,13,13,0,1,1-1-26,12.75,12.75,0,0,1,4,.47Z" transform="translate(2 2)"/><circle class="cls-3" cx="250" cy="218" r="15.5"/><circle class="cls-3" cx="276.5" cy="209.5" r="11"/><circle class="cls-2" cx="245.5" cy="229.5" r="5"/><circle class="cls-3" cx="241.5" cy="101.5" r="24"/><circle class="cls-3" cx="208" cy="95" r="28.5"/><circle class="cls-3" cx="287.5" cy="94" r="22.5"/><circle class="cls-3" cx="275" cy="103" r="18.5"/><circle class="cls-3" cx="302" cy="83" r="22.5"/><circle class="cls-3" cx="305" cy="101" r="22.5"/><circle class="cls-3" cx="180.5" cy="88.5" r="21"/><circle class="cls-3" cx="236.5" cy="62.5" r="18"/><circle class="cls-3" cx="214.5" cy="72.5" r="14"/><circle class="cls-3" cx="264.5" cy="76.5" r="21"/><circle class="cls-3" cx="320" cy="91" r="12.5"/><circle class="cls-3" cx="320" cy="103" r="12.5"/><rect class="cls-4" x="215.09" y="145" width="79" height="16" rx="8"/><path class="cls-5" d="M220.09,438.5V159h65V438.5C285.09,482.5,220.09,482.5,220.09,438.5Z" transform="translate(2 2)"/><rect class="cls-5" x="232.75" y="170.5" width="1" height="84" rx="0.5"/><rect class="cls-5" x="232.75" y="269.5" width="1" height="170" rx="0.5"/></g></svg>
