<?xml version="1.0" encoding="utf-8"?>
<!-- Generator: Adobe Illustrator 23.0.6, SVG Export Plug-In . SVG Version: 6.00 Build 0)  -->
<svg version="1.1" xmlns="http://www.w3.org/2000/svg" xmlns:xlink="http://www.w3.org/1999/xlink" x="0px" y="0px"
	 viewBox="0 0 600 600" style="enable-background:new 0 0 600 600;" xml:space="preserve">
<style type="text/css">
	.st0{opacity:0.05;fill:#FFFFFF;stroke:#000000;stroke-miterlimit:10;}
	.st1{fill:#7EC5ED;}
	.st2{clip-path:url(#SVGID_2_);}
	.st3{fill:#F0F9FE;}
	.st4{fill:#D7EFF8;}
	.st5{clip-path:url(#SVGID_4_);}
	.st6{opacity:0.16;fill:#FFCF84;}
	.st7{fill:#FFCF84;}
	.st8{fill:#FFFFFF;}
	.st9{fill:#D86551;}
	.st10{clip-path:url(#SVGID_6_);fill:#664341;}
	.st11{fill:#664341;}
	.st12{clip-path:url(#SVGID_8_);fill:#664341;}
	.st13{fill:#F6C163;}
	.st14{fill:#F69179;}
	.st15{fill:#C25142;}
	.st16{fill:#EA7B64;}
	.st17{clip-path:url(#SVGID_10_);fill:#664341;}
	.st18{opacity:0.45;}
	.st19{fill:url(#SVGID_11_);}
	.st20{fill:none;}
</style>
<g id="background">
	<rect class="st0" width="600" height="600"/>
	<g>
		<path class="st1" d="M14.37,253.66c-0.86,150.81,135.19,208.88,297.77,212.63c163.43,0,275.96-44.96,275.96-152.68
			c0-41.21-34.67-64.63-71.46-66.5c-88.13,3.75-59.04,22.48-159.15,15.92c-95.8-3.43-108.67-110.53-227.6-110.53
			C70.85,152.5,14.37,194.65,14.37,253.66z"/>
		<g>
			<defs>
				<path id="SVGID_1_" d="M14.37,253.66c-0.86,150.81,135.19,208.88,297.77,212.63c163.43,0,275.96-44.96,275.96-152.68
					c0-41.21-34.67-64.63-71.46-66.5c-88.13,3.75-59.04,22.48-159.15,15.92c-95.8-3.43-108.67-110.53-227.6-110.53
					C70.85,152.5,14.37,194.65,14.37,253.66z"/>
			</defs>
			<clipPath id="SVGID_2_">
				<use xlink:href="#SVGID_1_"  style="overflow:visible;"/>
			</clipPath>
			<g class="st2">
				<ellipse class="st3" cx="36.05" cy="312.05" rx="27.95" ry="30.6"/>
				<ellipse class="st4" cx="78.32" cy="347.36" rx="22.82" ry="24.98"/>
				<ellipse class="st4" cx="91.38" cy="366.96" rx="16.26" ry="17.8"/>
				<ellipse class="st4" cx="111.09" cy="385.11" rx="16.26" ry="17.8"/>
				<ellipse class="st3" cx="84.18" cy="394.36" rx="20.47" ry="22.41"/>
				<ellipse class="st3" cx="28.92" cy="349.16" rx="20.82" ry="22.79"/>
				<ellipse class="st3" cx="107.32" cy="407.03" rx="20.02" ry="21.92"/>
				<ellipse class="st3" cx="133.91" cy="442.9" rx="32.77" ry="35.87"/>
				<ellipse class="st3" cx="407.97" cy="454.42" rx="19.97" ry="21.86"/>
				<ellipse class="st3" cx="451.24" cy="443.09" rx="30.32" ry="33.19"/>
				<ellipse class="st3" cx="579.39" cy="314.23" rx="35.08" ry="38.4"/>
				<ellipse class="st4" cx="500.18" cy="395.13" rx="22.25" ry="24.35"/>
				<ellipse class="st4" cx="534.89" cy="385.11" rx="24.24" ry="26.54"/>
				<ellipse class="st3" cx="540.03" cy="404.28" rx="22.53" ry="24.67"/>
				<ellipse class="st3" cx="569.12" cy="374.52" rx="24.81" ry="27.16"/>
				<ellipse class="st3" cx="502.25" cy="430.86" rx="26.65" ry="29.18"/>
				<ellipse class="st3" cx="63.72" cy="354.82" rx="27.67" ry="30.29"/>
			</g>
		</g>
	</g>
	<g>
		<path class="st1" d="M460.18,155.76c23.06,0,32.13,15.04,32.11,29.41c-0.03,19-23.32,43.64-78.08,43.61
			c-85.52,0.06-120.27-16.32-120.27-34.82c0-7.55,9.67-20.96,24.95-20.96c33.46,0,37.01,9.8,56.11,9.8
			C406.19,182.8,423.84,155.76,460.18,155.76z"/>
		<g>
			<defs>
				<path id="SVGID_3_" d="M460.18,155.76c23.06,0,32.13,15.04,32.11,29.41c-0.03,19-23.32,43.64-78.08,43.61
					c-85.52,0.06-120.27-16.32-120.27-34.82c0-7.55,9.67-20.96,24.95-20.96c33.46,0,37.01,9.8,56.11,9.8
					C406.19,182.8,423.84,155.76,460.18,155.76z"/>
			</defs>
			<clipPath id="SVGID_4_">
				<use xlink:href="#SVGID_3_"  style="overflow:visible;"/>
			</clipPath>
			<g class="st5">
				<circle class="st6" cx="494.11" cy="189.7" r="56"/>
				<circle class="st6" cx="494.11" cy="189.7" r="44"/>
				<circle class="st6" cx="494.11" cy="189.7" r="32"/>
				<circle class="st7" cx="494.11" cy="189.7" r="20"/>
			</g>
		</g>
		<path class="st8" d="M329.77,194.33c-0.71,0-1.37,0.22-1.95,0.5c-0.74-0.85-1.79-1.74-2.96-1.74c-1.37,0-2.59,1.22-3.32,2.17
			c-0.24-0.02-0.48-0.03-0.72-0.03c-2.77,0-5.02,1.09-5.02,1.09h17.9C333.7,196.32,331.94,194.33,329.77,194.33z"/>
		<path class="st8" d="M412.04,217.28c0.24-0.02,0.48-0.03,0.72-0.03c2.77,0,5.02,1.09,5.02,1.09h-17.9
			C404.06,213.34,408.31,213.43,412.04,217.28z"/>
	</g>
</g>
<g id="zeppelin">
	<g>
		<path class="st9" d="M463.25,291.68h-20v0c0-17.67,14.33-32,32-32h4c2.21,0,4,1.79,4,4v8
			C483.25,282.72,474.3,291.68,463.25,291.68z"/>
		<g>
			<defs>
				<path id="SVGID_5_" d="M463.25,291.68h-20v0c0-17.67,14.33-32,32-32h4c2.21,0,4,1.79,4,4v8
					C483.25,282.72,474.3,291.68,463.25,291.68z"/>
			</defs>
			<clipPath id="SVGID_6_">
				<use xlink:href="#SVGID_5_"  style="overflow:visible;"/>
			</clipPath>
			<rect x="475.25" y="259.68" class="st10" width="8" height="32"/>
		</g>
		<circle class="st11" cx="475.25" cy="271.68" r="4"/>
	</g>
	<g>
		<path class="st9" d="M463.25,295.68h-20v0c0,17.67,14.33,32,32,32h4c2.21,0,4-1.79,4-4v-8
			C483.25,304.63,474.3,295.68,463.25,295.68z"/>
		<g>
			<defs>
				<path id="SVGID_7_" d="M463.25,295.68h-20v0c0,17.67,14.33,32,32,32h4c2.21,0,4-1.79,4-4v-8
					C483.25,304.63,474.3,295.68,463.25,295.68z"/>
			</defs>
			<clipPath id="SVGID_8_">
				<use xlink:href="#SVGID_7_"  style="overflow:visible;"/>
			</clipPath>
			<rect x="475.25" y="295.68" class="st12" width="8" height="32"/>
		</g>
		<circle class="st11" cx="475.25" cy="315.68" r="4"/>
	</g>
	<g>
		<path class="st11" d="M279.25,359.68h-32c-4.42,0-8-3.58-8-8v-4h48v4C287.25,356.09,283.67,359.68,279.25,359.68z"/>
		<g>
			<rect x="248.25" y="353.68" class="st13" width="2" height="2"/>
			<rect x="252.25" y="353.68" class="st13" width="2" height="2"/>
			<rect x="256.25" y="353.68" class="st13" width="2" height="2"/>
			<rect x="260.25" y="353.68" class="st13" width="2" height="2"/>
			<rect x="264.25" y="353.68" class="st13" width="2" height="2"/>
			<rect x="268.25" y="353.68" class="st13" width="2" height="2"/>
			<rect x="272.25" y="353.68" class="st13" width="2" height="2"/>
			<rect x="276.25" y="353.68" class="st13" width="2" height="2"/>
		</g>
	</g>
	<path class="st14" d="M495.25,293.68c0,15.72-121.54,56-232,56s-168-25.07-168-56s57.54-56,168-56S495.25,277.45,495.25,293.68z"/>
	<path class="st15" d="M495.25,293.68c0,15.72-121.54,56-232,56s-168-25.07-168-56H495.25z"/>
	<path class="st16" d="M495.25,293.68c0,15.72-121.54,40-232,40s-168-9.07-168-40s57.54-40,168-40S495.25,277.45,495.25,293.68z"/>
	<path class="st16" d="M495.25,293.68c0,15.72-121.54,40-232,40s-168-9.07-168-40"/>
	<path class="st16" d="M263.25,253.68"/>
	<path class="st16" d="M95.25,293.68"/>
	<path class="st9" d="M495.25,293.68c0,15.72-121.54,40-232,40s-168-9.07-168-40H495.25z"/>
	<g>
		<defs>
			<path id="SVGID_9_" d="M495.25,293.68c0,15.72-121.54,56-232,56s-168-25.07-168-56s57.54-56,168-56S495.25,277.45,495.25,293.68z
				"/>
		</defs>
		<clipPath id="SVGID_10_">
			<use xlink:href="#SVGID_9_"  style="overflow:visible;"/>
		</clipPath>
		<rect x="95.25" y="237.68" class="st17" width="8" height="112"/>
	</g>
	<polygon class="st11" points="97.25,295.68 85.25,294.68 85.25,292.68 97.25,291.68 	"/>
	<path class="st11" d="M479.25,293.68c0,2.21-12.95,4-24,4s-16-1.79-16-4s4.95-4,16-4S479.25,291.47,479.25,293.68z"/>
	<g>
		<ellipse class="st11" cx="433.9" cy="270.11" rx="2" ry="1"/>
		<ellipse class="st11" cx="433.9" cy="293.68" rx="2" ry="1"/>
		<ellipse class="st11" cx="433.9" cy="317.24" rx="2" ry="1"/>
		<ellipse class="st11" cx="350.97" cy="258.07" rx="2" ry="1"/>
		<ellipse class="st11" cx="350.97" cy="293.68" rx="2" ry="1"/>
		<ellipse class="st11" cx="350.97" cy="329.15" rx="2" ry="1"/>
		<ellipse class="st11" cx="176.37" cy="257.51" rx="1.96" ry="0.98"/>
		<ellipse class="st11" cx="176.37" cy="293.71" rx="1.96" ry="0.98"/>
		<ellipse class="st11" cx="176.37" cy="330.41" rx="1.96" ry="0.98"/>
		<ellipse class="st11" cx="269.25" cy="253.68" rx="2" ry="1"/>
		<ellipse class="st11" cx="269.25" cy="293.68" rx="2" ry="1"/>
		<ellipse class="st11" cx="267.3" cy="332.88" rx="1.96" ry="0.98"/>
	</g>
	<path class="st11" d="M319.25,331.68c0,2.21-4.69,4-8,4s-4-1.79-4-4s0.69-4,4-4S319.25,329.47,319.25,331.68z"/>
	<path class="st8" d="M344,287.81c3.48,0,6.73,1.05,9.55,2.46c3.62-4.15,8.77-8.52,14.52-8.52c6.73,0,12.67,6,16.25,10.61
		c1.16-0.08,2.34-0.13,3.55-0.13c13.59,0,24.61,5.36,24.61,5.36h-87.74C324.74,297.6,333.37,287.81,344,287.81z"/>
	<path class="st8" d="M239.25,425.34"/>
	<path class="st8" d="M259.45,408.94c-4.26,0-8.21,0.41-11.47,1.11c-1.76-2.99-5.01-5-8.73-5c-4.6,0-8.48,3.07-9.72,7.27
		c-5.11,0.04-9.21,1.31-9.21,2.87h8.79h10.14h10.14h30.25C279.65,411.74,270.61,408.94,259.45,408.94z"/>
	<path class="st8" d="M77.81,218.49c-1.24-2.5-3.62-4.2-6.36-4.2c-2.66,0-4.98,1.6-6.24,3.98c-9.74,0.41-17.05,2.1-17.05,4.13h16.03
		h14.53h12.54C91.25,220.63,85.69,219.12,77.81,218.49z"/>
</g>
<g id="gradient">
	<g class="st18">
		<g>
			<linearGradient id="SVGID_11_" gradientUnits="userSpaceOnUse" x1="14.3693" y1="309.3943" x2="588.0986" y2="309.3943">
				<stop  offset="0" style="stop-color:#662F90"/>
				<stop  offset="0.0754" style="stop-color:#7A4289"/>
				<stop  offset="0.1997" style="stop-color:#975D80"/>
				<stop  offset="0.3275" style="stop-color:#B37474"/>
				<stop  offset="0.4563" style="stop-color:#CB8867"/>
				<stop  offset="0.5867" style="stop-color:#DF9858"/>
				<stop  offset="0.7192" style="stop-color:#EDA54A"/>
				<stop  offset="0.8552" style="stop-color:#F7AD3F"/>
				<stop  offset="1" style="stop-color:#FBB03A"/>
			</linearGradient>
			<path class="st19" d="M516.64,247.11c-54.99,2.34-64.34,10.51-87.92,14.73c-38.34-11.02-88.8-20.78-139.14-23.45
				c-44.68-32.6-75.8-85.89-159.7-85.89c-59.04,0-115.52,42.15-115.51,101.16c-0.86,150.81,135.19,208.88,297.77,212.63
				c163.43,0,275.96-44.96,275.96-152.68C588.1,272.4,553.43,248.98,516.64,247.11z M414.21,228.77
				c54.76,0.03,78.06-24.61,78.08-43.61c0.02-14.37-9.05-29.41-32.11-29.41c-36.34,0-53.99,27.04-85.18,27.04
				c-19.1,0-22.65-9.8-56.11-9.8c-15.27,0-24.95,13.41-24.95,20.96C293.94,212.46,328.69,228.83,414.21,228.77z"/>
		</g>
	</g>
	<path class="st20" d="M460.18,155.76c23.06,0,32.13,15.04,32.11,29.41c-0.03,19-23.32,43.64-78.08,43.61
		c-85.52,0.06-120.27-16.32-120.27-34.82c0-7.55,9.67-20.96,24.95-20.96c33.46,0,37.01,9.8,56.11,9.8
		C406.19,182.8,423.84,155.76,460.18,155.76z"/>
</g>
<g id="texture">
</g>
</svg>
