<?xml version="1.0" encoding="utf-8"?>
<!-- Generator: Adobe Illustrator 23.0.3, SVG Export Plug-In . SVG Version: 6.00 Build 0)  -->
<svg version="1.1" id="Layer_1" xmlns="http://www.w3.org/2000/svg" xmlns:xlink="http://www.w3.org/1999/xlink" x="0px" y="0px"
	 viewBox="0 0 480 480" style="enable-background:new 0 0 480 480;" xml:space="preserve">
<style type="text/css">
	.st0{opacity:0.5;fill:none;stroke:#FFFFFF;stroke-width:30;stroke-miterlimit:10;}
</style>
<polygon class="st0" points="240.5,0 240.5,119.69 299.72,119.69 299.72,480 419.51,480 419.51,119.69 480,119.69 480,0 "/>
<polygon class="st0" points="0,0 0,119.69 120.25,119.69 120.25,359.8 59.61,359.8 59.61,299.84 -0.34,299.84 -0.34,359.8 0,359.8 
	0,480 120.25,480 240.5,480 240.5,119.69 240.5,0 "/>
<polygon class="st0" points="0,119.69 0,299.9 59.61,299.9 59.61,359.8 120.25,359.8 120.25,299.9 120.25,299.16 120.25,119.69 "/>
<rect x="240.5" y="119.69" class="st0" width="59.22" height="360.31"/>
<rect x="419.51" y="119.69" class="st0" width="60.49" height="360.31"/>
</svg>
