<?xml version="1.0" encoding="utf-8"?>
<!-- Generator: Adobe Illustrator 23.0.3, SVG Export Plug-In . SVG Version: 6.00 Build 0)  -->
<svg version="1.1" id="Layer_1" xmlns="http://www.w3.org/2000/svg" xmlns:xlink="http://www.w3.org/1999/xlink" x="0px" y="0px"
	 viewBox="0 0 480 480" style="enable-background:new 0 0 480 480;" xml:space="preserve">
<style type="text/css">
	.st0{stroke:#FFFFFF;stroke-width:30;stroke-miterlimit:10;}
</style>
<g>
	<polygon class="st0" points="240.58,32.57 240.58,136.02 291.76,136.02 291.76,447.43 395.29,447.43 395.29,136.02 447.58,136.02 
		447.58,32.57 	"/>
	<polygon class="st0" points="32.72,32.57 32.72,136.02 136.65,136.02 136.65,343.54 84.24,343.54 84.24,291.72 32.42,291.72 
		32.42,343.54 32.72,343.54 32.72,447.43 136.65,447.43 240.58,447.43 240.58,136.02 240.58,32.57 	"/>
	<polygon class="st0" points="32.72,136.02 32.72,291.77 84.24,291.77 84.24,343.54 136.65,343.54 136.65,291.77 136.65,291.13 
		136.65,136.02 	"/>
	<rect x="240.58" y="136.02" class="st0" width="51.19" height="311.41"/>
	<rect x="395.29" y="136.02" class="st0" width="52.28" height="311.41"/>
</g>
</svg>

