<?xml version="1.0" encoding="utf-8"?>
<!-- Generator: Adobe Illustrator 19.2.1, SVG Export Plug-In . SVG Version: 6.00 Build 0)  -->
<svg version="1.1" id="Layer_1" xmlns="http://www.w3.org/2000/svg" xmlns:xlink="http://www.w3.org/1999/xlink" x="0px" y="0px"
	 viewBox="0 0 363.9 237.1" style="enable-background:new 0 0 363.9 237.1;" xml:space="preserve">
<title>logo</title>
<g id="Layer_1-2">
	<path d="M33.8,12.1c-8.9,0-17.7,0.1-26.6,0.1C4.8,8.1,2.4,4.1,0,0h77.6v12H48.1v97.5H33.8V12.1z"/>
	<path d="M325.8,175c0.8,1.2,5.8,9.3,7.2,12h19.1v38h-55.4v-85.5H345l7.2-12h-69.6V237h81.3v-62H325.8z"/>
	<line x1="334.6" y1="175" x2="363.9" y2="175"/>
	<line x1="345" y1="139.5" x2="296.7" y2="139.5"/>
	<line x1="0" y1="0" x2="77.6" y2="0"/>
	<path d="M258.2,0v45.8c0,17.1,0.3,30.4,1.6,45l-0.3,0.2c-5.7-12.3-12.3-24.2-19.7-35.6L204.7,0h-15.4c-0.2,33.3-0.4,66.7-0.6,100
		c-12-33.3-24-66.7-35.9-100h-17.1c-12,33.2-24,66.4-36,99.7C99.6,66.5,99.5,33.2,99.4,0H85.3v109.5h27.8l30.6-97l31.4,97h27.5V62.7
		c0-18.2-0.3-31.4-1.1-45.2l0.5-0.2c5.5,11.9,12.8,24.4,20.5,36.6l34.8,55.6h14.3V0H258.2z"/>
	<path d="M258.2,127.5v45.8c0,17.1,0.3,30.4,1.6,45l-0.3,0.2c-5.7-12.3-12.3-24.2-19.7-35.6l-35.1-55.4h-15.4
		c-0.2,33.3-0.4,66.7-0.6,100c-12-33.3-24-66.7-35.9-100h-17.1c-12,33.2-24,66.4-36,99.7c-0.1-33.2-0.2-66.5-0.3-99.7H85.3V237h27.8
		l30.6-97l31.4,97h27.5v-46.8c0-18.2-0.3-31.4-1.1-45.2l0.5-0.2c5.5,11.9,12.8,24.4,20.5,36.6l34.8,55.6h14.3V127.5H258.2z"/>
	<path d="M20.3,127.5v11.9h38.4v85.8c-17.7,0-35.4-0.1-53.1-0.1c2.4,3.9,4.8,7.8,7.2,11.8c20,0.1,40.1,0.1,60.1,0.2v-97.7
		c0-4,0.1-7.9,0.1-11.9C55.4,127.4,37.9,127.5,20.3,127.5z"/>
</g>
</svg>
