<?xml version="1.0" encoding="utf-8"?>
<!-- Generator: Adobe Illustrator 19.2.1, SVG Export Plug-In . SVG Version: 6.00 Build 0)  -->
<svg version="1.1" id="Layer_1" xmlns="http://www.w3.org/2000/svg" xmlns:xlink="http://www.w3.org/1999/xlink" x="0px" y="0px"
	 viewBox="0 0 420.2 291" style="enable-background:new 0 0 420.2 291;" xml:space="preserve">
<style type="text/css">
	.st0{fill:#FFFFFF;}
</style>
<g id="Layer_2">
</g>
<g id="Layer_1_1_">
	<path class="st0" d="M62.4,38.1c-8.9,0-17.7,0.1-26.6,0.1c-2.4-4.1-4.8-8.1-7.2-12.2c25.9,0,51.7,0,77.6,0c0,4,0,8,0,12
		c-9.8,0-19.7,0-29.5,0v97.5H62.4V38.1z"/>
	<path class="st0" d="M354.4,201c0.8,1.2,5.8,9.3,7.2,12c2.9,0,15.6,0,19.1,0v38h-55.4v-85.5c0,0,41.1,0,48.3,0c2.4-4,4.8-8,7.2-12
		c-18.5,0-69.6,0-69.6,0V263h81.3l0,0v-62l0,0C392.5,201,363.2,201,354.4,201z"/>
	<line class="st0" x1="363.2" y1="201" x2="392.5" y2="201"/>
	<line class="st0" x1="373.6" y1="165.5" x2="325.3" y2="165.5"/>
	<line class="st0" x1="28.6" y1="26" x2="106.2" y2="26"/>
	<path class="st0" d="M286.8,26v45.8c0,17.1,0.3,30.4,1.6,45l-0.3,0.2c-5.2-11.2-11.5-22.8-19.7-35.6L233.3,26h-15.4
		c-0.2,33.3-0.4,66.7-0.6,100c-12-33.3-23.9-66.7-35.9-100h-17.1c-12,33.2-24,66.5-36,99.7c-0.1-33.2-0.2-66.5-0.3-99.7h-14.1v109.5
		h13.2h0.9h13.7l30.6-97l31.4,97h14.2l0,0h13.3V88.7c0-18.2-0.3-31.4-1.1-45.2l0.5-0.2c5.5,11.9,12.8,24.4,20.5,36.6l34.8,55.6h14.3
		V26H286.8z"/>
	<path class="st0" d="M286.8,153.5v45.8c0,17.1,0.3,30.4,1.6,45l-0.3,0.2c-5.2-11.2-11.5-22.8-19.7-35.6l-35.1-55.4h-15.4
		c-0.2,33.3-0.4,66.7-0.6,100c-12-33.3-23.9-66.7-35.9-100h-17.1c-12,33.2-24,66.5-36,99.7c-0.1-33.2-0.2-66.5-0.3-99.7h-14.1V263
		h13.2h0.9h13.7l30.6-97l31.4,97h14.2l0,0h13.3v-46.8c0-18.2-0.3-31.4-1.1-45.2l0.5-0.2c5.5,11.9,12.8,24.4,20.5,36.6l34.8,55.6
		h14.3V153.5H286.8z"/>
	<path class="st0" d="M48.9,153.5v11.9h38.4v85.8c-17.7,0-35.4-0.1-53.1-0.1c2.4,3.9,4.8,7.8,7.2,11.8c20,0.1,40.1,0.1,60.1,0.2
		v-97.7c0-4,0.1-7.9,0.1-11.9C84,153.4,66.5,153.5,48.9,153.5z"/>
</g>
</svg>
