<svg id="Layer_1" data-name="Layer 1" xmlns="http://www.w3.org/2000/svg" viewBox="0 0 363.9 237.1"><defs><style>.cls-1{fill:#fff;}.cls-2{fill:none;}</style></defs><title>logo</title><g id="Layer_1-2" data-name="Layer 1"><path class="cls-1" d="M62.4,38.1c-8.9,0-17.7.1-26.6,0.1C33.4,34.1,31,30.1,28.6,26h77.6V38H76.7v97.5H62.4V38.1Z" transform="translate(-28.6 -26)"/><path class="cls-1" d="M354.4,201c0.8,1.2,5.8,9.3,7.2,12h19.1v38H325.3V165.5h48.3l7.2-12H311.2V263h81.3V201H354.4Z" transform="translate(-28.6 -26)"/><line class="cls-2" x1="334.6" y1="175" x2="363.9" y2="175"/><line class="cls-2" x1="345" y1="139.5" x2="296.7" y2="139.5"/><line class="cls-2" x2="77.6"/><path class="cls-1" d="M286.8,26V71.8c0,17.1.3,30.4,1.6,45l-0.3.2a297.77,297.77,0,0,0-19.7-35.6L233.3,26H217.9c-0.2,33.3-.4,66.7-0.6,100q-18-50-35.9-100H164.3q-18,49.8-36,99.7c-0.1-33.2-.2-66.5-0.3-99.7H113.9V135.5h27.8l30.6-97,31.4,97h27.5V88.7c0-18.2-.3-31.4-1.1-45.2l0.5-.2c5.5,11.9,12.8,24.4,20.5,36.6l34.8,55.6h14.3V26H286.8Z" transform="translate(-28.6 -26)"/><path class="cls-1" d="M286.8,153.5v45.8c0,17.1.3,30.4,1.6,45l-0.3.2a297.77,297.77,0,0,0-19.7-35.6l-35.1-55.4H217.9c-0.2,33.3-.4,66.7-0.6,100q-18-50-35.9-100H164.3q-18,49.8-36,99.7c-0.1-33.2-.2-66.5-0.3-99.7H113.9V263h27.8l30.6-97,31.4,97h27.5V216.2c0-18.2-.3-31.4-1.1-45.2l0.5-.2c5.5,11.9,12.8,24.4,20.5,36.6L285.9,263h14.3V153.5H286.8Z" transform="translate(-28.6 -26)"/><path class="cls-1" d="M48.9,153.5v11.9H87.3v85.8c-17.7,0-35.4-.1-53.1-0.1,2.4,3.9,4.8,7.8,7.2,11.8,20,0.1,40.1.1,60.1,0.2V165.4c0-4,.1-7.9.1-11.9C84,153.4,66.5,153.5,48.9,153.5Z" transform="translate(-28.6 -26)"/></g></svg>