<svg id="Layer_1" data-name="Layer 1" xmlns="http://www.w3.org/2000/svg" viewBox="0 0 30.5 60.92"><defs><style>.cls-1{isolation:isolate;}.cls-2{fill:#fff;}</style></defs><title>name</title><g class="cls-1"><path class="cls-2" d="M0.34,9.13c-0.1,0-.1,0-0.1-0.1a0.42,0.42,0,0,1,.3-0.4,3.56,3.56,0,0,1,1.5-1c0.8-.4,1.7-0.1,2.6.7a2.51,2.51,0,0,1,1.2,2.2c0,0.6-.2.9-0.7,0.8a18.68,18.68,0,0,1-1.8-.7l-0.8-.4-1.4-.7A2.66,2.66,0,0,1,.34,9.13Zm3.5,10a13.52,13.52,0,0,0,2.7-2.9c0.5-.8.8-1.1,0.8-0.8a4.51,4.51,0,0,1-.7,2.3c-0.6,1.4-.9,2.3-0.7,2.9s0.4,1,.7,1.8a1.75,1.75,0,0,1-.4,1.9,1.35,1.35,0,0,1-1,.5c-0.2,0-.3,0-0.3-0.1a5,5,0,0,1-1.4-2.2c-0.2-.5-0.4-1-0.7-1.8-0.2-.5-0.3-0.8-0.4-1-0.2-.5-0.1-0.8.1-0.8A3.92,3.92,0,0,1,3.84,19.13Zm4.1-16.2A11.15,11.15,0,0,0,6.14.73c-0.1-.2,0-0.3.4-0.4h0.1a6.62,6.62,0,0,1,1.5-.1,2.14,2.14,0,0,1,1.6,1.2,3.2,3.2,0,0,1,.7,2.2c-0.2.7-.4,1.1-0.7,1.1S8.94,4.13,7.94,2.93Zm20.7,13.7a2.68,2.68,0,0,1,1.1,1.6,0.76,0.76,0,0,1-.1.4c-0.2.5-.4,0.7-0.5,0.5a3.05,3.05,0,0,0-1.6-.8,11.72,11.72,0,0,0-4.4-.1,41.21,41.21,0,0,0-6.8,1.1c-1.5.3-2.9,0.6-4.4,1a0.37,0.37,0,0,1-.3.1,2.11,2.11,0,0,1-1.1.4c-0.1.1-.4-0.3-0.8-1.1s-0.5-1.2-.4-1.2c0.3,0,2.1-.2,5.6-0.7q0.9-.15,2.7-0.3a8.21,8.21,0,0,1,1.8-.3,1.62,1.62,0,0,1-.1-1.5,6.29,6.29,0,0,0,.4-2.9,6.79,6.79,0,0,0,0-2.9,5.27,5.27,0,0,0-.5-1.5h-0.3c-0.2-.3-0.2-0.5-0.1-0.5a2.18,2.18,0,0,1,.8-0.5c0.5-.2,1.1.1,1.9,0.8a3.72,3.72,0,0,1,1.4,1.6c0,0.4-.2,1.5-0.5,3.3a15.86,15.86,0,0,1-1.2,3.7l-0.3.3c1-.2,1.8-0.3,2.5-0.4a17.87,17.87,0,0,0,3.7-.8C27.24,15.53,27.84,15.83,28.64,16.63ZM16.54,4.43a8,8,0,0,0,1.6-.3,3.39,3.39,0,0,0,.8-0.3,21.88,21.88,0,0,0,2.7-.8,1.21,1.21,0,0,0,.5-0.1,5.9,5.9,0,0,0,.8-0.4,5.91,5.91,0,0,1,.8-0.5c0.2-.2.7,0.1,1.5,0.8s1.2,1.1,1.1,1.5a0.69,0.69,0,0,1-.8.5,6.7,6.7,0,0,0-2.9.7c-1.5.4-2.7,0.8-3.8,1.2a10.52,10.52,0,0,1-1.8.8,0.76,0.76,0,0,1-.4.1c-0.3,0-.6-0.5-1.1-1.5s-0.5-1.5-.3-1.6h0.3C15.94,4.53,16.34,4.43,16.54,4.43Z" transform="translate(-0.24 -0.23)"/><path class="cls-2" d="M10.84,47.13q-4.2,1.05-5.7,1.5a0.75,0.75,0,0,0-.5.1c-0.5.2-1,.3-1.2,0.4s-0.2,0-.4-0.3a1.09,1.09,0,0,0-.1-0.5,1.09,1.09,0,0,1-.1-0.5c-0.1-.5,0-0.7.3-0.7,0.1,0,.8-0.2,2.2-0.5,2.2-.5,4.1-0.9,5.9-1.4a4.84,4.84,0,0,0-.7-2.6c-0.5-.8-0.7-1.3-0.5-1.4a0.76,0.76,0,0,0,.4-0.1,0.76,0.76,0,0,1,.4-0.1,1.56,1.56,0,0,1,1.6.5,2.1,2.1,0,0,1,1.1,1.5v1.6c4.9-1,7.5-1.6,7.8-1.9s0.9-.3,1.8.1,1.5,0.9,1.4,1.6a0.67,0.67,0,0,1-.7.8,11.06,11.06,0,0,0-2.3-.1c-1.3-.2-3.8.2-7.7,1.2a1.68,1.68,0,0,1,1.2,1,44.19,44.19,0,0,0,3,3.6,21.3,21.3,0,0,0,7.2,4.6c1.2,0.5,2.6,1.1,4.1,1.6a3.43,3.43,0,0,0,1.2.5l0.1,0.1c0.1,0,.1,0,0.1.1l-0.3.1a13.14,13.14,0,0,0-2.7.4,16.06,16.06,0,0,0-3.1.7,7,7,0,0,1-1.4.3,2.49,2.49,0,0,0-.7-0.5c-0.9-.6-1.7-1.3-2.5-1.9a20.73,20.73,0,0,1-4.6-5.2c-1.2-2.1-2.1-3.1-2.6-3.1a22.5,22.5,0,0,1-4.5,8.2,24.59,24.59,0,0,1-4.5,3.6,3.38,3.38,0,0,1-1.8.7c-0.1-.1.1-0.3,0.5-0.7l0.3-.3a44.12,44.12,0,0,0,3.6-3.7,21.3,21.3,0,0,0,3.4-5.6A26.82,26.82,0,0,0,10.84,47.13ZM17.24,34a0.37,0.37,0,0,1,.3-0.1,1.55,1.55,0,0,1,1.4.7A2.16,2.16,0,0,1,20,36c0.1,0.4-.1.6-0.7,0.8a22.32,22.32,0,0,1-3.6,1.5c-0.5.2-1.1,0.4-1.9,0.7a14.58,14.58,0,0,1-1.9.7,2.36,2.36,0,0,1-1.2,0,9.19,9.19,0,0,1-1.2-1.6,5.41,5.41,0,0,1-.8-1.5c0-.3.2-0.4,0.7-0.4a19.42,19.42,0,0,0,2.2-.1c0.9-.2,2.1-0.5,3.4-0.8a6.89,6.89,0,0,0,1-.4A12,12,0,0,1,17.24,34Z" transform="translate(-0.24 -0.23)"/></g></svg>