<?xml version="1.0" encoding="utf-8"?>
<!-- Generator: Adobe Illustrator 23.0.3, SVG Export Plug-In . SVG Version: 6.00 Build 0)  -->
<svg version="1.1" id="Layer_1" xmlns="http://www.w3.org/2000/svg" xmlns:xlink="http://www.w3.org/1999/xlink" x="0px" y="0px"
	 viewBox="0 0 506.74 564.54" style="enable-background:new 0 0 506.74 564.54;" xml:space="preserve">
<style type="text/css">
	.st0{stroke:#FFFFFF;stroke-width:5;stroke-miterlimit:10;}
	.st1{fill:none;stroke:#FFFFFF;stroke-width:5;stroke-miterlimit:10;}
	.st2{fill:#FFFFFF;stroke:#FFFFFF;stroke-width:5;stroke-miterlimit:10;}
</style>
<g>
</g>
<polygon class="st0" points="300.15,322.02 300.15,271.47 256.38,296.75 256.39,347.3 "/>
<path class="st1" d="M168.83,296.75"/>
<path class="st1" d="M168.83,498.94"/>
<path class="st1" d="M125.05,423.12"/>
<path class="st1" d="M125.06,271.47"/>
<path class="st1" d="M168.83,246.2"/>
<polygon class="st2" points="343.94,397.84 212.61,473.67 212.61,423.12 300.16,372.57 "/>
<path class="st1" d="M562.82,119.83"/>
<path class="st1" d="M81.65,398.06"/>
<polygon class="st0" points="431.49,195.66 431.49,246.2 475.25,220.93 475.26,170.38 "/>
<polygon class="st2" points="256.38,44.01 475.26,170.37 431.48,195.65 212.6,69.28 "/>
<polygon class="st1" points="212.61,119.83 212.61,69.28 431.49,195.65 431.49,246.2 343.93,195.65 343.94,397.84 300.16,372.57 
	300.16,170.38 "/>
<polygon class="st0" points="387.71,423.12 387.71,220.93 343.93,195.65 343.94,397.84 168.83,498.94 168.83,549.48 "/>
<polygon class="st0" points="168.83,347.3 168.83,296.75 212.61,322.03 212.61,473.67 168.83,498.94 "/>
<polygon class="st1" points="37.51,170.38 37.5,220.93 125.06,271.47 125.05,473.88 37.51,423.33 37.51,473.88 168.83,549.48 
	168.83,296.75 256.39,347.3 256.38,296.75 "/>
<polygon class="st0" points="81.65,398.06 37.51,423.33 125.05,473.88 125.05,423.12 "/>
<polygon class="st2" points="81.65,145.32 300.15,271.47 256.38,296.75 37.51,170.38 "/>
</svg>
