<?xml version="1.0" encoding="utf-8"?>
<!-- Generator: Adobe Illustrator 23.0.3, SVG Export Plug-In . SVG Version: 6.00 Build 0)  -->
<svg version="1.1" id="Layer_1" xmlns="http://www.w3.org/2000/svg" xmlns:xlink="http://www.w3.org/1999/xlink" x="0px" y="0px"
	 viewBox="0 0 840.49 839.51" style="enable-background:new 0 0 840.49 839.51;" xml:space="preserve">
<style type="text/css">
	.st0{fill:none;stroke:#000000;stroke-miterlimit:10;}
	.st1{fill:#FFFFFF;stroke:#000000;stroke-miterlimit:10;}
</style>
<g>
</g>
<polygon points="420.24,434.74 420.24,405.75 395.15,420.25 395.15,449.23 "/>
<path class="st0" d="M344.95,420.25"/>
<path class="st0" d="M344.95,536.18"/>
<path class="st0" d="M319.85,492.7"/>
<path class="st0" d="M319.85,405.76"/>
<path class="st0" d="M344.95,391.27"/>
<polygon class="st1" points="445.35,478.21 370.05,521.69 370.05,492.7 420.25,463.72 "/>
<path class="st0" d="M570.85,318.81"/>
<path class="st0" d="M294.96,478.33"/>
<polygon points="495.55,362.28 495.55,391.27 520.64,376.77 520.65,347.79 "/>
<polygon class="st1" points="395.15,275.33 520.64,347.79 495.54,362.28 370.04,289.82 "/>
<polygon class="st0" points="370.05,318.81 370.05,289.83 495.55,362.28 495.55,391.27 445.35,362.28 445.35,478.21 420.25,463.72 
	420.25,347.79 "/>
<polygon points="470.45,492.7 470.45,376.77 445.35,362.28 445.35,478.21 344.95,536.18 344.95,565.16 "/>
<polygon points="344.95,449.23 344.95,420.25 370.05,434.74 370.05,521.69 344.95,536.18 "/>
<polygon class="st0" points="269.65,347.79 269.65,376.77 319.85,405.76 319.85,521.81 269.65,492.83 269.65,521.81 344.95,565.16 
	344.95,420.25 395.15,449.23 395.15,420.25 "/>
<polygon points="294.96,478.33 269.65,492.83 319.85,521.81 319.85,492.7 "/>
<polygon class="st1" points="294.96,333.42 420.24,405.75 395.15,420.25 269.65,347.79 "/>
</svg>
