<?xml version="1.0" encoding="utf-8"?>
<!-- Generator: Adobe Illustrator 23.0.3, SVG Export Plug-In . SVG Version: 6.00 Build 0)  -->
<svg version="1.1" id="Layer_1" xmlns="http://www.w3.org/2000/svg" xmlns:xlink="http://www.w3.org/1999/xlink" x="0px" y="0px"
	 viewBox="0 0 506.74 564.54" style="enable-background:new 0 0 506.74 564.54;" xml:space="preserve">
<style type="text/css">
	.st0{stroke:#FFFFFF;stroke-width:5;stroke-miterlimit:10;}
	.st1{fill:none;stroke:#FFFFFF;stroke-width:5;stroke-miterlimit:10;}
	.st2{fill:#FFFFFF;stroke:#FFFFFF;stroke-width:5;stroke-miterlimit:10;}
</style>
<g>
</g>
<path class="st0" d="M300.15,321.73v-49.39c0-0.38-0.42-0.63-0.75-0.43l-42.77,24.7c-0.15,0.09-0.25,0.25-0.25,0.43l0,50.17
	c0,0.04,0.04,0.06,0.08,0.04l43.44-25.09C300.06,322.08,300.15,321.91,300.15,321.73z"/>
<path class="st1" d="M168.83,296.75"/>
<path class="st1" d="M168.83,498.94"/>
<path class="st1" d="M125.05,423.12"/>
<path class="st1" d="M125.06,271.47"/>
<path class="st1" d="M168.83,246.2"/>
<polygon class="st2" points="343.94,397.84 212.61,473.67 212.61,423.12 300.16,372.57 "/>
<path class="st1" d="M562.82,119.83"/>
<path class="st1" d="M81.65,398.06"/>
<path class="st0" d="M431.49,195.66v49.68c0,0.38,0.42,0.63,0.75,0.43l42.77-24.7c0.15-0.09,0.25-0.25,0.25-0.43l0.01-49.4
	c0-0.38-0.42-0.63-0.75-0.43L431.49,195.66z"/>
<path class="st2" d="M256.63,44.15l217.88,125.79c0.33,0.19,0.33,0.67,0,0.87l-43.03,24.85L213.35,69.71
	c-0.33-0.19-0.33-0.67,0-0.87l42.78-24.69C256.29,44.06,256.48,44.06,256.63,44.15z"/>
<path class="st1" d="M212.61,119.54l0-49.39c0-0.38,0.42-0.63,0.75-0.43l218.13,125.94l0,49.68c0,0.38-0.42,0.63-0.75,0.43
	l-86.05-49.68c-0.33-0.19-0.75,0.05-0.75,0.43l0,200.46c0,0.38-0.42,0.63-0.75,0.43l-43.03-24.84l0-201.9c0-0.18-0.1-0.34-0.25-0.43
	l-87.05-50.26C212.7,119.89,212.61,119.72,212.61,119.54z"/>
<path class="st0" d="M387.71,422.83l0-201.9l-43.03-24.84c-0.33-0.19-0.75,0.05-0.75,0.43l0,201.04c0,0.18-0.1,0.34-0.25,0.43
	L168.83,498.94l0,49.68c0,0.38,0.42,0.63,0.75,0.43l217.88-125.79C387.62,423.17,387.71,423.01,387.71,422.83z"/>
<path class="st0" d="M168.83,347.3l0-49.68c0-0.38,0.42-0.63,0.75-0.43l42.78,24.7c0.15,0.09,0.25,0.25,0.25,0.43l0,151.07
	c0,0.18-0.1,0.34-0.25,0.43l-42.78,24.7c-0.33,0.19-0.75-0.05-0.75-0.43L168.83,347.3z"/>
<path class="st1" d="M37.51,171.24l-0.01,49.4c0,0.18,0.1,0.34,0.25,0.43l87.06,50.26c0.15,0.09,0.25,0.25,0.25,0.43l0,201.25
	c0,0.38-0.42,0.63-0.75,0.43l-86.04-49.68c-0.33-0.19-0.75,0.05-0.75,0.43l0,49.39c0,0.18,0.1,0.34,0.25,0.43l130.32,75.03
	c0.33,0.19,0.75-0.05,0.75-0.43l0-251c0-0.38,0.42-0.63,0.75-0.43l86.06,49.68c0.33,0.19,0.75-0.05,0.75-0.43l0-49.4
	c0-0.18-0.1-0.34-0.25-0.43L38.26,170.81C37.92,170.62,37.51,170.86,37.51,171.24z"/>
<path class="st0" d="M81.65,398.06L38.26,422.9c-0.33,0.19-0.34,0.67,0,0.87l86.79,50.11l0-50.76L81.65,398.06z"/>
<path class="st2" d="M81.9,145.46l217.51,125.58c0.33,0.19,0.33,0.67,0,0.87l-42.77,24.7c-0.15,0.09-0.35,0.09-0.5,0L38.26,170.81
	c-0.33-0.19-0.33-0.68,0-0.87l43.14-24.48C81.56,145.37,81.75,145.37,81.9,145.46z"/>
</svg>
