<?xml version="1.0" encoding="utf-8"?>
<!-- Generator: Adobe Illustrator 23.0.6, SVG Export Plug-In . SVG Version: 6.00 Build 0)  -->
<svg version="1.1" id="Layer_1" xmlns="http://www.w3.org/2000/svg" xmlns:xlink="http://www.w3.org/1999/xlink" x="0px" y="0px"
	 viewBox="0 0 602 600" style="enable-background:new 0 0 602 600;" xml:space="preserve">
<style type="text/css">
	.st0{clip-path:url(#SVGID_2_);fill:#DF5F18;}
	.st1{clip-path:url(#SVGID_2_);}
	.st2{clip-path:url(#SVGID_2_);fill:#981F24;}
	.st3{clip-path:url(#SVGID_2_);fill:none;}
	.st4{clip-path:url(#SVGID_4_);fill:#DF5F18;}
	.st5{clip-path:url(#SVGID_4_);}
	.st6{clip-path:url(#SVGID_4_);fill:#981F24;}
	.st7{clip-path:url(#SVGID_4_);fill:none;}
	.st8{clip-path:url(#SVGID_6_);fill:#DF5F18;}
	.st9{clip-path:url(#SVGID_6_);}
	.st10{clip-path:url(#SVGID_6_);fill:#981F24;}
	.st11{clip-path:url(#SVGID_6_);fill:none;}
</style>
<g>
	<defs>
		<rect id="SVGID_1_" x="258" y="219.5" width="86" height="160.5"/>
	</defs>
	<clipPath id="SVGID_2_">
		<use xlink:href="#SVGID_1_"  style="overflow:visible;"/>
	</clipPath>
	<polygon class="st0" points="344,366 301,340 258,366 258,260 301,234 344,260 	"/>
	<polygon class="st1" points="301,220 258,246 258,260 301,234 344,260 344,246 	"/>
	<polygon class="st1" points="301,340 258,366 258,380 301,354 344,380 344,366 	"/>
	<polygon class="st1" points="276,290.71 276,263.29 301,247.91 326,263.29 326,290.71 301,306.09 	"/>
	<polygon class="st2" points="314,284 301,292 288,284 288,270 301,262 314,270 	"/>
	<polygon class="st1" points="233,336.8 233,309.38 258,294 283,309.38 283,336.8 258,352.18 	"/>
	<polygon class="st2" points="271,330.09 258,338.09 245,330.09 245,316.09 258,308.09 271,316.09 	"/>
	<polygon class="st1" points="319,336.8 319,309.38 344,294 369,309.38 369,336.8 344,352.18 	"/>
	<polygon class="st2" points="357,330.09 344,338.09 331,330.09 331,316.09 344,308.09 357,316.09 	"/>
	<rect x="295" y="292" class="st1" width="12" height="62"/>
	<rect x="252" y="246" class="st1" width="12" height="62"/>
	<rect x="338" y="246" class="st1" width="12" height="62"/>
	<rect x="258" y="220" class="st3" width="86" height="160"/>
</g>
<g>
	<defs>
		<rect id="SVGID_3_" x="172" y="219.5" width="86" height="160.5"/>
	</defs>
	<clipPath id="SVGID_4_">
		<use xlink:href="#SVGID_3_"  style="overflow:visible;"/>
	</clipPath>
	<polygon class="st4" points="258,366 215,340 172,366 172,260 215,234 258,260 	"/>
	<polygon class="st5" points="215,220 172,246 172,260 215,234 258,260 258,246 	"/>
	<polygon class="st5" points="215,340 172,366 172,380 215,354 258,380 258,366 	"/>
	<polygon class="st5" points="190,290.71 190,263.29 215,247.91 240,263.29 240,290.71 215,306.09 	"/>
	<polygon class="st6" points="228,284 215,292 202,284 202,270 215,262 228,270 	"/>
	<polygon class="st5" points="147,336.8 147,309.38 172,294 197,309.38 197,336.8 172,352.18 	"/>
	<polygon class="st6" points="185,330.09 172,338.09 159,330.09 159,316.09 172,308.09 185,316.09 	"/>
	<polygon class="st5" points="233,336.8 233,309.38 258,294 283,309.38 283,336.8 258,352.18 	"/>
	<polygon class="st6" points="271,330.09 258,338.09 245,330.09 245,316.09 258,308.09 271,316.09 	"/>
	<rect x="209" y="292" class="st5" width="12" height="62"/>
	<rect x="166" y="246" class="st5" width="12" height="62"/>
	<rect x="252" y="246" class="st5" width="12" height="62"/>
	<rect x="172" y="220" class="st7" width="86" height="160"/>
</g>
<g>
	<defs>
		<rect id="SVGID_5_" x="344" y="219.5" width="86" height="160.5"/>
	</defs>
	<clipPath id="SVGID_6_">
		<use xlink:href="#SVGID_5_"  style="overflow:visible;"/>
	</clipPath>
	<polygon class="st8" points="430,366 387,340 344,366 344,260 387,234 430,260 	"/>
	<polygon class="st9" points="387,220 344,246 344,260 387,234 430,260 430,246 	"/>
	<polygon class="st9" points="387,340 344,366 344,380 387,354 430,380 430,366 	"/>
	<polygon class="st9" points="362,290.71 362,263.29 387,247.91 412,263.29 412,290.71 387,306.09 	"/>
	<polygon class="st10" points="400,284 387,292 374,284 374,270 387,262 400,270 	"/>
	<polygon class="st9" points="319,336.8 319,309.38 344,294 369,309.38 369,336.8 344,352.18 	"/>
	<polygon class="st10" points="357,330.09 344,338.09 331,330.09 331,316.09 344,308.09 357,316.09 	"/>
	<polygon class="st9" points="405,336.8 405,309.38 430,294 455,309.38 455,336.8 430,352.18 	"/>
	<polygon class="st10" points="443,330.09 430,338.09 417,330.09 417,316.09 430,308.09 443,316.09 	"/>
	<rect x="381" y="292" class="st9" width="12" height="62"/>
	<rect x="338" y="246" class="st9" width="12" height="62"/>
	<rect x="424" y="246" class="st9" width="12" height="62"/>
	<rect x="344" y="220" class="st11" width="86" height="160"/>
</g>
</svg>
