<?xml version="1.0" encoding="utf-8"?>
<!-- Generator: Adobe Illustrator 23.0.6, SVG Export Plug-In . SVG Version: 6.00 Build 0)  -->
<svg version="1.1" id="Layer_1" xmlns="http://www.w3.org/2000/svg" xmlns:xlink="http://www.w3.org/1999/xlink" x="0px" y="0px"
	 viewBox="0 0 602 600" style="enable-background:new 0 0 602 600;" xml:space="preserve">
<style type="text/css">
	.st0{fill:#DF5F18;}
	.st1{clip-path:url(#SVGID_2_);}
	.st2{fill:#981F24;}
	.st3{fill:none;}
</style>
<rect class="st0" width="602" height="600"/>
<g>
	<defs>
		<rect id="SVGID_1_" width="602" height="600"/>
	</defs>
	<clipPath id="SVGID_2_">
		<use xlink:href="#SVGID_1_"  style="overflow:visible;"/>
	</clipPath>
	<g class="st1">
		<polygon class="st0" points="301,306 258,280 215,306 215,200 258,174 301,200 		"/>
		<polygon points="258,160 215,186 215,200 258,174 301,200 301,186 		"/>
		<polygon points="215,306 215,320 258,294 301,320 301,306 258,280 		"/>
		<polygon points="233,230.71 233,203.29 258,187.91 283,203.29 283,230.71 258,246.09 		"/>
		<polygon class="st2" points="271,224 258,232 245,224 245,210 258,202 271,210 		"/>
		<polygon points="276,276.8 276,249.38 301,234 326,249.38 326,276.8 301,292.18 		"/>
		<polygon class="st2" points="314,270.09 301,278.09 288,270.09 288,256.09 301,248.09 314,256.09 		"/>
		<polygon points="190,276.8 190,249.38 215,234 240,249.38 240,276.8 215,292.18 		"/>
		<polygon class="st2" points="228,270.09 215,278.09 202,270.09 202,256.09 215,248.09 228,256.09 		"/>
		<rect x="252" y="232" width="12" height="62"/>
		<rect x="209" y="186" width="12" height="62"/>
		<rect x="295" y="186" width="12" height="62"/>
		<rect x="215" y="160" class="st3" width="86" height="160"/>
		<rect x="215" y="160" class="st3" width="86" height="160"/>
		<polygon class="st0" points="387,306 344,280 301,306 301,200 344,174 387,200 		"/>
		<polygon points="344,160 301,186 301,200 344,174 387,200 387,186 		"/>
		<polygon points="301,306 301,320 344,294 387,320 387,306 344,280 		"/>
		<polygon points="319,230.71 319,203.29 344,187.91 369,203.29 369,230.71 344,246.09 		"/>
		<polygon class="st2" points="357,224 344,232 331,224 331,210 344,202 357,210 		"/>
		<polygon points="362,276.8 362,249.38 387,234 412,249.38 412,276.8 387,292.18 		"/>
		<polygon class="st2" points="400,270.09 387,278.09 374,270.09 374,256.09 387,248.09 400,256.09 		"/>
		<polygon points="276,276.8 276,249.38 301,234 326,249.38 326,276.8 301,292.18 		"/>
		<polygon class="st2" points="314,270.09 301,278.09 288,270.09 288,256.09 301,248.09 314,256.09 		"/>
		<rect x="338" y="232" width="12" height="62"/>
		<rect x="295" y="186" width="12" height="62"/>
		<rect x="381" y="186" width="12" height="62"/>
		<rect x="301" y="160" class="st3" width="86" height="160"/>
		<rect x="301" y="160" class="st3" width="86" height="160"/>
		<polygon class="st0" points="473,306 430,280 387,306 387,200 430,174 473,200 		"/>
		<polygon points="430,160 387,186 387,200 430,174 473,200 473,186 		"/>
		<polygon points="387,306 387,320 430,294 473,320 473,306 430,280 		"/>
		<polygon points="405,230.71 405,203.29 430,187.91 455,203.29 455,230.71 430,246.09 		"/>
		<polygon class="st2" points="443,224 430,232 417,224 417,210 430,202 443,210 		"/>
		<polygon points="448,276.8 448,249.38 473,234 498,249.38 498,276.8 473,292.18 		"/>
		<polygon class="st2" points="486,270.09 473,278.09 460,270.09 460,256.09 473,248.09 486,256.09 		"/>
		<polygon points="362,276.8 362,249.38 387,234 412,249.38 412,276.8 387,292.18 		"/>
		<polygon class="st2" points="400,270.09 387,278.09 374,270.09 374,256.09 387,248.09 400,256.09 		"/>
		<rect x="424" y="232" width="12" height="62"/>
		<rect x="381" y="186" width="12" height="62"/>
		<rect x="467" y="186" width="12" height="62"/>
		<rect x="387" y="160" class="st3" width="86" height="160"/>
		<rect x="387" y="160" class="st3" width="86" height="160"/>
		<polygon class="st0" points="559,306 516,280 473,306 473,200 516,174 559,200 		"/>
		<polygon points="516,160 473,186 473,200 516,174 559,200 559,186 		"/>
		<polygon points="473,306 473,320 516,294 559,320 559,306 516,280 		"/>
		<polygon points="491,230.71 491,203.29 516,187.91 541,203.29 541,230.71 516,246.09 		"/>
		<polygon class="st2" points="529,224 516,232 503,224 503,210 516,202 529,210 		"/>
		<polygon points="534,276.8 534,249.38 559,234 584,249.38 584,276.8 559,292.18 		"/>
		<polygon class="st2" points="572,270.09 559,278.09 546,270.09 546,256.09 559,248.09 572,256.09 		"/>
		<polygon points="448,276.8 448,249.38 473,234 498,249.38 498,276.8 473,292.18 		"/>
		<polygon class="st2" points="486,270.09 473,278.09 460,270.09 460,256.09 473,248.09 486,256.09 		"/>
		<rect x="510" y="232" width="12" height="62"/>
		<rect x="467" y="186" width="12" height="62"/>
		<rect x="553" y="186" width="12" height="62"/>
		<rect x="473" y="160" class="st3" width="86" height="160"/>
		<rect x="473" y="160" class="st3" width="86" height="160"/>
		<polygon class="st0" points="645,306 602,280 559,306 559,200 602,174 645,200 		"/>
		<polygon points="602,160 559,186 559,200 602,174 645,200 645,186 		"/>
		<polygon points="559,306 559,320 602,294 645,320 645,306 602,280 		"/>
		<polygon points="577,230.71 577,203.29 602,187.91 627,203.29 627,230.71 602,246.09 		"/>
		<polygon class="st2" points="615,224 602,232 589,224 589,210 602,202 615,210 		"/>
		<polygon points="620,276.8 620,249.38 645,234 670,249.38 670,276.8 645,292.18 		"/>
		<polygon class="st2" points="658,270.09 645,278.09 632,270.09 632,256.09 645,248.09 658,256.09 		"/>
		<polygon points="534,276.8 534,249.38 559,234 584,249.38 584,276.8 559,292.18 		"/>
		<polygon class="st2" points="572,270.09 559,278.09 546,270.09 546,256.09 559,248.09 572,256.09 		"/>
		<rect x="596" y="232" width="12" height="62"/>
		<rect x="553" y="186" width="12" height="62"/>
		<rect x="639" y="186" width="12" height="62"/>
		<rect x="559" y="160" class="st3" width="86" height="160"/>
		<rect x="559" y="160" class="st3" width="86" height="160"/>
		<polygon class="st0" points="43,306 0,280 -43,306 -43,200 0,174 43,200 		"/>
		<polygon points="0,160 -43,186 -43,200 0,174 43,200 43,186 		"/>
		<polygon points="-43,306 -43,320 0,294 43,320 43,306 0,280 		"/>
		<polygon points="-25,230.71 -25,203.29 0,187.91 25,203.29 25,230.71 0,246.09 		"/>
		<polygon class="st2" points="13,224 0,232 -13,224 -13,210 0,202 13,210 		"/>
		<polygon points="18,276.8 18,249.38 43,234 68,249.38 68,276.8 43,292.18 		"/>
		<polygon class="st2" points="56,270.09 43,278.09 30,270.09 30,256.09 43,248.09 56,256.09 		"/>
		<polygon points="-68,276.8 -68,249.38 -43,234 -18,249.38 -18,276.8 -43,292.18 		"/>
		<polygon class="st2" points="-30,270.09 -43,278.09 -56,270.09 -56,256.09 -43,248.09 -30,256.09 		"/>
		<rect x="-6" y="232" width="12" height="62"/>
		<rect x="-49" y="186" width="12" height="62"/>
		<rect x="37" y="186" width="12" height="62"/>
		<rect x="-43" y="160" class="st3" width="86" height="160"/>
		<rect x="-43" y="160" class="st3" width="86" height="160"/>
		<polygon class="st0" points="129,306 86,280 43,306 43,200 86,174 129,200 		"/>
		<polygon points="86,160 43,186 43,200 86,174 129,200 129,186 		"/>
		<polygon points="43,306 43,320 86,294 129,320 129,306 86,280 		"/>
		<polygon points="61,230.71 61,203.29 86,187.91 111,203.29 111,230.71 86,246.09 		"/>
		<polygon class="st2" points="99,224 86,232 73,224 73,210 86,202 99,210 		"/>
		<polygon points="104,276.8 104,249.38 129,234 154,249.38 154,276.8 129,292.18 		"/>
		<polygon class="st2" points="142,270.09 129,278.09 116,270.09 116,256.09 129,248.09 142,256.09 		"/>
		<polygon points="18,276.8 18,249.38 43,234 68,249.38 68,276.8 43,292.18 		"/>
		<polygon class="st2" points="56,270.09 43,278.09 30,270.09 30,256.09 43,248.09 56,256.09 		"/>
		<rect x="80" y="232" width="12" height="62"/>
		<rect x="37" y="186" width="12" height="62"/>
		<rect x="123" y="186" width="12" height="62"/>
		<rect x="43" y="160" class="st3" width="86" height="160"/>
		<rect x="43" y="160" class="st3" width="86" height="160"/>
		<polygon class="st0" points="215,306 172,280 129,306 129,200 172,174 215,200 		"/>
		<polygon points="172,160 129,186 129,200 172,174 215,200 215,186 		"/>
		<polygon points="129,306 129,320 172,294 215,320 215,306 172,280 		"/>
		<polygon points="147,230.71 147,203.29 172,187.91 197,203.29 197,230.71 172,246.09 		"/>
		<polygon class="st2" points="185,224 172,232 159,224 159,210 172,202 185,210 		"/>
		<polygon points="190,276.8 190,249.38 215,234 240,249.38 240,276.8 215,292.18 		"/>
		<polygon class="st2" points="228,270.09 215,278.09 202,270.09 202,256.09 215,248.09 228,256.09 		"/>
		<polygon points="104,276.8 104,249.38 129,234 154,249.38 154,276.8 129,292.18 		"/>
		<polygon class="st2" points="142,270.09 129,278.09 116,270.09 116,256.09 129,248.09 142,256.09 		"/>
		<rect x="166" y="232" width="12" height="62"/>
		<rect x="123" y="186" width="12" height="62"/>
		<rect x="209" y="186" width="12" height="62"/>
		<rect x="129" y="160" class="st3" width="86" height="160"/>
		<rect x="129" y="160" class="st3" width="86" height="160"/>
		<polygon class="st0" points="301,186 258,160 215,186 215,80 258,54 301,80 		"/>
		<polygon points="258,40 215,66 215,80 258,54 301,80 301,66 		"/>
		<polygon points="215,186 215,200 258,174 301,200 301,186 258,160 		"/>
		<polygon points="233,110.71 233,83.29 258,67.91 283,83.29 283,110.71 258,126.09 		"/>
		<polygon class="st2" points="271,104 258,112 245,104 245,90 258,82 271,90 		"/>
		<polygon points="276,156.8 276,129.38 301,114 326,129.38 326,156.8 301,172.18 		"/>
		<polygon class="st2" points="314,150.09 301,158.09 288,150.09 288,136.09 301,128.09 314,136.09 		"/>
		<polygon points="190,156.8 190,129.38 215,114 240,129.38 240,156.8 215,172.18 		"/>
		<polygon class="st2" points="228,150.09 215,158.09 202,150.09 202,136.09 215,128.09 228,136.09 		"/>
		<rect x="252" y="112" width="12" height="62"/>
		<rect x="209" y="66" width="12" height="62"/>
		<rect x="295" y="66" width="12" height="62"/>
		<rect x="215" y="40" class="st3" width="86" height="160"/>
		<rect x="215" y="40" class="st3" width="86" height="160"/>
		<polygon class="st0" points="387,186 344,160 301,186 301,80 344,54 387,80 		"/>
		<polygon points="344,40 301,66 301,80 344,54 387,80 387,66 		"/>
		<polygon points="301,186 301,200 344,174 387,200 387,186 344,160 		"/>
		<polygon points="319,110.71 319,83.29 344,67.91 369,83.29 369,110.71 344,126.09 		"/>
		<polygon class="st2" points="357,104 344,112 331,104 331,90 344,82 357,90 		"/>
		<polygon points="362,156.8 362,129.38 387,114 412,129.38 412,156.8 387,172.18 		"/>
		<polygon class="st2" points="400,150.09 387,158.09 374,150.09 374,136.09 387,128.09 400,136.09 		"/>
		<polygon points="276,156.8 276,129.38 301,114 326,129.38 326,156.8 301,172.18 		"/>
		<polygon class="st2" points="314,150.09 301,158.09 288,150.09 288,136.09 301,128.09 314,136.09 		"/>
		<rect x="338" y="112" width="12" height="62"/>
		<rect x="295" y="66" width="12" height="62"/>
		<rect x="381" y="66" width="12" height="62"/>
		<rect x="301" y="40" class="st3" width="86" height="160"/>
		<rect x="301" y="40" class="st3" width="86" height="160"/>
		<polygon class="st0" points="473,186 430,160 387,186 387,80 430,54 473,80 		"/>
		<polygon points="430,40 387,66 387,80 430,54 473,80 473,66 		"/>
		<polygon points="387,186 387,200 430,174 473,200 473,186 430,160 		"/>
		<polygon points="405,110.71 405,83.29 430,67.91 455,83.29 455,110.71 430,126.09 		"/>
		<polygon class="st2" points="443,104 430,112 417,104 417,90 430,82 443,90 		"/>
		<polygon points="448,156.8 448,129.38 473,114 498,129.38 498,156.8 473,172.18 		"/>
		<polygon class="st2" points="486,150.09 473,158.09 460,150.09 460,136.09 473,128.09 486,136.09 		"/>
		<polygon points="362,156.8 362,129.38 387,114 412,129.38 412,156.8 387,172.18 		"/>
		<polygon class="st2" points="400,150.09 387,158.09 374,150.09 374,136.09 387,128.09 400,136.09 		"/>
		<rect x="424" y="112" width="12" height="62"/>
		<rect x="381" y="66" width="12" height="62"/>
		<rect x="467" y="66" width="12" height="62"/>
		<rect x="387" y="40" class="st3" width="86" height="160"/>
		<rect x="387" y="40" class="st3" width="86" height="160"/>
		<polygon class="st0" points="559,186 516,160 473,186 473,80 516,54 559,80 		"/>
		<polygon points="516,40 473,66 473,80 516,54 559,80 559,66 		"/>
		<polygon points="473,186 473,200 516,174 559,200 559,186 516,160 		"/>
		<polygon points="491,110.71 491,83.29 516,67.91 541,83.29 541,110.71 516,126.09 		"/>
		<polygon class="st2" points="529,104 516,112 503,104 503,90 516,82 529,90 		"/>
		<polygon points="534,156.8 534,129.38 559,114 584,129.38 584,156.8 559,172.18 		"/>
		<polygon class="st2" points="572,150.09 559,158.09 546,150.09 546,136.09 559,128.09 572,136.09 		"/>
		<polygon points="448,156.8 448,129.38 473,114 498,129.38 498,156.8 473,172.18 		"/>
		<polygon class="st2" points="486,150.09 473,158.09 460,150.09 460,136.09 473,128.09 486,136.09 		"/>
		<rect x="510" y="112" width="12" height="62"/>
		<rect x="467" y="66" width="12" height="62"/>
		<rect x="553" y="66" width="12" height="62"/>
		<rect x="473" y="40" class="st3" width="86" height="160"/>
		<rect x="473" y="40" class="st3" width="86" height="160"/>
		<polygon class="st0" points="645,186 602,160 559,186 559,80 602,54 645,80 		"/>
		<polygon points="602,40 559,66 559,80 602,54 645,80 645,66 		"/>
		<polygon points="559,186 559,200 602,174 645,200 645,186 602,160 		"/>
		<polygon points="577,110.71 577,83.29 602,67.91 627,83.29 627,110.71 602,126.09 		"/>
		<polygon class="st2" points="615,104 602,112 589,104 589,90 602,82 615,90 		"/>
		<polygon points="620,156.8 620,129.38 645,114 670,129.38 670,156.8 645,172.18 		"/>
		<polygon class="st2" points="658,150.09 645,158.09 632,150.09 632,136.09 645,128.09 658,136.09 		"/>
		<polygon points="534,156.8 534,129.38 559,114 584,129.38 584,156.8 559,172.18 		"/>
		<polygon class="st2" points="572,150.09 559,158.09 546,150.09 546,136.09 559,128.09 572,136.09 		"/>
		<rect x="596" y="112" width="12" height="62"/>
		<rect x="553" y="66" width="12" height="62"/>
		<rect x="639" y="66" width="12" height="62"/>
		<rect x="559" y="40" class="st3" width="86" height="160"/>
		<rect x="559" y="40" class="st3" width="86" height="160"/>
		<polygon class="st0" points="43,186 0,160 -43,186 -43,80 0,54 43,80 		"/>
		<polygon points="0,40 -43,66 -43,80 0,54 43,80 43,66 		"/>
		<polygon points="-43,186 -43,200 0,174 43,200 43,186 0,160 		"/>
		<polygon points="-25,110.71 -25,83.29 0,67.91 25,83.29 25,110.71 0,126.09 		"/>
		<polygon class="st2" points="13,104 0,112 -13,104 -13,90 0,82 13,90 		"/>
		<polygon points="18,156.8 18,129.38 43,114 68,129.38 68,156.8 43,172.18 		"/>
		<polygon class="st2" points="56,150.09 43,158.09 30,150.09 30,136.09 43,128.09 56,136.09 		"/>
		<polygon points="-68,156.8 -68,129.38 -43,114 -18,129.38 -18,156.8 -43,172.18 		"/>
		<polygon class="st2" points="-30,150.09 -43,158.09 -56,150.09 -56,136.09 -43,128.09 -30,136.09 		"/>
		<rect x="-6" y="112" width="12" height="62"/>
		<rect x="-49" y="66" width="12" height="62"/>
		<rect x="37" y="66" width="12" height="62"/>
		<rect x="-43" y="40" class="st3" width="86" height="160"/>
		<rect x="-43" y="40" class="st3" width="86" height="160"/>
		<polygon class="st0" points="129,186 86,160 43,186 43,80 86,54 129,80 		"/>
		<polygon points="86,40 43,66 43,80 86,54 129,80 129,66 		"/>
		<polygon points="43,186 43,200 86,174 129,200 129,186 86,160 		"/>
		<polygon points="61,110.71 61,83.29 86,67.91 111,83.29 111,110.71 86,126.09 		"/>
		<polygon class="st2" points="99,104 86,112 73,104 73,90 86,82 99,90 		"/>
		<polygon points="104,156.8 104,129.38 129,114 154,129.38 154,156.8 129,172.18 		"/>
		<polygon class="st2" points="142,150.09 129,158.09 116,150.09 116,136.09 129,128.09 142,136.09 		"/>
		<polygon points="18,156.8 18,129.38 43,114 68,129.38 68,156.8 43,172.18 		"/>
		<polygon class="st2" points="56,150.09 43,158.09 30,150.09 30,136.09 43,128.09 56,136.09 		"/>
		<rect x="80" y="112" width="12" height="62"/>
		<rect x="37" y="66" width="12" height="62"/>
		<rect x="123" y="66" width="12" height="62"/>
		<rect x="43" y="40" class="st3" width="86" height="160"/>
		<rect x="43" y="40" class="st3" width="86" height="160"/>
		<polygon class="st0" points="215,186 172,160 129,186 129,80 172,54 215,80 		"/>
		<polygon points="172,40 129,66 129,80 172,54 215,80 215,66 		"/>
		<polygon points="129,186 129,200 172,174 215,200 215,186 172,160 		"/>
		<polygon points="147,110.71 147,83.29 172,67.91 197,83.29 197,110.71 172,126.09 		"/>
		<polygon class="st2" points="185,104 172,112 159,104 159,90 172,82 185,90 		"/>
		<polygon points="190,156.8 190,129.38 215,114 240,129.38 240,156.8 215,172.18 		"/>
		<polygon class="st2" points="228,150.09 215,158.09 202,150.09 202,136.09 215,128.09 228,136.09 		"/>
		<polygon points="104,156.8 104,129.38 129,114 154,129.38 154,156.8 129,172.18 		"/>
		<polygon class="st2" points="142,150.09 129,158.09 116,150.09 116,136.09 129,128.09 142,136.09 		"/>
		<rect x="166" y="112" width="12" height="62"/>
		<rect x="123" y="66" width="12" height="62"/>
		<rect x="209" y="66" width="12" height="62"/>
		<rect x="129" y="40" class="st3" width="86" height="160"/>
		<rect x="129" y="40" class="st3" width="86" height="160"/>
		<polygon class="st0" points="301,66 258,40 215,66 215,-40 258,-66 301,-40 		"/>
		<polygon points="258,-80 215,-54 215,-40 258,-66 301,-40 301,-54 		"/>
		<polygon points="215,66 215,80 258,54 301,80 301,66 258,40 		"/>
		<polygon points="233,-9.29 233,-36.71 258,-52.09 283,-36.71 283,-9.29 258,6.09 		"/>
		<polygon class="st2" points="271,-16 258,-8 245,-16 245,-30 258,-38 271,-30 		"/>
		<polygon points="276,36.8 276,9.38 301,-6 326,9.38 326,36.8 301,52.18 		"/>
		<polygon class="st2" points="314,30.09 301,38.09 288,30.09 288,16.09 301,8.09 314,16.09 		"/>
		<polygon points="190,36.8 190,9.38 215,-6 240,9.38 240,36.8 215,52.18 		"/>
		<polygon class="st2" points="228,30.09 215,38.09 202,30.09 202,16.09 215,8.09 228,16.09 		"/>
		<rect x="252" y="-8" width="12" height="62"/>
		<rect x="209" y="-54" width="12" height="62"/>
		<rect x="295" y="-54" width="12" height="62"/>
		<rect x="215" y="-80" class="st3" width="86" height="160"/>
		<rect x="215" y="-80" class="st3" width="86" height="160"/>
		<polygon class="st0" points="387,66 344,40 301,66 301,-40 344,-66 387,-40 		"/>
		<polygon points="344,-80 301,-54 301,-40 344,-66 387,-40 387,-54 		"/>
		<polygon points="301,66 301,80 344,54 387,80 387,66 344,40 		"/>
		<polygon points="319,-9.29 319,-36.71 344,-52.09 369,-36.71 369,-9.29 344,6.09 		"/>
		<polygon class="st2" points="357,-16 344,-8 331,-16 331,-30 344,-38 357,-30 		"/>
		<polygon points="362,36.8 362,9.38 387,-6 412,9.38 412,36.8 387,52.18 		"/>
		<polygon class="st2" points="400,30.09 387,38.09 374,30.09 374,16.09 387,8.09 400,16.09 		"/>
		<polygon points="276,36.8 276,9.38 301,-6 326,9.38 326,36.8 301,52.18 		"/>
		<polygon class="st2" points="314,30.09 301,38.09 288,30.09 288,16.09 301,8.09 314,16.09 		"/>
		<rect x="338" y="-8" width="12" height="62"/>
		<rect x="295" y="-54" width="12" height="62"/>
		<rect x="381" y="-54" width="12" height="62"/>
		<rect x="301" y="-80" class="st3" width="86" height="160"/>
		<rect x="301" y="-80" class="st3" width="86" height="160"/>
		<polygon class="st0" points="473,66 430,40 387,66 387,-40 430,-66 473,-40 		"/>
		<polygon points="430,-80 387,-54 387,-40 430,-66 473,-40 473,-54 		"/>
		<polygon points="387,66 387,80 430,54 473,80 473,66 430,40 		"/>
		<polygon points="405,-9.29 405,-36.71 430,-52.09 455,-36.71 455,-9.29 430,6.09 		"/>
		<polygon class="st2" points="443,-16 430,-8 417,-16 417,-30 430,-38 443,-30 		"/>
		<polygon points="448,36.8 448,9.38 473,-6 498,9.38 498,36.8 473,52.18 		"/>
		<polygon class="st2" points="486,30.09 473,38.09 460,30.09 460,16.09 473,8.09 486,16.09 		"/>
		<polygon points="362,36.8 362,9.38 387,-6 412,9.38 412,36.8 387,52.18 		"/>
		<polygon class="st2" points="400,30.09 387,38.09 374,30.09 374,16.09 387,8.09 400,16.09 		"/>
		<rect x="424" y="-8" width="12" height="62"/>
		<rect x="381" y="-54" width="12" height="62"/>
		<rect x="467" y="-54" width="12" height="62"/>
		<rect x="387" y="-80" class="st3" width="86" height="160"/>
		<rect x="387" y="-80" class="st3" width="86" height="160"/>
		<polygon class="st0" points="559,66 516,40 473,66 473,-40 516,-66 559,-40 		"/>
		<polygon points="516,-80 473,-54 473,-40 516,-66 559,-40 559,-54 		"/>
		<polygon points="473,66 473,80 516,54 559,80 559,66 516,40 		"/>
		<polygon points="491,-9.29 491,-36.71 516,-52.09 541,-36.71 541,-9.29 516,6.09 		"/>
		<polygon class="st2" points="529,-16 516,-8 503,-16 503,-30 516,-38 529,-30 		"/>
		<polygon points="534,36.8 534,9.38 559,-6 584,9.38 584,36.8 559,52.18 		"/>
		<polygon class="st2" points="572,30.09 559,38.09 546,30.09 546,16.09 559,8.09 572,16.09 		"/>
		<polygon points="448,36.8 448,9.38 473,-6 498,9.38 498,36.8 473,52.18 		"/>
		<polygon class="st2" points="486,30.09 473,38.09 460,30.09 460,16.09 473,8.09 486,16.09 		"/>
		<rect x="510" y="-8" width="12" height="62"/>
		<rect x="467" y="-54" width="12" height="62"/>
		<rect x="553" y="-54" width="12" height="62"/>
		<rect x="473" y="-80" class="st3" width="86" height="160"/>
		<rect x="473" y="-80" class="st3" width="86" height="160"/>
		<polygon class="st0" points="645,66 602,40 559,66 559,-40 602,-66 645,-40 		"/>
		<polygon points="602,-80 559,-54 559,-40 602,-66 645,-40 645,-54 		"/>
		<polygon points="559,66 559,80 602,54 645,80 645,66 602,40 		"/>
		<polygon points="577,-9.29 577,-36.71 602,-52.09 627,-36.71 627,-9.29 602,6.09 		"/>
		<polygon class="st2" points="615,-16 602,-8 589,-16 589,-30 602,-38 615,-30 		"/>
		<polygon points="620,36.8 620,9.38 645,-6 670,9.38 670,36.8 645,52.18 		"/>
		<polygon class="st2" points="658,30.09 645,38.09 632,30.09 632,16.09 645,8.09 658,16.09 		"/>
		<polygon points="534,36.8 534,9.38 559,-6 584,9.38 584,36.8 559,52.18 		"/>
		<polygon class="st2" points="572,30.09 559,38.09 546,30.09 546,16.09 559,8.09 572,16.09 		"/>
		<rect x="596" y="-8" width="12" height="62"/>
		<rect x="553" y="-54" width="12" height="62"/>
		<rect x="639" y="-54" width="12" height="62"/>
		<rect x="559" y="-80" class="st3" width="86" height="160"/>
		<rect x="559" y="-80" class="st3" width="86" height="160"/>
		<polygon class="st0" points="43,66 0,40 -43,66 -43,-40 0,-66 43,-40 		"/>
		<polygon points="0,-80 -43,-54 -43,-40 0,-66 43,-40 43,-54 		"/>
		<polygon points="-43,66 -43,80 0,54 43,80 43,66 0,40 		"/>
		<polygon points="-25,-9.29 -25,-36.71 0,-52.09 25,-36.71 25,-9.29 0,6.09 		"/>
		<polygon class="st2" points="13,-16 0,-8 -13,-16 -13,-30 0,-38 13,-30 		"/>
		<polygon points="18,36.8 18,9.38 43,-6 68,9.38 68,36.8 43,52.18 		"/>
		<polygon class="st2" points="56,30.09 43,38.09 30,30.09 30,16.09 43,8.09 56,16.09 		"/>
		<polygon points="-68,36.8 -68,9.38 -43,-6 -18,9.38 -18,36.8 -43,52.18 		"/>
		<polygon class="st2" points="-30,30.09 -43,38.09 -56,30.09 -56,16.09 -43,8.09 -30,16.09 		"/>
		<rect x="-6" y="-8" width="12" height="62"/>
		<rect x="-49" y="-54" width="12" height="62"/>
		<rect x="37" y="-54" width="12" height="62"/>
		<rect x="-43" y="-80" class="st3" width="86" height="160"/>
		<rect x="-43" y="-80" class="st3" width="86" height="160"/>
		<polygon class="st0" points="129,66 86,40 43,66 43,-40 86,-66 129,-40 		"/>
		<polygon points="86,-80 43,-54 43,-40 86,-66 129,-40 129,-54 		"/>
		<polygon points="43,66 43,80 86,54 129,80 129,66 86,40 		"/>
		<polygon points="61,-9.29 61,-36.71 86,-52.09 111,-36.71 111,-9.29 86,6.09 		"/>
		<polygon class="st2" points="99,-16 86,-8 73,-16 73,-30 86,-38 99,-30 		"/>
		<polygon points="104,36.8 104,9.38 129,-6 154,9.38 154,36.8 129,52.18 		"/>
		<polygon class="st2" points="142,30.09 129,38.09 116,30.09 116,16.09 129,8.09 142,16.09 		"/>
		<polygon points="18,36.8 18,9.38 43,-6 68,9.38 68,36.8 43,52.18 		"/>
		<polygon class="st2" points="56,30.09 43,38.09 30,30.09 30,16.09 43,8.09 56,16.09 		"/>
		<rect x="80" y="-8" width="12" height="62"/>
		<rect x="37" y="-54" width="12" height="62"/>
		<rect x="123" y="-54" width="12" height="62"/>
		<rect x="43" y="-80" class="st3" width="86" height="160"/>
		<rect x="43" y="-80" class="st3" width="86" height="160"/>
		<polygon class="st0" points="215,66 172,40 129,66 129,-40 172,-66 215,-40 		"/>
		<polygon points="172,-80 129,-54 129,-40 172,-66 215,-40 215,-54 		"/>
		<polygon points="129,66 129,80 172,54 215,80 215,66 172,40 		"/>
		<polygon points="147,-9.29 147,-36.71 172,-52.09 197,-36.71 197,-9.29 172,6.09 		"/>
		<polygon class="st2" points="185,-16 172,-8 159,-16 159,-30 172,-38 185,-30 		"/>
		<polygon points="190,36.8 190,9.38 215,-6 240,9.38 240,36.8 215,52.18 		"/>
		<polygon class="st2" points="228,30.09 215,38.09 202,30.09 202,16.09 215,8.09 228,16.09 		"/>
		<polygon points="104,36.8 104,9.38 129,-6 154,9.38 154,36.8 129,52.18 		"/>
		<polygon class="st2" points="142,30.09 129,38.09 116,30.09 116,16.09 129,8.09 142,16.09 		"/>
		<rect x="166" y="-8" width="12" height="62"/>
		<rect x="123" y="-54" width="12" height="62"/>
		<rect x="209" y="-54" width="12" height="62"/>
		<rect x="129" y="-80" class="st3" width="86" height="160"/>
		<rect x="129" y="-80" class="st3" width="86" height="160"/>
		<polygon class="st0" points="301,546 258,520 215,546 215,440 258,414 301,440 		"/>
		<polygon points="258,400 215,426 215,440 258,414 301,440 301,426 		"/>
		<polygon points="215,546 215,560 258,534 301,560 301,546 258,520 		"/>
		<polygon points="233,470.71 233,443.29 258,427.91 283,443.29 283,470.71 258,486.09 		"/>
		<polygon class="st2" points="271,464 258,472 245,464 245,450 258,442 271,450 		"/>
		<polygon points="276,516.8 276,489.38 301,474 326,489.38 326,516.8 301,532.18 		"/>
		<polygon class="st2" points="314,510.09 301,518.09 288,510.09 288,496.09 301,488.09 314,496.09 		"/>
		<polygon points="190,516.8 190,489.38 215,474 240,489.38 240,516.8 215,532.18 		"/>
		<polygon class="st2" points="228,510.09 215,518.09 202,510.09 202,496.09 215,488.09 228,496.09 		"/>
		<rect x="252" y="472" width="12" height="62"/>
		<rect x="209" y="426" width="12" height="62"/>
		<rect x="295" y="426" width="12" height="62"/>
		<rect x="215" y="400" class="st3" width="86" height="160"/>
		<rect x="215" y="400" class="st3" width="86" height="160"/>
		<polygon class="st0" points="387,546 344,520 301,546 301,440 344,414 387,440 		"/>
		<polygon points="344,400 301,426 301,440 344,414 387,440 387,426 		"/>
		<polygon points="301,546 301,560 344,534 387,560 387,546 344,520 		"/>
		<polygon points="319,470.71 319,443.29 344,427.91 369,443.29 369,470.71 344,486.09 		"/>
		<polygon class="st2" points="357,464 344,472 331,464 331,450 344,442 357,450 		"/>
		<polygon points="362,516.8 362,489.38 387,474 412,489.38 412,516.8 387,532.18 		"/>
		<polygon class="st2" points="400,510.09 387,518.09 374,510.09 374,496.09 387,488.09 400,496.09 		"/>
		<polygon points="276,516.8 276,489.38 301,474 326,489.38 326,516.8 301,532.18 		"/>
		<polygon class="st2" points="314,510.09 301,518.09 288,510.09 288,496.09 301,488.09 314,496.09 		"/>
		<rect x="338" y="472" width="12" height="62"/>
		<rect x="295" y="426" width="12" height="62"/>
		<rect x="381" y="426" width="12" height="62"/>
		<rect x="301" y="400" class="st3" width="86" height="160"/>
		<rect x="301" y="400" class="st3" width="86" height="160"/>
		<polygon class="st0" points="473,546 430,520 387,546 387,440 430,414 473,440 		"/>
		<polygon points="430,400 387,426 387,440 430,414 473,440 473,426 		"/>
		<polygon points="387,546 387,560 430,534 473,560 473,546 430,520 		"/>
		<polygon points="405,470.71 405,443.29 430,427.91 455,443.29 455,470.71 430,486.09 		"/>
		<polygon class="st2" points="443,464 430,472 417,464 417,450 430,442 443,450 		"/>
		<polygon points="448,516.8 448,489.38 473,474 498,489.38 498,516.8 473,532.18 		"/>
		<polygon class="st2" points="486,510.09 473,518.09 460,510.09 460,496.09 473,488.09 486,496.09 		"/>
		<polygon points="362,516.8 362,489.38 387,474 412,489.38 412,516.8 387,532.18 		"/>
		<polygon class="st2" points="400,510.09 387,518.09 374,510.09 374,496.09 387,488.09 400,496.09 		"/>
		<rect x="424" y="472" width="12" height="62"/>
		<rect x="381" y="426" width="12" height="62"/>
		<rect x="467" y="426" width="12" height="62"/>
		<rect x="387" y="400" class="st3" width="86" height="160"/>
		<rect x="387" y="400" class="st3" width="86" height="160"/>
		<polygon class="st0" points="559,546 516,520 473,546 473,440 516,414 559,440 		"/>
		<polygon points="516,400 473,426 473,440 516,414 559,440 559,426 		"/>
		<polygon points="473,546 473,560 516,534 559,560 559,546 516,520 		"/>
		<polygon points="491,470.71 491,443.29 516,427.91 541,443.29 541,470.71 516,486.09 		"/>
		<polygon class="st2" points="529,464 516,472 503,464 503,450 516,442 529,450 		"/>
		<polygon points="534,516.8 534,489.38 559,474 584,489.38 584,516.8 559,532.18 		"/>
		<polygon class="st2" points="572,510.09 559,518.09 546,510.09 546,496.09 559,488.09 572,496.09 		"/>
		<polygon points="448,516.8 448,489.38 473,474 498,489.38 498,516.8 473,532.18 		"/>
		<polygon class="st2" points="486,510.09 473,518.09 460,510.09 460,496.09 473,488.09 486,496.09 		"/>
		<rect x="510" y="472" width="12" height="62"/>
		<rect x="467" y="426" width="12" height="62"/>
		<rect x="553" y="426" width="12" height="62"/>
		<rect x="473" y="400" class="st3" width="86" height="160"/>
		<rect x="473" y="400" class="st3" width="86" height="160"/>
		<polygon class="st0" points="645,546 602,520 559,546 559,440 602,414 645,440 		"/>
		<polygon points="602,400 559,426 559,440 602,414 645,440 645,426 		"/>
		<polygon points="559,546 559,560 602,534 645,560 645,546 602,520 		"/>
		<polygon points="577,470.71 577,443.29 602,427.91 627,443.29 627,470.71 602,486.09 		"/>
		<polygon class="st2" points="615,464 602,472 589,464 589,450 602,442 615,450 		"/>
		<polygon points="620,516.8 620,489.38 645,474 670,489.38 670,516.8 645,532.18 		"/>
		<polygon class="st2" points="658,510.09 645,518.09 632,510.09 632,496.09 645,488.09 658,496.09 		"/>
		<polygon points="534,516.8 534,489.38 559,474 584,489.38 584,516.8 559,532.18 		"/>
		<polygon class="st2" points="572,510.09 559,518.09 546,510.09 546,496.09 559,488.09 572,496.09 		"/>
		<rect x="596" y="472" width="12" height="62"/>
		<rect x="553" y="426" width="12" height="62"/>
		<rect x="639" y="426" width="12" height="62"/>
		<rect x="559" y="400" class="st3" width="86" height="160"/>
		<rect x="559" y="400" class="st3" width="86" height="160"/>
		<polygon class="st0" points="43,546 0,520 -43,546 -43,440 0,414 43,440 		"/>
		<polygon points="0,400 -43,426 -43,440 0,414 43,440 43,426 		"/>
		<polygon points="-43,546 -43,560 0,534 43,560 43,546 0,520 		"/>
		<polygon points="-25,470.71 -25,443.29 0,427.91 25,443.29 25,470.71 0,486.09 		"/>
		<polygon class="st2" points="13,464 0,472 -13,464 -13,450 0,442 13,450 		"/>
		<polygon points="18,516.8 18,489.38 43,474 68,489.38 68,516.8 43,532.18 		"/>
		<polygon class="st2" points="56,510.09 43,518.09 30,510.09 30,496.09 43,488.09 56,496.09 		"/>
		<polygon points="-68,516.8 -68,489.38 -43,474 -18,489.38 -18,516.8 -43,532.18 		"/>
		<polygon class="st2" points="-30,510.09 -43,518.09 -56,510.09 -56,496.09 -43,488.09 -30,496.09 		"/>
		<rect x="-6" y="472" width="12" height="62"/>
		<rect x="-49" y="426" width="12" height="62"/>
		<rect x="37" y="426" width="12" height="62"/>
		<rect x="-43" y="400" class="st3" width="86" height="160"/>
		<rect x="-43" y="400" class="st3" width="86" height="160"/>
		<polygon class="st0" points="129,546 86,520 43,546 43,440 86,414 129,440 		"/>
		<polygon points="86,400 43,426 43,440 86,414 129,440 129,426 		"/>
		<polygon points="43,546 43,560 86,534 129,560 129,546 86,520 		"/>
		<polygon points="61,470.71 61,443.29 86,427.91 111,443.29 111,470.71 86,486.09 		"/>
		<polygon class="st2" points="99,464 86,472 73,464 73,450 86,442 99,450 		"/>
		<polygon points="104,516.8 104,489.38 129,474 154,489.38 154,516.8 129,532.18 		"/>
		<polygon class="st2" points="142,510.09 129,518.09 116,510.09 116,496.09 129,488.09 142,496.09 		"/>
		<polygon points="18,516.8 18,489.38 43,474 68,489.38 68,516.8 43,532.18 		"/>
		<polygon class="st2" points="56,510.09 43,518.09 30,510.09 30,496.09 43,488.09 56,496.09 		"/>
		<rect x="80" y="472" width="12" height="62"/>
		<rect x="37" y="426" width="12" height="62"/>
		<rect x="123" y="426" width="12" height="62"/>
		<rect x="43" y="400" class="st3" width="86" height="160"/>
		<rect x="43" y="400" class="st3" width="86" height="160"/>
		<polygon class="st0" points="215,546 172,520 129,546 129,440 172,414 215,440 		"/>
		<polygon points="172,400 129,426 129,440 172,414 215,440 215,426 		"/>
		<polygon points="129,546 129,560 172,534 215,560 215,546 172,520 		"/>
		<polygon points="147,470.71 147,443.29 172,427.91 197,443.29 197,470.71 172,486.09 		"/>
		<polygon class="st2" points="185,464 172,472 159,464 159,450 172,442 185,450 		"/>
		<polygon points="190,516.8 190,489.38 215,474 240,489.38 240,516.8 215,532.18 		"/>
		<polygon class="st2" points="228,510.09 215,518.09 202,510.09 202,496.09 215,488.09 228,496.09 		"/>
		<polygon points="104,516.8 104,489.38 129,474 154,489.38 154,516.8 129,532.18 		"/>
		<polygon class="st2" points="142,510.09 129,518.09 116,510.09 116,496.09 129,488.09 142,496.09 		"/>
		<rect x="166" y="472" width="12" height="62"/>
		<rect x="123" y="426" width="12" height="62"/>
		<rect x="209" y="426" width="12" height="62"/>
		<rect x="129" y="400" class="st3" width="86" height="160"/>
		<rect x="129" y="400" class="st3" width="86" height="160"/>
		<polygon class="st0" points="301,666 258,640 215,666 215,560 258,534 301,560 		"/>
		<polygon points="258,520 215,546 215,560 258,534 301,560 301,546 		"/>
		<polygon points="215,666 215,680 258,654 301,680 301,666 258,640 		"/>
		<polygon points="233,590.71 233,563.29 258,547.91 283,563.29 283,590.71 258,606.09 		"/>
		<polygon class="st2" points="271,584 258,592 245,584 245,570 258,562 271,570 		"/>
		<polygon points="276,636.8 276,609.38 301,594 326,609.38 326,636.8 301,652.18 		"/>
		<polygon class="st2" points="314,630.09 301,638.09 288,630.09 288,616.09 301,608.09 314,616.09 		"/>
		<polygon points="190,636.8 190,609.38 215,594 240,609.38 240,636.8 215,652.18 		"/>
		<polygon class="st2" points="228,630.09 215,638.09 202,630.09 202,616.09 215,608.09 228,616.09 		"/>
		<rect x="252" y="592" width="12" height="62"/>
		<rect x="209" y="546" width="12" height="62"/>
		<rect x="295" y="546" width="12" height="62"/>
		<rect x="215" y="520" class="st3" width="86" height="160"/>
		<rect x="215" y="520" class="st3" width="86" height="160"/>
		<polygon class="st0" points="387,666 344,640 301,666 301,560 344,534 387,560 		"/>
		<polygon points="344,520 301,546 301,560 344,534 387,560 387,546 		"/>
		<polygon points="301,666 301,680 344,654 387,680 387,666 344,640 		"/>
		<polygon points="319,590.71 319,563.29 344,547.91 369,563.29 369,590.71 344,606.09 		"/>
		<polygon class="st2" points="357,584 344,592 331,584 331,570 344,562 357,570 		"/>
		<polygon points="362,636.8 362,609.38 387,594 412,609.38 412,636.8 387,652.18 		"/>
		<polygon class="st2" points="400,630.09 387,638.09 374,630.09 374,616.09 387,608.09 400,616.09 		"/>
		<polygon points="276,636.8 276,609.38 301,594 326,609.38 326,636.8 301,652.18 		"/>
		<polygon class="st2" points="314,630.09 301,638.09 288,630.09 288,616.09 301,608.09 314,616.09 		"/>
		<rect x="338" y="592" width="12" height="62"/>
		<rect x="295" y="546" width="12" height="62"/>
		<rect x="381" y="546" width="12" height="62"/>
		<rect x="301" y="520" class="st3" width="86" height="160"/>
		<rect x="301" y="520" class="st3" width="86" height="160"/>
		<polygon class="st0" points="473,666 430,640 387,666 387,560 430,534 473,560 		"/>
		<polygon points="430,520 387,546 387,560 430,534 473,560 473,546 		"/>
		<polygon points="387,666 387,680 430,654 473,680 473,666 430,640 		"/>
		<polygon points="405,590.71 405,563.29 430,547.91 455,563.29 455,590.71 430,606.09 		"/>
		<polygon class="st2" points="443,584 430,592 417,584 417,570 430,562 443,570 		"/>
		<polygon points="448,636.8 448,609.38 473,594 498,609.38 498,636.8 473,652.18 		"/>
		<polygon class="st2" points="486,630.09 473,638.09 460,630.09 460,616.09 473,608.09 486,616.09 		"/>
		<polygon points="362,636.8 362,609.38 387,594 412,609.38 412,636.8 387,652.18 		"/>
		<polygon class="st2" points="400,630.09 387,638.09 374,630.09 374,616.09 387,608.09 400,616.09 		"/>
		<rect x="424" y="592" width="12" height="62"/>
		<rect x="381" y="546" width="12" height="62"/>
		<rect x="467" y="546" width="12" height="62"/>
		<rect x="387" y="520" class="st3" width="86" height="160"/>
		<rect x="387" y="520" class="st3" width="86" height="160"/>
		<polygon class="st0" points="559,666 516,640 473,666 473,560 516,534 559,560 		"/>
		<polygon points="516,520 473,546 473,560 516,534 559,560 559,546 		"/>
		<polygon points="473,666 473,680 516,654 559,680 559,666 516,640 		"/>
		<polygon points="491,590.71 491,563.29 516,547.91 541,563.29 541,590.71 516,606.09 		"/>
		<polygon class="st2" points="529,584 516,592 503,584 503,570 516,562 529,570 		"/>
		<polygon points="534,636.8 534,609.38 559,594 584,609.38 584,636.8 559,652.18 		"/>
		<polygon class="st2" points="572,630.09 559,638.09 546,630.09 546,616.09 559,608.09 572,616.09 		"/>
		<polygon points="448,636.8 448,609.38 473,594 498,609.38 498,636.8 473,652.18 		"/>
		<polygon class="st2" points="486,630.09 473,638.09 460,630.09 460,616.09 473,608.09 486,616.09 		"/>
		<rect x="510" y="592" width="12" height="62"/>
		<rect x="467" y="546" width="12" height="62"/>
		<rect x="553" y="546" width="12" height="62"/>
		<rect x="473" y="520" class="st3" width="86" height="160"/>
		<rect x="473" y="520" class="st3" width="86" height="160"/>
		<polygon class="st0" points="645,666 602,640 559,666 559,560 602,534 645,560 		"/>
		<polygon points="602,520 559,546 559,560 602,534 645,560 645,546 		"/>
		<polygon points="559,666 559,680 602,654 645,680 645,666 602,640 		"/>
		<polygon points="577,590.71 577,563.29 602,547.91 627,563.29 627,590.71 602,606.09 		"/>
		<polygon class="st2" points="615,584 602,592 589,584 589,570 602,562 615,570 		"/>
		<polygon points="620,636.8 620,609.38 645,594 670,609.38 670,636.8 645,652.18 		"/>
		<polygon class="st2" points="658,630.09 645,638.09 632,630.09 632,616.09 645,608.09 658,616.09 		"/>
		<polygon points="534,636.8 534,609.38 559,594 584,609.38 584,636.8 559,652.18 		"/>
		<polygon class="st2" points="572,630.09 559,638.09 546,630.09 546,616.09 559,608.09 572,616.09 		"/>
		<rect x="596" y="592" width="12" height="62"/>
		<rect x="553" y="546" width="12" height="62"/>
		<rect x="639" y="546" width="12" height="62"/>
		<rect x="559" y="520" class="st3" width="86" height="160"/>
		<rect x="559" y="520" class="st3" width="86" height="160"/>
		<polygon class="st0" points="43,666 0,640 -43,666 -43,560 0,534 43,560 		"/>
		<polygon points="0,520 -43,546 -43,560 0,534 43,560 43,546 		"/>
		<polygon points="-43,666 -43,680 0,654 43,680 43,666 0,640 		"/>
		<polygon points="-25,590.71 -25,563.29 0,547.91 25,563.29 25,590.71 0,606.09 		"/>
		<polygon class="st2" points="13,584 0,592 -13,584 -13,570 0,562 13,570 		"/>
		<polygon points="18,636.8 18,609.38 43,594 68,609.38 68,636.8 43,652.18 		"/>
		<polygon class="st2" points="56,630.09 43,638.09 30,630.09 30,616.09 43,608.09 56,616.09 		"/>
		<polygon points="-68,636.8 -68,609.38 -43,594 -18,609.38 -18,636.8 -43,652.18 		"/>
		<polygon class="st2" points="-30,630.09 -43,638.09 -56,630.09 -56,616.09 -43,608.09 -30,616.09 		"/>
		<rect x="-6" y="592" width="12" height="62"/>
		<rect x="-49" y="546" width="12" height="62"/>
		<rect x="37" y="546" width="12" height="62"/>
		<rect x="-43" y="520" class="st3" width="86" height="160"/>
		<rect x="-43" y="520" class="st3" width="86" height="160"/>
		<polygon class="st0" points="129,666 86,640 43,666 43,560 86,534 129,560 		"/>
		<polygon points="86,520 43,546 43,560 86,534 129,560 129,546 		"/>
		<polygon points="43,666 43,680 86,654 129,680 129,666 86,640 		"/>
		<polygon points="61,590.71 61,563.29 86,547.91 111,563.29 111,590.71 86,606.09 		"/>
		<polygon class="st2" points="99,584 86,592 73,584 73,570 86,562 99,570 		"/>
		<polygon points="104,636.8 104,609.38 129,594 154,609.38 154,636.8 129,652.18 		"/>
		<polygon class="st2" points="142,630.09 129,638.09 116,630.09 116,616.09 129,608.09 142,616.09 		"/>
		<polygon points="18,636.8 18,609.38 43,594 68,609.38 68,636.8 43,652.18 		"/>
		<polygon class="st2" points="56,630.09 43,638.09 30,630.09 30,616.09 43,608.09 56,616.09 		"/>
		<rect x="80" y="592" width="12" height="62"/>
		<rect x="37" y="546" width="12" height="62"/>
		<rect x="123" y="546" width="12" height="62"/>
		<rect x="43" y="520" class="st3" width="86" height="160"/>
		<rect x="43" y="520" class="st3" width="86" height="160"/>
		<polygon class="st0" points="215,666 172,640 129,666 129,560 172,534 215,560 		"/>
		<polygon points="172,520 129,546 129,560 172,534 215,560 215,546 		"/>
		<polygon points="129,666 129,680 172,654 215,680 215,666 172,640 		"/>
		<polygon points="147,590.71 147,563.29 172,547.91 197,563.29 197,590.71 172,606.09 		"/>
		<polygon class="st2" points="185,584 172,592 159,584 159,570 172,562 185,570 		"/>
		<polygon points="190,636.8 190,609.38 215,594 240,609.38 240,636.8 215,652.18 		"/>
		<polygon class="st2" points="228,630.09 215,638.09 202,630.09 202,616.09 215,608.09 228,616.09 		"/>
		<polygon points="104,636.8 104,609.38 129,594 154,609.38 154,636.8 129,652.18 		"/>
		<polygon class="st2" points="142,630.09 129,638.09 116,630.09 116,616.09 129,608.09 142,616.09 		"/>
		<rect x="166" y="592" width="12" height="62"/>
		<rect x="123" y="546" width="12" height="62"/>
		<rect x="209" y="546" width="12" height="62"/>
		<rect x="129" y="520" class="st3" width="86" height="160"/>
		<rect x="129" y="520" class="st3" width="86" height="160"/>
		<polygon class="st0" points="301,426 258,400 215,426 215,320 258,294 301,320 		"/>
		<polygon points="258,280 215,306 215,320 258,294 301,320 301,306 		"/>
		<polygon points="215,426 215,440 258,414 301,440 301,426 258,400 		"/>
		<polygon points="233,350.71 233,323.29 258,307.91 283,323.29 283,350.71 258,366.09 		"/>
		<polygon class="st2" points="271,344 258,352 245,344 245,330 258,322 271,330 		"/>
		<polygon points="276,396.8 276,369.38 301,354 326,369.38 326,396.8 301,412.18 		"/>
		<polygon class="st2" points="314,390.09 301,398.09 288,390.09 288,376.09 301,368.09 314,376.09 		"/>
		<polygon points="190,396.8 190,369.38 215,354 240,369.38 240,396.8 215,412.18 		"/>
		<polygon class="st2" points="228,390.09 215,398.09 202,390.09 202,376.09 215,368.09 228,376.09 		"/>
		<rect x="252" y="352" width="12" height="62"/>
		<rect x="209" y="306" width="12" height="62"/>
		<rect x="295" y="306" width="12" height="62"/>
		<rect x="215" y="280" class="st3" width="86" height="160"/>
		<rect x="215" y="280" class="st3" width="86" height="160"/>
		<polygon class="st0" points="387,426 344,400 301,426 301,320 344,294 387,320 		"/>
		<polygon points="344,280 301,306 301,320 344,294 387,320 387,306 		"/>
		<polygon points="301,426 301,440 344,414 387,440 387,426 344,400 		"/>
		<polygon points="319,350.71 319,323.29 344,307.91 369,323.29 369,350.71 344,366.09 		"/>
		<polygon class="st2" points="357,344 344,352 331,344 331,330 344,322 357,330 		"/>
		<polygon points="362,396.8 362,369.38 387,354 412,369.38 412,396.8 387,412.18 		"/>
		<polygon class="st2" points="400,390.09 387,398.09 374,390.09 374,376.09 387,368.09 400,376.09 		"/>
		<polygon points="276,396.8 276,369.38 301,354 326,369.38 326,396.8 301,412.18 		"/>
		<polygon class="st2" points="314,390.09 301,398.09 288,390.09 288,376.09 301,368.09 314,376.09 		"/>
		<rect x="338" y="352" width="12" height="62"/>
		<rect x="295" y="306" width="12" height="62"/>
		<rect x="381" y="306" width="12" height="62"/>
		<rect x="301" y="280" class="st3" width="86" height="160"/>
		<rect x="301" y="280" class="st3" width="86" height="160"/>
		<polygon class="st0" points="473,426 430,400 387,426 387,320 430,294 473,320 		"/>
		<polygon points="430,280 387,306 387,320 430,294 473,320 473,306 		"/>
		<polygon points="387,426 387,440 430,414 473,440 473,426 430,400 		"/>
		<polygon points="405,350.71 405,323.29 430,307.91 455,323.29 455,350.71 430,366.09 		"/>
		<polygon class="st2" points="443,344 430,352 417,344 417,330 430,322 443,330 		"/>
		<polygon points="448,396.8 448,369.38 473,354 498,369.38 498,396.8 473,412.18 		"/>
		<polygon class="st2" points="486,390.09 473,398.09 460,390.09 460,376.09 473,368.09 486,376.09 		"/>
		<polygon points="362,396.8 362,369.38 387,354 412,369.38 412,396.8 387,412.18 		"/>
		<polygon class="st2" points="400,390.09 387,398.09 374,390.09 374,376.09 387,368.09 400,376.09 		"/>
		<rect x="424" y="352" width="12" height="62"/>
		<rect x="381" y="306" width="12" height="62"/>
		<rect x="467" y="306" width="12" height="62"/>
		<rect x="387" y="280" class="st3" width="86" height="160"/>
		<rect x="387" y="280" class="st3" width="86" height="160"/>
		<polygon class="st0" points="559,426 516,400 473,426 473,320 516,294 559,320 		"/>
		<polygon points="516,280 473,306 473,320 516,294 559,320 559,306 		"/>
		<polygon points="473,426 473,440 516,414 559,440 559,426 516,400 		"/>
		<polygon points="491,350.71 491,323.29 516,307.91 541,323.29 541,350.71 516,366.09 		"/>
		<polygon class="st2" points="529,344 516,352 503,344 503,330 516,322 529,330 		"/>
		<polygon points="534,396.8 534,369.38 559,354 584,369.38 584,396.8 559,412.18 		"/>
		<polygon class="st2" points="572,390.09 559,398.09 546,390.09 546,376.09 559,368.09 572,376.09 		"/>
		<polygon points="448,396.8 448,369.38 473,354 498,369.38 498,396.8 473,412.18 		"/>
		<polygon class="st2" points="486,390.09 473,398.09 460,390.09 460,376.09 473,368.09 486,376.09 		"/>
		<rect x="510" y="352" width="12" height="62"/>
		<rect x="467" y="306" width="12" height="62"/>
		<rect x="553" y="306" width="12" height="62"/>
		<rect x="473" y="280" class="st3" width="86" height="160"/>
		<rect x="473" y="280" class="st3" width="86" height="160"/>
		<polygon class="st0" points="645,426 602,400 559,426 559,320 602,294 645,320 		"/>
		<polygon points="602,280 559,306 559,320 602,294 645,320 645,306 		"/>
		<polygon points="559,426 559,440 602,414 645,440 645,426 602,400 		"/>
		<polygon points="577,350.71 577,323.29 602,307.91 627,323.29 627,350.71 602,366.09 		"/>
		<polygon class="st2" points="615,344 602,352 589,344 589,330 602,322 615,330 		"/>
		<polygon points="620,396.8 620,369.38 645,354 670,369.38 670,396.8 645,412.18 		"/>
		<polygon class="st2" points="658,390.09 645,398.09 632,390.09 632,376.09 645,368.09 658,376.09 		"/>
		<polygon points="534,396.8 534,369.38 559,354 584,369.38 584,396.8 559,412.18 		"/>
		<polygon class="st2" points="572,390.09 559,398.09 546,390.09 546,376.09 559,368.09 572,376.09 		"/>
		<rect x="596" y="352" width="12" height="62"/>
		<rect x="553" y="306" width="12" height="62"/>
		<rect x="639" y="306" width="12" height="62"/>
		<rect x="559" y="280" class="st3" width="86" height="160"/>
		<rect x="559" y="280" class="st3" width="86" height="160"/>
		<polygon class="st0" points="43,426 0,400 -43,426 -43,320 0,294 43,320 		"/>
		<polygon points="0,280 -43,306 -43,320 0,294 43,320 43,306 		"/>
		<polygon points="-43,426 -43,440 0,414 43,440 43,426 0,400 		"/>
		<polygon points="-25,350.71 -25,323.29 0,307.91 25,323.29 25,350.71 0,366.09 		"/>
		<polygon class="st2" points="13,344 0,352 -13,344 -13,330 0,322 13,330 		"/>
		<polygon points="18,396.8 18,369.38 43,354 68,369.38 68,396.8 43,412.18 		"/>
		<polygon class="st2" points="56,390.09 43,398.09 30,390.09 30,376.09 43,368.09 56,376.09 		"/>
		<polygon points="-68,396.8 -68,369.38 -43,354 -18,369.38 -18,396.8 -43,412.18 		"/>
		<polygon class="st2" points="-30,390.09 -43,398.09 -56,390.09 -56,376.09 -43,368.09 -30,376.09 		"/>
		<rect x="-6" y="352" width="12" height="62"/>
		<rect x="-49" y="306" width="12" height="62"/>
		<rect x="37" y="306" width="12" height="62"/>
		<rect x="-43" y="280" class="st3" width="86" height="160"/>
		<rect x="-43" y="280" class="st3" width="86" height="160"/>
		<polygon class="st0" points="129,426 86,400 43,426 43,320 86,294 129,320 		"/>
		<polygon points="86,280 43,306 43,320 86,294 129,320 129,306 		"/>
		<polygon points="43,426 43,440 86,414 129,440 129,426 86,400 		"/>
		<polygon points="61,350.71 61,323.29 86,307.91 111,323.29 111,350.71 86,366.09 		"/>
		<polygon class="st2" points="99,344 86,352 73,344 73,330 86,322 99,330 		"/>
		<polygon points="104,396.8 104,369.38 129,354 154,369.38 154,396.8 129,412.18 		"/>
		<polygon class="st2" points="142,390.09 129,398.09 116,390.09 116,376.09 129,368.09 142,376.09 		"/>
		<polygon points="18,396.8 18,369.38 43,354 68,369.38 68,396.8 43,412.18 		"/>
		<polygon class="st2" points="56,390.09 43,398.09 30,390.09 30,376.09 43,368.09 56,376.09 		"/>
		<rect x="80" y="352" width="12" height="62"/>
		<rect x="37" y="306" width="12" height="62"/>
		<rect x="123" y="306" width="12" height="62"/>
		<rect x="43" y="280" class="st3" width="86" height="160"/>
		<rect x="43" y="280" class="st3" width="86" height="160"/>
		<polygon class="st0" points="215,426 172,400 129,426 129,320 172,294 215,320 		"/>
		<polygon points="172,280 129,306 129,320 172,294 215,320 215,306 		"/>
		<polygon points="129,426 129,440 172,414 215,440 215,426 172,400 		"/>
		<polygon points="147,350.71 147,323.29 172,307.91 197,323.29 197,350.71 172,366.09 		"/>
		<polygon class="st2" points="185,344 172,352 159,344 159,330 172,322 185,330 		"/>
		<polygon points="190,396.8 190,369.38 215,354 240,369.38 240,396.8 215,412.18 		"/>
		<polygon class="st2" points="228,390.09 215,398.09 202,390.09 202,376.09 215,368.09 228,376.09 		"/>
		<polygon points="104,396.8 104,369.38 129,354 154,369.38 154,396.8 129,412.18 		"/>
		<polygon class="st2" points="142,390.09 129,398.09 116,390.09 116,376.09 129,368.09 142,376.09 		"/>
		<rect x="166" y="352" width="12" height="62"/>
		<rect x="123" y="306" width="12" height="62"/>
		<rect x="209" y="306" width="12" height="62"/>
		<rect x="129" y="280" class="st3" width="86" height="160"/>
		<rect x="129" y="280" class="st3" width="86" height="160"/>
	</g>
</g>
</svg>
