<svg id="Layer_1" data-name="Layer 1" xmlns="http://www.w3.org/2000/svg" xmlns:xlink="http://www.w3.org/1999/xlink" viewBox="0 0 761 379.4"><defs><style>.cls-1,.cls-2,.cls-3{opacity:0.8;}.cls-1,.cls-2,.cls-3,.cls-6{isolation:isolate;}.cls-1{fill:url(#linear-gradient);}.cls-2{fill:url(#linear-gradient-2);}.cls-3{fill:url(#linear-gradient-3);}.cls-4{fill:#fff;}.cls-5{fill:none;}</style><linearGradient id="linear-gradient" x1="567.17" y1="456.38" x2="887.37" y2="456.38" gradientTransform="matrix(1.58, 0.04, 0.22, 1.03, -840.74, -219.11)" gradientUnits="userSpaceOnUse"><stop offset="0" stop-color="#fff" stop-opacity="0.7"/><stop offset="0.14" stop-color="#fff"/><stop offset="1" stop-color="#fff"/></linearGradient><linearGradient id="linear-gradient-2" x1="1020.15" y1="339.75" x2="1337.35" y2="339.75" gradientTransform="matrix(-0.43, 0.85, -0.88, -0.48, 1389.66, -614.38)" xlink:href="#linear-gradient"/><linearGradient id="linear-gradient-3" x1="735.95" y1="446.29" x2="1064.84" y2="446.29" gradientTransform="matrix(0.25, 0.88, -0.97, 0.23, 838.7, -702.65)" xlink:href="#linear-gradient"/></defs><title>title</title><g id="background"><rect width="761" height="379.4"/></g><g id="lights"><polyline class="cls-1" points="149.4 249.1 153.3 228.4 667.7 326.4 667 330.6"/><polyline class="cls-2" points="673.7 99.7 673.7 131.7 484.1 339.7 481 336.8"/><polyline class="cls-3" points="615.2 39.3 636.2 39.5 635.1 342.8 630.9 342.7"/></g><g id="statue"><path class="cls-4" d="M84.3,30.3c1.7,0.3,8.9,1,12.1,6.6,1.8,3,1.6,6,1.4,10.3-0.4,7.1-3.4,8.2-3.4,14.3,0,2.4-.1,7.1,3.1,10.5,3.5,3.7,7.4,2.2,13,5.1,7,3.7,9.9,10.8,10.8,12.9,1.3,3.3,1.3,5.4-2,25.6-2.7,16.3-3.5,20.1-7.3,22.6-3.3,2.2-7,2.3-8.2,5.4-0.9,2.5.8,4.4,2,8.6a28.92,28.92,0,0,1,.6,12.7,59.92,59.92,0,0,1-.9,15.9c-1.8,10.1-4.8,12.8-5.7,22.1-0.5,5.7.5,6.4,0.9,14.8,0.1,2.3.3,8.8-1.4,24-3.3,28.5-7.5,36.2-2,41.5a22.76,22.76,0,0,0,11.9,5.4c4.6,0.6,6.1-1,9.6.3,4.8,1.7,4.2,5.6,9,7.8,2.6,1.2,1.8.5,7.9,0.7l8.2,45.4H84.3C84.3,342.7,84.3,29.9,84.3,30.3Z"/><path d="M83.3,31.8c1.5,0.3,7.8,1,10.7,6.6,1.6,3,1.4,6.1,1.2,10.3-0.3,7.2-3,8.2-3,14.3,0,2.4-.1,7.1,2.8,10.5,3.1,3.8,6.5,2.2,11.4,5.1,6.2,3.7,8.7,10.8,9.4,13,1.1,3.2,1.2,5.4-1.7,25.7-2.3,16.4-1.3,14.3-4.6,16.9-3,2.3-11.4,6.7-12.4,9.8-0.8,2.5,4.1,5.9,5.1,10.1a32.77,32.77,0,0,1,.5,12.7,71.08,71.08,0,0,1-.8,15.9c-1.6,10.1-4.2,12.9-5,22.2-0.5,5.7.4,6.5,0.8,14.9,0.1,2.4.3,8.8-1.2,24-2.9,28.5-8.2,39.1-3.4,44.5,1.6,1.8,6.7,4.7,11.6,5.4,4.1,0.5,5.3-.8,8.3.5,4.2,1.7,4.3,2.5,8.5,4.7,2.3,1.2,2.4,5.9,7.8,6.1l6.3,40.1H83.2C83.3,345,83.3,31.4,83.3,31.8Z"/></g><g id="title"><rect class="cls-5" x="207.8" y="133.8" width="341.4" height="38.6"/><g class="cls-6"><path class="cls-4" d="M214.56,134.83l2.61,16.41,2.64-16.41h7L221,159.94h-7.75l-5.74-25.11h7Z"/><path class="cls-4" d="M231.14,132.51a3.8,3.8,0,1,1-3.8,3.8A3.74,3.74,0,0,1,231.14,132.51Zm-3.2,9.83h6.37v17.61h-6.37V142.34Z"/><path class="cls-4" d="M242.09,155.47a1.09,1.09,0,0,0,1.23-1c0-.92-1.48-1.2-3.42-2.25-2.18-1.2-3.24-2.68-3.24-4.72,0-3.1,2.54-5.63,6.48-5.63a11.87,11.87,0,0,1,6,1.87l-2.57,3.73a5,5,0,0,0-2.71-1.16,1.06,1.06,0,0,0-1.27.88c0,1,1.23,1.16,2.85,2.08,2.68,1.48,3.94,2.92,3.94,5.18,0,3.35-2.71,6-6.48,6a12,12,0,0,1-7-2.5l2.71-4.16A5.83,5.83,0,0,0,242.09,155.47Z"/><path class="cls-4" d="M257.34,142.34V153.5a1.2,1.2,0,0,0,1.27,1.34,1.18,1.18,0,0,0,1.23-1.34V142.34h6.37V152.9c0,5-2.54,7.54-7.61,7.54S251,157.9,251,152.9V142.34h6.34Z"/><path class="cls-4" d="M277.91,158c-1.23,1.62-2.5,2.43-4.16,2.43-3.42,0-5.6-3.28-5.6-9.3s2.15-9.3,5.6-9.3a5,5,0,0,1,4.16,2.39v-1.9h6.37v17.61h-6.37V158Zm-1.73-3.1c1,0,1.58-1.27,1.58-3.77s-0.56-3.8-1.58-3.8-1.55,1.3-1.55,3.8S275.16,154.91,276.18,154.91Z"/><path class="cls-4" d="M286.85,132.54h6.37v27.4h-6.37v-27.4Z"/><path class="cls-4" d="M299.28,132.51a3.8,3.8,0,1,1-3.8,3.8A3.74,3.74,0,0,1,299.28,132.51Zm-3.2,9.83h6.37v17.61h-6.37V142.34Z"/><path class="cls-4" d="M309.21,147.9h-4.51v-5.56h13.77l-5.63,11.8h5.11v5.81H303.4Z"/><path class="cls-4" d="M323.37,132.51a3.8,3.8,0,1,1-3.8,3.8A3.74,3.74,0,0,1,323.37,132.51Zm-3.2,9.83h6.37v17.61h-6.37V142.34Z"/><path class="cls-4" d="M329.14,142.34h6.13v2.61A5.36,5.36,0,0,1,340.2,142c2.68,0,4.09,1.62,4.09,4.68v13.24h-6.34V149.7c0-1.09-.42-1.62-1.23-1.62s-1.23.63-1.23,1.73v10.14h-6.34V142.34Z"/><path class="cls-4" d="M361.44,142.3v16.83c0,4.61-2.85,7.18-7.85,7.18-4.33,0-6.66-1.9-7-5.78H352a1.52,1.52,0,0,0,1.62,1.55c1.13,0,1.8-.74,1.8-2.32v-3a4.6,4.6,0,0,1-3.94,2.32c-3.24,0-5.35-3-5.35-8.63s2-8.63,5.32-8.63a4.89,4.89,0,0,1,4,2.22V142.3h6.06Zm-7.5,11.83c1,0,1.44-1.2,1.44-3.59s-0.49-3.66-1.44-3.66-1.51,1.27-1.51,3.66S352.95,154.13,353.94,154.13Z"/><path class="cls-4" d="M381.51,134.34c5.88,0,9.37,4.65,9.37,13.07s-3.49,13-9.37,13-9.4-4.61-9.4-13S375.63,134.34,381.51,134.34Zm0,19.69c1.9,0,2.29-2.11,2.29-6.8s-0.39-6.8-2.29-6.8-2.32,2.15-2.32,6.8S379.61,154,381.51,154Z"/><path class="cls-4" d="M397.85,155.47a1.09,1.09,0,0,0,1.23-1c0-.92-1.48-1.2-3.42-2.25-2.18-1.2-3.24-2.68-3.24-4.72,0-3.1,2.54-5.63,6.48-5.63a11.86,11.86,0,0,1,6,1.87l-2.57,3.73a5,5,0,0,0-2.71-1.16,1.06,1.06,0,0,0-1.27.88c0,1,1.23,1.16,2.85,2.08,2.68,1.48,3.94,2.92,3.94,5.18,0,3.35-2.71,6-6.48,6a12,12,0,0,1-7-2.5l2.71-4.16A5.83,5.83,0,0,0,397.85,155.47Z"/><path class="cls-4" d="M413.52,160.44c-4.44,0-7.32-3.42-7.32-9.3s3.06-9.3,7.39-9.3a7.05,7.05,0,0,1,3.24.7v5.39a2.58,2.58,0,0,0-1.41-.39c-1.27,0-2.18,1.27-2.18,3.59s0.74,3.38,2.18,3.38a3.57,3.57,0,0,0,1.41-.35v5.49A6.41,6.41,0,0,1,413.52,160.44Z"/><path class="cls-4" d="M428.06,158c-1.23,1.62-2.5,2.43-4.16,2.43-3.42,0-5.6-3.28-5.6-9.3s2.15-9.3,5.6-9.3a5,5,0,0,1,4.16,2.39v-1.9h6.37v17.61h-6.37V158Zm-1.73-3.1c1,0,1.58-1.27,1.58-3.77s-0.56-3.8-1.58-3.8-1.55,1.3-1.55,3.8S425.31,154.91,426.34,154.91Z"/><path class="cls-4" d="M436.76,142.34h6v2.46a5.94,5.94,0,0,1,4.79-3V148h-0.14c-3.21,0-4.23,1.09-4.23,4v7.85h-6.41V142.34Z"/><path class="cls-4" d="M454.26,155.47a1.09,1.09,0,0,0,1.23-1c0-.92-1.48-1.2-3.42-2.25-2.18-1.2-3.24-2.68-3.24-4.72,0-3.1,2.54-5.63,6.48-5.63a11.87,11.87,0,0,1,6,1.87l-2.57,3.73a5,5,0,0,0-2.71-1.16,1.06,1.06,0,0,0-1.27.88c0,1,1.23,1.16,2.85,2.08,2.68,1.48,3.94,2.92,3.94,5.18,0,3.35-2.71,6-6.48,6a12,12,0,0,1-7-2.5l2.71-4.16A5.83,5.83,0,0,0,454.26,155.47Z"/><path class="cls-4" d="M480.5,141.67c0-1.41-.56-2.11-1.62-2.11-1.34,0-1.58,1.41-1.62,4.51h-5.88c0-.32,0-0.63,0-1,0-5.74,2.78-8.77,8-8.77,5,0,8,2.71,8,7,0,3.7-2,7.61-5.56,12.68h5.07v6h-16C477.11,150.89,480.5,145,480.5,141.67Z"/><path class="cls-4" d="M496.87,134.34c4.93,0,8,4.68,8,13.07s-3.1,13-8,13-8.06-4.61-8.06-13S491.94,134.34,496.87,134.34Zm0,19.62c1.37,0,1.62-2.18,1.62-6.76s-0.25-6.76-1.62-6.76-1.65,2.18-1.65,6.76S495.5,154,496.87,154Z"/><path class="cls-4" d="M511.31,140.68H509v-5.85h8.91v25.11h-6.58V140.68Z"/><path class="cls-4" d="M532.72,140.68h-8.1v-5.85h16.8l-9.93,25.11H523.6Z"/></g><rect class="cls-5" x="208" y="163.2" width="295.6" height="38.6"/><g class="cls-6"><path class="cls-4" d="M212.3,201.35V182.61h-4.16v-6.37H223.5v6.38h-4.16v18.74h-7Z"/><path class="cls-4" d="M224.77,174h6.34v12a5.29,5.29,0,0,1,4.72-2.64c2.68,0,4.09,1.66,4.09,4.72v13.28h-6.34V191.07c0-1.09-.42-1.59-1.23-1.59s-1.23.6-1.23,1.69v10.18h-6.34V174Z"/><path class="cls-4" d="M242.2,183.74h6v2.46a5.94,5.94,0,0,1,4.79-3v6.2h-0.14c-3.2,0-4.23,1.09-4.23,4.05v7.85H242.2V183.74Z"/><path class="cls-4" d="M262.13,183.25c5.18,0,8.14,3.38,8.14,9.3s-3,9.3-8.14,9.3-8.17-3.35-8.17-9.3S257,183.25,262.13,183.25Zm0,13.14c1.06,0,1.58-1.34,1.58-3.94s-0.53-3.87-1.58-3.87-1.58,1.27-1.58,3.87S261.07,196.38,262.13,196.38Z"/><path class="cls-4" d="M278.29,183.74v11.16a1.2,1.2,0,0,0,1.27,1.34,1.18,1.18,0,0,0,1.23-1.34V183.74h6.37v10.57c0,5-2.54,7.54-7.61,7.54s-7.61-2.54-7.61-7.54V183.74h6.34Z"/><path class="cls-4" d="M304.25,183.71v16.83c0,4.61-2.85,7.18-7.85,7.18-4.33,0-6.66-1.9-7-5.78h5.35a1.52,1.52,0,0,0,1.62,1.55c1.13,0,1.8-.74,1.8-2.32v-3a4.6,4.6,0,0,1-3.94,2.32c-3.24,0-5.35-3-5.35-8.63s2-8.63,5.32-8.63a4.89,4.89,0,0,1,4,2.22v-1.76h6.06Zm-7.5,11.83c1,0,1.44-1.2,1.44-3.59s-0.49-3.66-1.44-3.66-1.51,1.27-1.51,3.66S295.76,195.54,296.75,195.54Z"/><path class="cls-4" d="M306.75,174h6.34v12a5.29,5.29,0,0,1,4.72-2.64c2.68,0,4.09,1.66,4.09,4.72v13.28h-6.34V191.07c0-1.09-.42-1.59-1.23-1.59s-1.23.6-1.23,1.69v10.18h-6.34V174Z"/><path class="cls-4" d="M336,201.35V182.61h-4.16v-6.37h15.35v6.38H343v18.74h-7Z"/><path class="cls-4" d="M350.63,183.74l1.73,10.88,1.55-10.88h5.21l1.55,10.88,1.73-10.88h5.92l-4.37,17.61h-5.67L356.51,191l-1.73,10.32h-5.67l-4.37-17.61h5.88Z"/><path class="cls-4" d="M372.67,173.92a3.8,3.8,0,1,1-3.8,3.8A3.74,3.74,0,0,1,372.67,173.92Zm-3.2,9.83h6.37v17.61h-6.37V183.74Z"/><path class="cls-4" d="M379.5,189.31h-2.11v-5.56h2.11v-5.18h6.41v5.18h2.29v5.56h-2.29v12H379.5v-12Z"/><path class="cls-4" d="M390.49,189.31h-2.11v-5.56h2.11v-5.18h6.41v5.18h2.29v5.56H396.9v12h-6.41v-12Z"/><path class="cls-4" d="M407.5,201.84c-4.93,0-7.75-3.28-7.75-9.23s2.89-9.37,7.71-9.37c5.28,0,7.89,2.89,7.89,8.77,0,0.39,0,.85,0,1.27H406v0.25c0,2.46.49,3.63,1.87,3.63,1,0,1.58-.63,1.87-2h5.35A7.13,7.13,0,0,1,407.5,201.84Zm2.25-11.52c0-2-.63-3-1.9-3-1,0-1.58,1-1.87,3h3.77Z"/><path class="cls-4" d="M417.15,183.74h6v2.46a5.94,5.94,0,0,1,4.79-3v6.2h-0.14c-3.21,0-4.23,1.09-4.23,4.05v7.85h-6.41V183.74Z"/></g></g></svg>