<?xml version="1.0" encoding="utf-8"?>
<!-- Generator: Adobe Illustrator 19.2.1, SVG Export Plug-In . SVG Version: 6.00 Build 0)  -->
<svg version="1.1" id="Layer_1" xmlns="http://www.w3.org/2000/svg" xmlns:xlink="http://www.w3.org/1999/xlink" x="0px" y="0px"
	 viewBox="0 0 75.4 75.4" style="enable-background:new 0 0 75.4 75.4;" xml:space="preserve">
<path d="M0,0v75.4h75.4V0H0z M46.2,63.2c-1.3,0.2-1.8-0.6-1.8-1.3c0-0.9,0-3.7,0-7.2c0-2.4-0.9-4-1.8-4.8c5.9-0.6,12-2.8,12-12.9
	c0-2.8-1-5.2-2.7-7c0.2-0.6,1.1-3.3-0.3-6.9c0,0-2.2-0.7-7.2,2.7c-2.1-0.6-4.4-0.9-6.6-0.9c-2.3,0-4.5,0.3-6.6,0.9
	c-5-3.4-7.2-2.7-7.2-2.7c-1.5,3.6-0.6,6.2-0.3,6.9C22,31.8,21,34.1,21,37c0,10,6.1,12.2,12,12.9c-0.8,0.7-1.5,1.8-1.7,3.5
	c-1.5,0.6-5.3,1.8-7.6-2.2c0,0-1.4-2.5-4-2.7c0,0-2.6,0-0.2,1.6c0,0,1.7,0.8,2.9,3.8c0,0,1.5,5.1,8.8,3.5c0,2.2,0,3.9,0,4.5
	c0,0.7-0.5,1.5-1.8,1.3C19,59.8,11.5,50,11.5,38.4c0-14.5,11.7-26.2,26.2-26.2c14.4,0,26.2,11.7,26.4,26.2
	C64.1,49.9,56.6,59.7,46.2,63.2z"/>
</svg>
