<?xml version="1.0" encoding="utf-8"?>
<!-- Generator: Adobe Illustrator 19.2.1, SVG Export Plug-In . SVG Version: 6.00 Build 0)  -->
<svg version="1.1" id="Layer_1" xmlns="http://www.w3.org/2000/svg" xmlns:xlink="http://www.w3.org/1999/xlink" x="0px" y="0px"
	 viewBox="0 0 75.4 75.4" style="enable-background:new 0 0 75.4 75.4;" xml:space="preserve">
<style type="text/css">
	.st0{fill:#FFFFFF;}
</style>
<g>
	<rect width="75.4" height="75.4"/>
	<path class="st0" d="M37.7,12.2c-14.5,0-26.2,11.7-26.2,26.2c0,11.6,7.5,21.4,17.9,24.8c1.3,0.2,1.8-0.6,1.8-1.3c0-0.6,0-2.3,0-4.5
		c-7.3,1.6-8.8-3.5-8.8-3.5c-1.2-3-2.9-3.8-2.9-3.8c-2.4-1.6,0.2-1.6,0.2-1.6c2.6,0.2,4,2.7,4,2.7c2.3,4,6.1,2.8,7.6,2.2
		c0.2-1.7,0.9-2.8,1.7-3.5C27.1,49.2,21,47,21,37c0-2.9,1-5.2,2.7-7c-0.3-0.7-1.2-3.3,0.3-6.9c0,0,2.2-0.7,7.2,2.7
		c2.1-0.6,4.3-0.9,6.6-0.9c2.2,0,4.5,0.3,6.6,0.9c5-3.4,7.2-2.7,7.2-2.7c1.4,3.6,0.5,6.3,0.3,6.9c1.7,1.8,2.7,4.2,2.7,7
		c0,10.1-6.1,12.3-12,12.9c0.9,0.8,1.8,2.4,1.8,4.8c0,3.5,0,6.3,0,7.2c0,0.7,0.5,1.5,1.8,1.3c10.4-3.5,17.9-13.3,17.9-24.8
		C63.9,23.9,52.1,12.2,37.7,12.2"/>
</g>
</svg>
