<?xml version="1.0" encoding="utf-8"?>
<!-- Generator: Adobe Illustrator 19.2.1, SVG Export Plug-In . SVG Version: 6.00 Build 0)  -->
<svg version="1.1" id="Layer_1" xmlns="http://www.w3.org/2000/svg" xmlns:xlink="http://www.w3.org/1999/xlink" x="0px" y="0px"
	 viewBox="0 0 75.4 75.4" style="enable-background:new 0 0 75.4 75.4;" xml:space="preserve">
<g>
	<path d="M30.1,13c-1.2-0.9-2.5-1.3-4.1-1.4c-2,0-3.7,0.9-5.1,2.5c-1.1,1.7-1.7,3.5-1.6,5.6c0,2.7,0.8,5.5,2.4,8.5
		c0.8,1.4,1.8,2.5,3,3.5c1.3,0.8,2.6,1.3,4.2,1.3c2-0.1,3.6-0.8,4.9-2.1c0.6-1,1-1.9,1.2-2.9c0.1-1,0.2-1.8,0.2-2.5
		c0-3-0.8-5.9-2.3-9C32.2,15.1,31.3,13.9,30.1,13z"/>
	<path d="M29.6,45c-0.4,0-1.4,0-2.9,0.1c-1.6,0.2-3.1,0.6-4.8,1.1c-0.4,0.1-0.9,0.4-1.6,0.7s-1.4,0.8-2.1,1.4
		c-0.7,0.6-1.3,1.4-1.8,2.3c-0.6,1-0.8,2.1-0.8,3.4c0,2.6,1.2,4.8,3.6,6.5c2.3,1.7,5.4,2.6,9.3,2.6c3.5-0.1,6.2-0.8,8.1-2.3
		c1.9-1.5,2.8-3.4,2.8-5.8c0-1.9-0.6-3.6-1.9-5c-1.3-1.3-3.4-3-6.2-4.9C30.8,45.1,30.3,45,29.6,45z"/>
	<path d="M0,0v75.4h75.4V0H0z M38.1,13.1c0.6,0.6,1.1,1.3,1.7,2.2c0.5,0.8,1,1.8,1.4,2.9c0.3,1.1,0.5,2.4,0.5,3.8
		c0,2.7-0.6,4.8-1.8,6.4c-0.6,0.8-1.2,1.5-1.8,2.2c-0.7,0.7-1.4,1.3-2.2,2c-0.4,0.5-0.9,1-1.2,1.6c-0.4,0.6-0.7,1.3-0.7,2.1
		c0,0.8,0.2,1.4,0.7,1.9c0.4,0.5,0.8,0.9,1.1,1.3l2.5,2.1c1.6,1.3,3,2.7,4.2,4.3c1.1,1.6,1.7,3.7,1.8,6.2c0,3.6-1.6,6.9-4.8,9.7
		c-3.3,2.9-8.1,4.4-14.4,4.5c-5.3,0-9.2-1.2-11.8-3.4c-2.6-2-3.9-4.5-3.9-7.3c0-1.4,0.4-2.9,1.3-4.6c0.8-1.7,2.3-3.2,4.5-4.5
		c2.4-1.4,5-2.3,7.7-2.8c2.7-0.4,4.9-0.6,6.6-0.7c-0.5-0.7-1-1.5-1.4-2.3c-0.5-0.8-0.7-1.7-0.7-2.8c0-0.7,0.1-1.2,0.3-1.7
		s0.3-0.9,0.5-1.3C27.3,35,26.5,35,25.8,35c-4,0-7-1.3-9.1-3.8c-2.2-2.3-3.3-5-3.3-8c0-3.7,1.6-7,4.7-10c2.1-1.8,4.4-2.9,6.6-3.4
		c2.3-0.5,4.4-0.7,6.4-0.7h15l-4.6,2.7h-5C37,12.1,37.5,12.5,38.1,13.1z M66.1,21.1h-7.9V29h-3.8v-7.9h-7.9v-3.8h7.9V9.4h3.8v7.9
		h7.9V21.1z"/>
</g>
</svg>
