<?xml version="1.0" encoding="utf-8"?>
<!-- Generator: Adobe Illustrator 19.2.1, SVG Export Plug-In . SVG Version: 6.00 Build 0)  -->
<svg version="1.1" id="Layer_1" xmlns="http://www.w3.org/2000/svg" xmlns:xlink="http://www.w3.org/1999/xlink" x="0px" y="0px"
	 viewBox="0 0 75 75" style="enable-background:new 0 0 75 75;" xml:space="preserve">
<path d="M0,0v75h75V0H0z M53.6,58.8c-2.1,1-4,1.7-5.7,2.1c-1.7,0.4-3.5,0.6-5.5,0.6c-2.2,0-4.2-0.3-6-0.9c-1.7-0.6-3.2-1.4-4.4-2.4
	c-1.2-1.1-2.1-2.2-2.5-3.4c-0.5-1.2-0.7-2.9-0.7-5.1V32.3h-5.4v-7c1.9-0.6,3.6-1.5,5-2.7c1.4-1.2,2.5-2.6,3.3-4.2
	c0.8-1.6,1.4-3.7,1.7-6.3h6.9v0.1v12.4H52v7.7H40.3V45c0,2.9,0.1,4.7,0.5,5.5c0.3,0.8,0.9,1.5,1.7,1.9c1.1,0.7,2.3,1,3.7,1
	c2.5,0,5-0.8,7.4-2.4V58.8z"/>
</svg>
